<?xml version="1.0" encoding="UTF-8"?>
<svg id="Capa_1" xmlns="http://www.w3.org/2000/svg" viewBox="0 0 700 700">
  <path d="M319.95,540.74c1.41-.46,2.83-.86,4.21-1.38,1.39-.52,2.73-1.17,4.1-1.75.29-.07.58-.13.88-.2.93-.11,1.92-.06,2.79-.37,6.03-2.11,12.07-4.19,18.01-6.51,2.84-1.11,5.48-2.72,8.22-4.09,2.1-1.05,4.22-2.06,6.32-3.09-2.98,1.91-5.96,3.82-8.94,5.72.03.07.05.13.08.2,5.62-2.37,11.25-4.75,16.87-7.12,1.61-1.28,3.21-2.56,4.82-3.84-.59,1.66-1.16,3.33-1.79,4.98-.85,2.19-1.76,4.36-2.64,6.54.38.21.76.42,1.13.64,2.21-2.58,4.58-5.05,6.61-7.77,8.74-11.7,15.53-24.5,19.64-38.49,5.08-17.25,12.35-33.67,18.28-50.58,12.74-36.31,22.65-73.36,28.88-111.36,1.72-10.47,3.48-20.95,4.58-31.5,1.99-19.18-1.03-37.91-6.08-56.39-2.05-7.51-5.28-14.5-9.47-21.03-3.87-6.02-7.54-12.06-5.01-19.7-2.13-.69-3.92-1.28-6.07-1.98v5.42c-.08,0-.15,0-.23,0-.1-2.04-.21-4.07-.31-6.11l-.87-.16c-.41.6-.81,1.2-1.15,1.7-.17-.81-.37-1.73-.58-2.69-1.58.24-2.96.44-4.54.68v4.82c-.12,0-.24.02-.36.02-.17-2.19-.34-4.39-.54-6.87-4.9-.69-10-1.34-15.06-2.19-.66-.11-1.15-1.27-2.15-2.45-1.47-.51-4.57,2.19-5.98-1.59-5.76,1.61-10.68-1.73-16.01-2.56-5.58-.87-9.5-3.96-12.43-8.58-4.18-6.58-2.37-13.29.02-19.76,2.27-6.14,6.54-10.86,12.28-14.17,5.33-3.07,10.16-2.57,14.99,1.29,2.37,1.89,5,3.45,7.51,5.16.24-.24.48-.47.73-.71-.7-1.21-1.4-2.42-2.22-3.85,3.15-.02,5.33.9,7.4,3,5.79,5.88,11.77,6.36,18.78,1.9,1.79-1.14,3.59-2.3,5.21-3.65.8-.67,1.2-1.81,2.04-3.17-2.43-2.41-5.07-5.35-8.05-7.87-3.11-2.63-7.03-1.94-10.58-1.26-4.35.83-8.37.18-12.51-1.06-5.99-1.8-12.05-3.43-18.13-4.88-10.47-2.48-19.12.88-25.77,9.07-9.07,11.18-13.25,24.2-12.53,38.49.22,4.36,2.23,8.7,3.82,12.9,1.92,5.09,5.94,9.23,6.88,14.83.1.59,1.36.94,1.98,1.5.72.65,1.34,1.41,2.09,2.21,1.91-1.72,3.6-.15,5.4.79,6.69,3.5,13.65,5.9,21.36,4.77,9.62-1.42,19.24-2.83,28.82-4.44,1.3-.22,2.41-1.57,4.01-2.68.03.06.66,1.07.56,1.15-1.58,1.24-3.13,3.11-4.91,3.38-6.8,1.04-13.53,2.57-20.45,2.85-3.55.14-4.6,3.76-6.79,5.78-.57.65-1.13,1.29-1.7,1.94-.17-.25-.34-.5-.51-.75,0-.11.02-.22.03-.32l.05-.05c.03-.19.06-.37.09-.56,1.22-1.46,2.43-2.93,3.81-4.59-1.04,0-1.81.12-2.53-.02-1.43-.28-2.59,1.45-4.11.5-.13-.08-.58.54-.92.58-1.12.14-3.11.48-3.22.17-.58-1.59-2.32-.43-3.16-1.66-.47-.69-2.33-.43-3.85-.64,0,.04-.19.7-.27.95-.77-.65-1.57-1.81-2.58-2.06-2.14-.54-4.74.2-6.19-2.5.16,1.26.32,2.52.49,3.78-.14.03-.29.06-.43.08-.18-.76-.36-1.51-.61-2.56-.53.62-.87,1.01-1.23,1.43-.22-.43-.42-.81-.63-1.22-.15.75-.28,1.42-.57,2.87-.56-1.52-.84-2.29-1.17-3.18-.12.88-.23,1.65-.33,2.42-.13,0-.26,0-.39,0-.3-1.92-.6-3.84-1-6.39-.14,2.04-.24,3.43-.34,4.83-.13,0-.26,0-.39.01-.08-.9-.17-1.8-.28-3.06-.34,2.19-.62,3.98-.89,5.78-.25-.03-.5-.07-.75-.1v-7.59c-.06,0-.11,0-.17,0-.36,1.98-.72,3.97-1.09,5.95-.18-.02-.35-.03-.53-.05v-8.56c-.12,0-.23,0-.35,0-.38,3.29-.76,6.59-1.14,9.88-.16-.02-.32-.04-.48-.06v-8.25c-.46,1.66-.4,3.41-.85,5.02-.37,1.33-1.34,2.5-2.05,3.74-.33-.13-.65-.26-.98-.39-.2-2.23-.39-4.46-.57-6.5-.56,2.26-1.17,4.68-1.78,7.11-.24-.06-.48-.13-.72-.19.51-3.98,1.03-7.97,1.54-11.95-.15-.02-.3-.04-.44-.05-.51,2.66-1.02,5.32-1.54,7.98-.11-.01-.23-.03-.34-.04.18-2.06.36-4.13.53-6.19-.15,0-.31-.02-.46-.03-.29,3.05-.58,6.1-.87,9.15-.41-.06-.82-.13-1.23-.19.91-6.22,1.83-12.45,2.74-18.67-.16-.03-.32-.06-.47-.08-1.02,5.22-2.05,10.45-3.01,15.36,0-.02-.19-.42-.41-.9-.53,1.49-1.03,2.89-1.54,4.28-.17-.06-.35-.13-.52-.19.82-3.31,1.64-6.62,2.64-10.62-1.28,2.1-2.14,3.52-3.01,4.94.77-3.92,1.54-7.83,2.31-11.75-.36-.05-.72-.1-1.08-.15-.39,3.97-.79,7.93-1.18,11.9-.43.04-.86.08-1.57.15,1.16-6.26,2.34-12.6,3.51-18.93-.15-.03-.31-.06-.46-.08-2.04,8.47-4.08,16.94-6.12,25.41-.08-.04-.17-.08-.25-.13,1.34-9.4,2.67-18.81,4.01-28.21-.1-.02-.19-.04-.29-.05-1.64,8.75-3.28,17.5-4.92,26.25-.25-.05-.5-.1-.75-.15.95-5.28,1.9-10.56,2.85-15.83.59-3.3,1.18-6.61,1.76-9.92,1.05-4.33,2.09-8.65,3.1-12.8-1.98,3.89-4.36,7.87-3.09,12.81-.32.4-.83.76-.93,1.21-.65,2.91-1.18,5.85-1.8,8.77-1.19,5.62-2.41,11.23-3.62,16.84-.18-.04-.36-.09-.54-.13,1.15-5.81,2.29-11.61,3.44-17.42-.27-.05-.55-.11-.82-.16-.3,1.78-.54,3.56-.91,5.32-.35,1.7-.81,3.38-1.28,5.05-.46,1.61-.99,3.19-1.49,4.79-.22-.07-.43-.14-.65-.21,2.48-10.79,4.95-21.59,7.1-30.94-4.36,7.12-4.21,17.18-7.47,26.22.53-3.29,1.06-6.58,1.6-9.86-.12-.02-.23-.05-.35-.07-.89,3.48-1.79,6.95-2.68,10.43.46-5.07,1.52-9.99,2.73-14.87.31-1.25,1.1-2.38,1.66-3.57,1.68-4.08,3.36-8.15,5.04-12.22-1.7,2.3-2.99,4.77-3.98,7.36-.59,1.55-.68,3.28-1,4.93-1.99-1.38-.72-3.11-.14-4.36,2.43-5.23,5.12-10.34,7.72-15.49.25-.5.51-.99.76-1.48-4.8,5.94-8.17,12.62-10.14,19.89-1.38,5.09-1.82,10.44-3.19,15.53-.94,3.47-2.75,6.71-4.18,10.05-.28-.13-.56-.26-.84-.4.58-1.06,1.38-2.05,1.69-3.18,1.81-6.55,3.78-13.07,5.16-19.72,1.66-7.98,5.37-14.94,9.39-21.87,1.55-2.68,2.36-5.81,3.36-8.78.1-.29-.76-.9-1.18-1.37-.34-.11-.68-.22-1.02-.33.5-1.41.99-2.82,1.49-4.22-3.71,2.97-7.54,5.92-9.87,9.78-2.72,4.51-4.13,9.8-6.11,14.76-.61,1.25-1.38,2.45-1.79,3.76-1.64,5.26-3.17,10.55-4.74,15.84.4-2.24.8-4.47,1.26-7.1-2.14,6.31-4.15,12.19-6.12,18.08-.09.28.21.68.33,1.03-2.25,2.3-4.52,4.57-6.73,6.89-6.95,7.32-13.96,14.59-20.75,22.06-1.47,1.62-2.1,4.01-3.12,6.05,0,0-.17.09-.17.09l.09.17c-.71.32-1.69.45-2.07,1-5.2,7.44-10.32,14.94-15.42,22.46-.07.11.41.59.63.89-2.28,2.78-4.58,5.54-6.81,8.36-.14.18.29.81.46,1.23-1.55,1.98-3.11,3.97-4.66,5.95.13.09.26.19.39.28,3.87-2.93,7.74-5.87,11.61-8.8-.17,2.21-2.01,2.97-3.46,4.16-4.08,3.36-8.18,6.71-12,10.36-1.47,1.4-2.19,3.57-3.26,5.4-.75,1.16-1.61,2.26-2.21,3.49-.44.9-.56,1.96-.82,2.94-1.11,1.19-2.23,2.38-3.3,3.52.68.72,1.11,1.17,1.55,1.62-1.57,2.1-3.29,4.11-4.68,6.33-1.39,2.23-2.46,4.66-3.67,7-.54,1.48-1,3-1.62,4.44-1.24,2.89-2.57,5.73-3.86,8.6-.63.97-1.27,1.94-1.9,2.91-2.04,5.38-4.08,10.75-6.12,16.13.19.06.38.13.57.19.99-2.04,1.98-4.08,2.97-6.13.98-1.78,1.97-3.57,2.95-5.35.77-.97,1.81-1.84,2.26-2.94,3.32-8.06,10.07-13.2,16.03-19.01-1.77,2.1-3.52,4.21-5.32,6.28-1.12,1.28-2.32,2.5-3.49,3.74.28.26.56.52.83.78,5.31-5.71,10.62-11.43,16.01-17.23-1.78,1.02-3.53,2.03-5.28,3.03-.05-.51-.11-1.03-.23-2.19-3.59,5.86-8.17,9.8-13.72,12.64.03-.4.06-.79.09-1.19.87-.87,1.69-1.79,2.61-2.6,5.89-5.15,11.81-10.28,17.71-15.41,2.48-1.81,4.95-3.63,7.43-5.44,3.57-2.38,7.18-4.7,10.7-7.16,1.04-.73,1.8-1.84,2.69-2.77,1.48-1.47,4.39-2.14,2.9-5.25,1.43-2,2.86-3.99,4.29-5.99,1.54-2.59,3.08-5.18,4.62-7.77,2.45-4.38,4.91-8.76,7.36-13.14l.95.4c.09,1.09.18,2.18.27,3.27-3.57,6.43-6.48,13.09-7.7,20.62,2.02-5.29,3.84-10.41,5.97-15.41.52-1.23,2.01-2.04,3.05-3.05-.47.93-1.08,1.83-1.35,2.81-.19.69.08,1.5.15,2.26-1.35,3.56-2.69,7.11-4.04,10.67,2.06-3.41,3.76-6.92,5.39-10.46.34-.74.44-1.6.65-2.41.43-.13.87-.26,1.3-.4.09.13.18.24.28.36-1.52,3.17-3.05,6.35-4.57,9.52,1.86-2.32,3.39-4.76,5.15-7.02.52-.67,1.7-.84,2.57-1.24.37-.24.75-.47,1.12-.71l-.05.06c.22-.16.44-.31.67-.47,0,0,.06-.06.06-.06.1-.02.2-.03.31-.03-.21.97-.22,2.05-.68,2.87-.91,1.62-2.07,3.11-3.13,4.65.21.22.43.45.64.67,3.53-2.39,7.06-4.77,10.54-7.13-.64,1.01-1.11,2.4-2.07,3.15-4.94,3.86-7.42,9.32-9.8,14.8-2.72,6.26-6.09,12.12-10.81,17.02-4.28,4.44-8.76,8.72-13.48,12.69-9.57,8.04-15.72,18.12-19.14,30.05-3.12,10.88-1.17,21.71.09,32.55.03.23.72.38,1.1.57,0,0-.06-.08-.06-.08.37,4.63.83,9.26,1.04,13.89.05,1.17-.68,2.38-1.06,3.57l.09-.07c-.82-2.66-1.8-5.28-2.4-7.99-.63-2.88-.85-5.85-1.33-8.77-.36-2.19-.87-4.35-1.38-6.87-4.86,2.65-5.69,7.64-7.49,12.96.9-1.04,1.29-1.5,1.68-1.96-.86,12.1-3.56,23.75-8.02,35,1.13-1.07,2.26-2.15,3.39-3.22.23.12.46.23.69.35-.51,2.49-1.01,4.97-1.52,7.46-.94,1.96-1.89,3.92-2.83,5.87-.61.79-1.22,1.57-1.91,2.47,1.83,1.57,3.44,2.94,5.57,4.77-.51,2.82-1.18,6.49-1.84,10.16.23-.02.46-.04.69-.05.27.87.9,1.8.75,2.59-.83,4.44-1.85,8.85-2.84,13.43h1.85c1.5,5.34,1.17,10.26-1.52,15.05-1.12,1.99-.21,4.02,1.53,5.63.52.48.92,1.5.81,2.19-.5,3.13-.56,6.55-1.97,9.25-2.11,4.05-.65,7.65.01,11.44.13.73.54,1.46.5,2.17-.8,14.55,3.15,28.02,9.07,41.11,1.98,4.37,3.31,9.04,4.95,13.57.24.67.54,1.33.95,2.34-.17-3.15-.32-5.88-.47-8.62.27-.05.54-.1.81-.15,1.65,4.9,3.3,9.8,4.95,14.7-.31.15-.63.3-.94.45-.54-.68-1.09-1.37-1.99-2.5v3.94c-.32.09-.65.19-.97.28-4.04-5.93-5.31-13.18-8.4-19.13-7.29,3.24-14.56,6.48-21.84,9.72-.31-.44-.62-.89-.93-1.33,1.22-.71,2.43-1.42,3.96-2.32-.92-.33-1.16-.49-1.25-.43-5.31,3.67-11.8,4.77-17.32,8-5.74,3.36-11.56,6.59-17.42,9.74-3.02,1.63-6.19,2.25-9.69,1.11-1.3-.42-2.98.22-4.47.48-3.72.66-7.44,1.39-11.28,1.61,4.63-.28,6.19-5.15,9.82-6.86-3.84,1.42-7.68,2.86-11.54,4.24-3.39,1.22-6.45,3.63-10.36,3.03-2.13-.33-4.24-.72-5.61-.95,7.66-3.59,16-7.53,24.36-11.42,11.38-5.3,22.79-10.55,33.07-17.87,3.48-2.48,6.79-5.19,9.8-8.27-2.6,1.68-5.32,3.22-7.79,5.08-9.27,6.99-19.91,11.31-30.34,16.11-10.95,5.04-21.91,10.09-32.53,15.77-3.01,1.61-5.48,1.68-8.56,1.6-9.56-.24-19.12-.09-28.68-.63,9.93,0,19.86.03,29.78-.04,1.06,0,2.34-.33,3.13-.98,17.9-14.91,33.67-31.85,46.99-50.95,4.39-6.3,7.84-13.28,11.5-20.07,4.85-9.01,5.32-18.73,4.59-28.74-.49-6.81-.12-13.69-.11-20.54,0-1.93.18-3.87.08-5.79-1.5-27.14,3.09-53.66,7.79-80.22,5.5-31.02,17.56-59.35,34.33-85.73,11.08-17.42,22.62-34.59,34.76-51.29,6.49-8.92,14.54-16.75,22.21-24.76,3.79-3.95,6.54-8.25,8.14-13.44,3.83-12.44,7.39-24.99,11.76-37.24,6.93-19.4,19.14-34.84,37.25-44.99,21.68-12.15,44.54-13.43,68.08-6.13,11.17,3.46,21.59,8.48,30.82,15.66,9.61,7.47,20.81,9.82,32.51,10.69,7.92.59,15.77,1.44,23.33,4.03,9.78,3.34,16.79,9.68,20.77,19.25.46,1.11.57,2.36,1.02,4.37-4.59-2.59-8.43-1.41-12.09-.6-8.07,1.78-16.16,2.55-24.43,2.48-12.23-.1-23.52,3.85-33.64,10.29-10.23,6.51-19.76,14.12-29.61,21.24-4.12,2.98-4.37,7.06-2.96,11.36.83,2.54,1.96,5.09,3.48,7.28,9.14,13.22,12.96,28.26,15.76,43.77,3.88,21.48,1.96,42.7-2.02,63.89-1.34,7.11-2.61,14.24-3.69,21.4-.24,1.6.06,3.48.7,4.97,6.31,14.61,13.19,29,16.66,44.68,3.88,17.55,4.2,35.22,1.97,52.99-1.83,14.59-5.79,28.56-12.71,41.58-3.88,7.29-8.78,13.87-15.2,19.19-3.41,2.82-7.14,4.53-11.8,4.43-3.12-.07-3.12-2.77-3.67-4.12-.87-2.16-.54-4.92-.27-7.38.23-2.02,1.17-3.94,1.71-5.93.79-2.9,1.49-5.82,2.24-8.74.62-2.42,1.25-4.84,1.68-7.33.24-1.24.6-2.47.71-3.72.22-2.6.27-5.22.44-7.82.09-1.46.5-2.93.38-4.36-.21-2.69-1.17-5.39-.98-8.02.49-6.8-2.7-12.68-4.15-18.98-.11-.46-.29-.92-.5-1.35-.17-.34-.43-.63-.93-1.33-.64,1.63-1.17,2.99-1.7,4.34-3.69,9.43-7.56,18.79-11.01,28.31-3.55,9.79-6.54,19.78-10.02,29.6-4.5,12.72-10.51,24.69-18.99,35.28-1.98,2.47-4.26,4.73-6.62,6.85-1.3,1.16-2.12,2.3-1.59,3.96,1.54,4.85,2.64,9.97,5.02,14.39,1.31,2.41,4.7,4.72,7.45,5.15,9.23,1.43,18.6,1.96,27.91,2.9,3.17.32,6.31.8,9.47,1.23,5.53.75,11.05,1.51,16.67,2.27.67,3.4,6.64,7.5,11.45,7.52,15.94.06,31.88.09,47.81.13,3.95,0,7.9,0,11.85.35h-62.27c1.08,2.14,1.9,4.15,3.1,5.92.36.54,1.74.54,2.65.55,15.55.1,31.11.41,46.65.16,23.56-.37,47.11-1.16,70.67-1.71,5.98-.14,11.97-.02,17.96.54-45.62.67-91.24,1.35-137.11,2.02.05.51.13,1.38.23,2.47h7.04c0,.11,0,.21,0,.32-2.15.09-4.3.19-6.45.28.01.22.03.43.04.65h23.28c0,.33,0,.66,0,.99-7.04,0-14.08-.07-21.12.07-1.18.02-2.49.71-3.47,1.45-1.38,1.05-2.44,1.29-3.69-.09-2.94-3.25-5.93-6.45-9.14-9.93-2.09,2.77-3.7,4.92-5.02,6.66-3.94-.15-7.75-.16-11.53-.51-1.2-.11-2.39-.99-3.46-1.71-1.31-.89-2.48-1.98-4.15-2.58,1.12,2.53,2.24,5.06,3.51,7.93h25.68c0,.22,0,.44,0,.66h-25.46v.82h41.61c0,.24,0,.49,0,.73h-41.42c-.22,1.31-.33,2.36-.58,3.37-.46,1.81-2.85,2.6-3.43,1.12-1.81-4.55-5.5-4.01-9.12-3.97-.77,0-1.54,0-2.32-.27,2.46-.14,4.93-.27,7.6-.42-.85-1.64-1.6-2.3-3.86-1.97-4.74.68-9.59.67-14.4.76-7.44.13-14.88.26-22.31.08-4.3-.11-8.59-.82-12.32-1.2.92,3.18,2.08,6.71,2.9,10.31.22.98-.57,2.19-.9,3.3-1.08-.56-2.41-.89-3.19-1.73-2.91-3.17-5.64-6.51-8.87-10.31-.3,1.4-.39,2.1-.6,2.76-1.01,3.28-3.57,4.7-6.83,3.6-5.04-1.71-10.02-3.57-14.84-5.3.3,2.4,1.16,2.64,6.26,4.48-1.29-.14-2.58-.27-4.22-.45.53,1.62-.1,3.57,2.5,3.5,1.63-.05,3.26,0,4.92.46-2,.09-4.01.19-6.12.29.14,1.66.26,3.16.39,4.8-1.97.78-3.58.73-4.69-1.31-1.24-2.28-3.22-2.81-5.73-3.09-6.07-.66-12.08-1.91-18.14-2.66-3.91-.48-7.88-.5-11.83-.81h5.7c-12.28-2.12-24.62-.77-36.97-1.07.86-.09,1.72-.17,2.57-.26v-.51h-18.29c0-.28,0-.56,0-.84h31.81c0-.37,0-.74,0-1.11-14.33-1.27-28.75,1.02-43.08-.38h53.64c-4.57-.39-8.78-1.02-13.01-1.05-17.77-.14-35.54-.11-53.31-.13-15.74-.01-31.49,0-47.23-.63h111.27c-3.49-2.13-5.2-2.61-15.44-2.69-17.77-.15-35.55-.06-53.32-.14-16.61-.07-33.22-.22-49.83-.35-1.44-.01-2.88-.16-4.33-.75,2.21,0,4.42,0,6.62,0,8,.01,16,.04,24,.04,19.69.02,39.38.12,59.06-.01,5.96-.04,11.92-.79,17.89-1.03,2.97-.12,5.95.17,8.93.28-1.09.25-2.17.71-3.25.72-6.32.07-12.64.03-18.97.03,3.71.43,7.42.42,11.13.43,3.46,0,6.91.03,10.37-.04.22,0,.44-.72.65-1.1-.76-.38-1.53-1.11-2.28-1.09-9.65.22-19.29.64-28.94.84-10.72.22-21.44.43-32.15.33-16.49-.15-32.97-.57-49.46-1.44h110.77c.11-.28.23-.57.34-.85-.8-1.12-1.53-2.29-2.41-3.34-2.62-3.11-4.22-6.61-4.61-10.69-.09-.95-.53-2.16-1.24-2.7-3.68-2.79-4.86-6.55-4.3-11.35.1.36.21.73.31,1.09.21-.04.42-.08.63-.12.28-1.74.56-3.48.84-5.22.05,0,.1,0,.14,0v6.35c.69-.55,1.08-.86,1.47-1.17.17,1.31.34,2.58.51,3.85l.92.03c.59-4.94,1.18-9.87,1.85-15.51v8.94c3.81-5.03,3.4-11.24,5.57-16.85-.58,4.22,0,8.11,2.96,12.03-.68-3.2-1.24-5.8-1.79-8.41.28-.07.55-.15.83-.22,1.09,2.59,2.19,5.17,3.28,7.76.16-.02.33-.04.49-.06v-6.38c.17-.02.34-.04.52-.06l1.01,4.44.44-.05v-4.15c.15-.03.3-.05.45-.08.56,1.55,1.11,3.11,1.67,4.66.17-.03.34-.06.51-.08-.07-1.02-.14-2.04-.25-3.5,1.37,3.78,2.58,7.12,3.79,10.45l.5-.18c-.38-2.69-.76-5.38-1.14-8.06l.6-.16c1.41,3.38,2.83,6.76,4.49,10.73v-18.31c.56,6.53,1.1,12.85,1.65,19.16.27-.02.53-.05.8-.07v-26.66c.18,0,.36-.02.54-.03.18,1.11.36,2.21.54,3.32.14-.01.27-.03.41-.04v-8.47l.44-.05c.36,3.45.71,6.9,1.07,10.36.1-.01.2-.03.3-.04.2-2.1.39-4.21.65-6.91.71.87.99,1.2,1.29,1.58.09-.48.17-.93.25-1.36.12-.04.26-.1.27-.09.41.87,1.22,1.8,1.11,2.61-.19,1.5-1.38,2.94-1.31,4.37.08,1.68-.78,4.11,1.93,4.83-1.08,1.44-2.17,2.89-3.26,4.34-.3,1.14-.59,2.27-.89,3.41-.49,2.75,1.64,1.1,2.16,1.01,1.44-.25,2.78-1,4.17-1.56-.11.51-.22,1.02-.37,1.68,1.93-.78,3.74-1.51,5.56-2.25-.28.46-.56.93-.85,1.39-1.01.52-2.02,1.05-3.03,1.57.16.29.32.58.48.86,1.28-.53,2.58-1.02,3.84-1.6,1.94-.9,3.85-1.88,5.77-2.82-.06.39-.13.77-.23,1.41,1.22-.54,2.21-.98,3.21-1.42-1.01.83-2.01,1.66-3.02,2.49.1.13.21.25.31.38,1.27-.8,2.53-1.59,3.8-2.39ZM433.81,409.37c.11-.14.22-.28.35-.4l.09-.17.47-.59h0c.12,0,.24,0,.36,0-.19,1.06-.38,2.13-.57,3.18-.31.36-.63.72-.94,1.08-.25.99-.5,1.98-.75,2.97-.53.67-1.06,1.34-1.59,2-.89,1.49-1.77,2.98-2.33,3.92,4.12-3.74,8.7-7.89,13.55-12.29-.55,1.31-1.02,2.43-1.53,3.64.29.14.78.37,1.17.55-3.42,4.12-6.83,8.22-10.24,12.33.17.15.34.3.51.44,4.44-4.44,8.88-8.89,13.33-13.33.18.17.37.33.55.5-3.68,4.12-7.35,8.25-11.03,12.37.24.21.48.43.71.64,3.55-2.52,5.67-7.19,11.6-7.5-2.1,1.96-3.73,3.42-5.27,4.96-.2.2.02.83.05,1.26-1.17,1.43-2.34,2.87-3.51,4.3.14.13.28.25.43.38,2.02-1.54,4.04-3.07,6.06-4.61l2.12-1.62c.17.28.56.69.49.82-1.12,1.86-2.31,3.68-3.72,5.88,3.16-2.11,5.76-3.83,8.35-5.58.54-.37,1.03-.81,1.54-1.22-1.44,2.63-3.17,4.91-5.05,7.05-1.8,2.04-3.65,4.08-5.69,5.87-2.08,1.82-4.42,3.33-6.65,4.98,5.36-1.9,9.07-7.22,15.51-6.44-.1.39-.2.77-.32,1.25.63-.24,1.12-.42,1.23-.46-.12,2.78-.25,5.59-.4,8.89,1.31-1.01,2.24-1.72,3.69-2.83-.85,2.07-1.46,3.54-2.06,5.02.16.09.32.19.48.28.67-.57,1.35-1.15,2.02-1.72.1.1.2.21.3.31-1.78,2.02-3.57,4.05-5.35,6.07.05.05.11.1.16.15,1.26-1.1,2.53-2.2,3.79-3.3.21.12.42.25.63.37-1.32,3.05-2.65,6.11-3.81,8.78.76.26,2.03.7,3.1,1.07-1.28,4.16-2.6,8.47-3.95,12.77-.28.9-.78,1.75-.92,2.67-.06.38.58.87.95,1.38-.38.82-.82,1.78-1.27,2.74.21.11.43.21.64.32l3.72-7.45c.13.07.27.15.4.22l-2.46,7.1c9.57-18.67,12.45-38.72,12.59-59.39.17-26.14-8.12-49.96-19.63-72.94.08,1.18.31,2.35.81,3.38,6.37,13.27,11.72,26.89,13.97,41.55.3,1.98.4,3.99.59,5.98-.2.01-.4.03-.59.04-5.33-14.78-10.67-29.57-16-44.35-.24.02-.48.04-.72.06-.94,9.96-3.58,19.53-6.23,29.21.88-1.04,1.72-2.02,2.55-3,.1.06.2.12.29.19-1.55,2.77-3.11,5.54-4.66,8.31.2.12.41.24.61.35,1.25-2.01,2.5-4.03,3.74-6.04.19.11.37.22.56.33-1.37,2.43-2.75,4.86-4.54,8.03,1.25-1.01,1.8-1.45,2.07-1.67-2.48,4.91-5.1,10.07-7.71,15.24l.67.34c1.62-2.41,3.23-4.82,4.85-7.23.25.17.51.35.76.52-2.61,4.22-5.22,8.43-7.83,12.65.08.02.15.05.23.07,4.85-5.38,9.7-10.76,14.55-16.14-1.48,2.74-3.5,5.01-5.37,7.41-1.43,1.84-2.68,3.83-4.01,5.75-.37.13-.74.27-1.11.4h.09c-.49.82-.99,1.65-1.48,2.47.31.22.63.44.94.66.12-.18.23-.36.35-.54.17-.14.34-.27.5-.41l.03-.21.21-.02ZM355.98,586.04c.05.22.1.44.14.67.08-.04.15-.08.23-.12-.14-.16-.29-.33-.43-.49-.44-.52-.88-1.04-1.32-1.57-.13-.42-.25-.85-.38-1.27-.28.18-.56.36-.84.55.43.22.85.44,1.28.66.44.53.88,1.05,1.31,1.58ZM357.98,569.97c-1.19,3.6-.08,7.76,1.61,8.56-.48-2.53-1.04-5.54-1.61-8.56,2.15-3.46,4.3-6.93,6.44-10.39-2.68,2.58-4.91,5.52-7,8.56-.22.33.35,1.21.56,1.83ZM233.06,373.47c-1.64,2.85-3.65,5.56-4.83,8.59-1.24,3.16-3.48,5.86-3.94,9.42-.23,1.8-1.5,3.46-2.3,5.18.25.11.5.22.74.32,3.17-7.15,6.34-14.29,9.49-21.44.3-.69.52-1.41.78-2.12,2.53-4,5.06-8,7.59-12-.32-.18-.65-.37-.97-.55-2.19,4.2-4.38,8.4-6.56,12.6ZM236.53,338.68c-.38.24-.91.4-1.12.74-4.51,7.37-9.01,14.76-13.45,22.17-.56.94-.8,2.07-1.19,3.11,5.12-8.52,10.35-16.89,15.56-25.26.14-.22.1-.55.15-.82,2.97-3.71,5.94-7.42,8.91-11.14-.4-.29-.81-.58-1.21-.87-2.54,4.02-5.09,8.04-7.63,12.06ZM388.97,565.63l-.34-1.27c-1.11.55-2.21,1.09-3.32,1.64.37-.68.73-1.35,1.1-2.04-3.4-1.6-4.61.68-5.98,2.62.77-1.26,1.53-2.52,2.27-3.74-2.6-2.02-4.03.05-5.34,1.26,0-1.17.35-3.06-.07-3.25-1.05-.47-2.52-.43-3.68-.11-1.04.28-1.91,1.21-2.85,1.85.43-.58.86-1.15,1.29-1.73-5.88,3.94-6.23,7.69-2.61,12.26,1.52,1.92,3.75,3.28,6.16,5.33-2.08-3.85-6.54-5.38-6.32-9.88,1.19,4.06,5.12,5.37,7.87,7.87l3.3,1.53c.61-.57,1.22-1.14,1.87-1.75-.65-1-1.23-1.88-1.81-2.76.1-.07.2-.15.3-.22.61.44,1.22.89,2.4,1.76-.89-1.77-1.43-2.85-1.97-3.94l6.63,6.09c.22-.2.45-.39.67-.59-.55-.67-1.1-1.35-1.66-2.02.35-.53.7-1.05,1.07-1.61,1.44,1.06,2.82,2.06,4.2,3.07.24-.77.12-1.03-.07-1.22-.12-.13-.32-.17-.49-.25.13-.91.26-1.82.43-2.98,1.71,1.32,3.26,2.53,4.8,3.73.07-.41.19-1.08.37-2.09.35.72.53,1.08.48.98.64-1.68,1.39-3.65,2.14-5.62-1.62,4.15-1.64,6.22-.09,7.94-.14-.97-.29-1.99-.56-3.79.82,1.16,1.21,1.71,1.64,2.31.23-.99.42-1.78.61-2.57.16.04.31.08.47.12v1.91c1.17-1.52,2.7-3.52,4.44-5.79-2.04-.22-4.04-.44-6.03-.66-2.35-.89-4.65-2.05-7.08-2.52-.81-.16-1.96,1.48-2.95,2.29.35-.9.71-1.8,1.21-3.06-1.14.42-1.83.68-2.52.94ZM355.69,558.48c-2.87,1.63-5.75,3.26-8.62,4.89.14.24.28.48.42.72,3.39-1.91,6.78-3.81,10.17-5.72,6.8-1.6,13.61-3.2,20.44-4.8-.38-.17-.85-.5-1.36-.59-5.68-.99-11.07.52-16.42,2.08-.76.22-1.26,1.34-1.88,2.05-.6-.57-1.26-1.69-1.78-1.63-2.89.35-5.74.98-8.61,1.51.04.2.09.4.13.6,1.06-.12,2.12-.24,2.71-.31-1.63,1.12-3.52,2.42-5.09,3.5,3.16-.74,6.52-1.52,9.87-2.31ZM227.83,376.34c-.45.71-1.06,1.37-1.33,2.14-2.47,6.98-4.94,13.97-7.26,21-.83,2.51-1.27,5.16-1.89,7.74,2.48-6.25,4.39-12.63,6.4-18.98,1.27-4.01,2.67-7.97,4.02-11.96,2.24-3.77,4.48-7.55,6.71-11.32-.34-.18-.67-.36-1.01-.54-1.88,3.97-3.76,7.94-5.64,11.91ZM216.29,381.65c-1.17,5.49-2.47,10.95-3.48,16.47-.67,3.68-.94,7.43-1.38,11.14,1.38-5.54,2.69-11.06,3.66-16.64.63-3.64.77-7.36,1.13-11.04,1.26-2.99,2.52-5.99,3.78-8.98-.37-.13-.75-.26-1.12-.4-.86,3.15-1.73,6.3-2.59,9.45ZM350.05,126.62l2.08-1.37-.19-.32c-.41.15-.82.29-1.23.44.61-.7,1.09-1.74,1.86-2.02,1.96-.73,4.04-1.13,6.07-1.66-.02-.11-.03-.22-.05-.33l-3.51.42c-.03-.17-.06-.33-.09-.5,3.18-.62,6.37-1.24,9.55-1.86-.03-.19-.06-.38-.09-.57-3.01.39-6.02.78-9.03,1.17-.02-.14-.04-.28-.06-.42,3.04-.77,6.08-1.54,9.11-2.32l-.09.07c4.4-.16,8.79-.5,13.19-.45,8.71.1,17.42.41,26.15.62,6.59,1.28,13.17,2.57,19.76,3.85-.86-.9-1.84-1.21-2.85-1.39-4.44-.81-8.88-1.63-13.33-2.35-1.19-.19-2.43-.04-3.65-.05-.32-.31-.6-.83-.96-.9-4.07-.79-8.13-1.72-12.24-2.19-3.09-.35-6.26-.07-9.39-.07,4.24-.78,8.48-1.16,12.73-1.29,5.87-.19,11.54.83,17.21,2.5,6.26,1.85,12.73,2.99,19.11,4.44,2.6.59,5.2,1.21,7.79,1.82-16-5.49-32.35-9.38-49.08-10.81,8.43-1.01,16.7.91,25,2.53,2.54.5,5.59,2.25,7.49,1.4,4.46-2.01,7.96,2.03,12.29.86,2.39-.65,5.43,1.13,8.23,1.82-.07-.37-.13-.72-.19-1.07,1.04.34,2.09.69,3.13,1.03.02-.08.04-.16.06-.24-2.69-1.75-5.39-3.5-8.08-5.25,3.43,1.66,6.85,3.33,10.28,4.99.08-.15.16-.3.24-.45-1.5-1-2.99-2-4.49-3,.08-.15.17-.3.25-.45,3.58,2.04,7.17,4.08,10.75,6.12-.09-.5-.33-.76-.62-.96-14.62-10.11-30.79-16-48.55-16.85-24.38-1.16-45.25,6.91-62.21,24.7-8.75,9.18-14.66,20.01-18.9,31.86-1.6,4.46-3.27,8.89-4.91,13.33,2.69-5.16,5-10.43,7.14-15.78,2.05-5.12,7.38-8.21,8.36-14.1.25-1.52,2.5-2.71,3.83-4.06,3.61-1.88,7.22-3.76,10.83-5.65-.11-.21-.22-.42-.33-.63-1.45.67-2.91,1.35-4.36,2.02,2.86-1.95,5.73-3.89,8.62-5.86-.94-.27-1.78-.52-2.63-.77ZM353.57,568.31c-.3-.05-.6-.1-.91-.14.09.21.18.41.26.62.21-.22.42-.44.63-.66.67.65,1.34,1.29,1.47,1.43,3.23-4.16,6.23-8.03,9.24-11.89-.03-.16-.05-.32-.08-.48-4.49,2.48-8.98,4.96-13.12,7.25v3.54c.29.21.57.43.86.64,1.1-1.46,2.19-2.92,3.77-5.02-.96,2.14-1.55,3.43-2.13,4.72ZM332.32,576.97c-.26.61-.53,1.21-.78,1.82-.73,1.79-.53,2.11,1.84,2.74-.82-4.33,2.7-6.33,5.54-9.56-1.37.42-1.94.59-2.52.76-.02-.28-.06-.79-.07-.79-2.18.07-4.36.17-6.54.27-.87-.36-2.3-1.25-2.53-1.01-2,2.09-3.78,4.4-5.62,6.63.21.14.42.28.62.41,1.76-1.3,3.52-2.6,5.28-3.91.05.76.19,1.53.13,2.28-.07.88-.43,1.74-.44,2.61-.04,3.74,2.54,5.29,5.81,6.26,0-.67-.37-1.04-.77-1.38-.41-.35-.95-.59-1.27-1.01-1.93-2.54-.78-4.45,1.33-6.13ZM340.64,573.82c-.38-.26-1.05-.78-1.09-.73-1.73,1.89-3.66,3.68-4.94,5.85-.53.9.36,2.63.59,3.91.75-1.91,1.41-3.6,2.08-5.29-.18,1.7-.37,3.4-.55,5.1.21.02.42.04.63.06.7-1.33,1.4-2.67,2.37-4.51v3.61c.46-.98.81-1.72,1.34-2.86.15,1.8.26,3.12.37,4.43.1-.01.21-.02.31-.04.21-.84.43-1.68.72-2.82.71,2.3,1.28,4.18,1.85,6.06.43-.13.87-.27,1.3-.4-.32-1.13-.5-2.32-.98-3.39-1.94-4.36-.68-6.98,4-8.52-2.67-.15-5.34-.31-8-.46ZM424.05,566.82c-.13,1.54-.26,3.09-.38,4.63.24,0,.48.02.71.03.52-1.98,1.04-3.97,1.56-5.95.09.03.19.06.28.09-.19,1.95-.39,3.89-.58,5.84.26,0,.52.01.78.02.13-.34.26-.68.41-1.1.59.79,1.14,1.52,1.23,1.65.83-2.19,1.76-4.63,2.69-7.08.02,3.86,2.44,7.23,5.17,6.91-.67-1.22-1.99-2.54-1.94-3.8.05-1.42,1.35-2.78,2.33-4.6-2.78-.25-5.33-.64-7.88-.64-1.1,0-2.19.83-3.29,1.28.14-.73.28-1.47.51-2.66-2.84,2.35-4.2,6.8-3.36,9.38.54-1.25,1.14-2.62,1.74-3.99ZM312.43,569.37c-.12-.59-.04-1.42-.4-1.74-1.38-1.18-2.13-.15-2.92.96-1.86,2.62-1.94,2.95-.24,4.57.61-.71,1.22-1.42,1.83-2.14.81,1.18,1.63,2.35,2.57,3.72.47-.16,1.32-.46,2.41-.84v2.4c.97.39,1.71.68,2.41.96.87-1.09,1.72-2.16,2.58-3.23.15.11.3.22.46.33-.55,1.14-1.09,2.27-1.64,3.41.17.1.33.19.5.29,1.97-2.42,3.93-4.84,5.91-7.27-3.29-.82-6.41-1.76-9.61-2.3-1.2-.2-2.56.56-3.85.88ZM309.39,589.1c.78-.04,1.57-.09,2.28-.13-.2-1.7-.38-3.26-.52-4.46.97.96,1.89,1.73,2.63,2.64.68.84,1.18,1.84,1.85,2.92.17-.78.85-2.03.49-2.61-2.21-3.49-.3-5.54,2.35-7.42-1.94-.83-3.86-1.47-5.59-2.44-2.33-1.32-4.25-1.73-5.63,1.2.47-.91.93-1.83,1.46-2.86-1.19-.67-2.32-1.3-3.43-1.92-.62.81-1.13,1.48-1.65,2.16-.09-.07-.18-.14-.27-.22.37-.72.75-1.43.94-1.8-3.65-4.25-8.1-5.46-13.27-4.88-4.35.49-6.52,3.42-5.4,7.77.06.25.24.47.39.77.31-.42.57-.76,1.03-1.39.59,1.63,1.1,3.02,1.61,4.42l-.09-.1c.3,3.05,1.56,4.85,4.99,5.35,5.01.73,9.92,2.1,14.86,3.19.32-.07.64-.14.97-.21ZM292.36,551.59c-.19.16-.38.32-.57.48,1.46,1.56,3.33,2.91,4.31,4.73,2.91,5.41,7.86,7.03,13.35,7.97,11.62,2,23.23,4.05,34.84,6.07.13.02.3-.19.68-.45-.5-1.56-1.07-3.17-1.55-4.82-.92-3.15-2.06-6.39-.56-9.6,2.96-6.34,1.6-12.57.03-18.95-15.12,5.77-29.48,14.11-46.51,9.83-.24,2.17-.45,4.01-.7,6.21-1.44-.63-2.38-1.05-3.33-1.47ZM441.24,147.68c4.58-3.95,9.23-5.88,15.08-6.36,14.16-1.15,28.15-.3,41.94,3.32,2.27.6,4.71.58,7.07.85-.72-1-1.51-1.33-2.32-1.6-11.17-3.63-22.6-5.83-34.36-6.16-6.85-.19-13.88-.68-20.11,2.85-5.44,3.09-10.55,6.77-15.79,10.22-.36.24-.59.67-.83.96,4.74-.51,9.37-1.21,14.03-1.46,4.81-.26,9.64-.13,14.45-.04,1.42.03,2.85.45,4.24.8,8.89,2.24,17.75,4.55,26.65,6.72,2.05.5,3.68.31,6-.98,7.62-4.24,15.61-8.3,24.89-7.2,1.69.2,3.36.62,5.04.94-.62-.62-1.33-.96-2.05-1.01-8.16-.65-16.31-1.67-24.48-1.78-19.74-.26-39.48-.08-59.47-.08ZM294.13,557.49c.06.29.09-.05-.07-.23-1.85-2.21-3.69-4.43-5.61-6.58-1.26-1.42-2.58-2.36-4.75-1.37-1.68.77-3.65.9-6.18,1.47,1.94-.97,3.26-1.64,4.58-2.3-3.41.08-7.82-2.65-9.24-5.41.12,1.46.24,2.92.4,4.95-.2.08-1.03.39-2.51.96-2.9,2.73-1.34,7.19-2.4,11.37.73-.59,1.16-.93,1.59-1.28.25.14.49.28.74.41-.52,1.48-1.04,2.96-1.53,4.38.51-.33,1.14-.74,2.18-1.42-.75,1.41-1.24,2.32-1.62,3.02h3.07c1.78,3.89,3.43,7.5,4.9,10.72,1.17-.2,2.38-.41,4.19-.72.7-.96,1.63-2.86,3.11-4.1,2.01-1.7,4.34-3.13,6.72-4.27,2.36-1.13,4.97-1.76,7.46-2.61-7.22-.64-12.49,2.85-17.12,7.72,1.85-8.5,9.66-7.91,15.96-10.3-3.98-3.34-7.45.26-11.08-.13,2.52-.86,5.04-1.72,7.56-2.59l-.3-.79-13.97,5.38c-.08-.22-.16-.43-.24-.65,4.67-1.86,9.34-3.72,14.15-5.64ZM361.78,534c-3.81.23-7.53-2.84-11.67.59h7.25c0,.2,0,.41,0,.61h-9.36l.04.35c.72.27,1.45.53,2.33.86-1.1.49-1.94.86-3.2,1.41,1.1.2,1.72.31,2.92.52-1.67.48-2.74.79-4.43,1.27,1.55.1,2.46.16,3.68.24-1.07.49-1.83.85-2.8,1.29.85.24,1.99.38,2,.59.1,1.68.24,3.43-.11,5.06-.46,2.16-.64,2.2,1.5,2.2,3.28.01,6.56-.21,9.83-.11,4.72.14,9.44.47,14.16.72.02-.29.05-.59.07-.88-7.58-.67-15.15-1.34-22.73-2.02.02-.2.04-.41.06-.61,7.57.61,15.15,1.22,23.1,1.85-2.52-6.82-4.2-13.44-2.83-20.47.1-.51-1.27-1.88-1.9-1.84-2.36.13-4.76.56-5.7,3.32.57.3,1.04.56,1.96,1.04h-4.73c1.21.84,1.89,1.32,2.29,1.6-2.35-.18-4.89-.37-7.43-.56-.03.29-.07.59-.1.88,1.94.69,3.88,1.38,5.82,2.07ZM530.45,149.24c-.68-.97-1.21-2.08-2.05-2.88-2.44-2.32-4.74-4.95-7.57-6.68-6.22-3.8-12.77-6.86-20.47-5.21-1.25.27-2.6.04-3.9.04.01-.28.03-.57.04-.85,1.63-.09,3.27-.19,5.48-.31-9.85-1.26-19.09-2.44-28.33-3.62l-.08.27c3.6.86,7.19,1.73,9.74,2.34h-11.67c-.03.18-.06.35-.09.53,2.22.6,4.43,1.2,6.57,1.78.03-.1-.15.48-.14.48,2.49.8,4.98,1.6,7.49,2.33,3.23.93,6.5,1.72,9.72,2.71,5.31,1.62,10.58,3.34,15.87,5.02.1-.25.2-.5.31-.75-7.55-2.14-14.56-5.33-20.69-10.24,10.24,2.23,18.88,7.94,28.15,12.98-2.17-2.76-4.14-5.26-6.1-7.76.23-.23.46-.46.69-.69,6.69,1.75,12.2,5.41,17.05,10.52ZM401.11,564.77c1.66-3.18,4.77.79,6.76-1.49-.87,2.15.52,2.68,1.97,3.04,1.01.25,2.07.28,3.41.45-.07-.28.05.2.23.95.48-.88.79-1.45,1.07-1.96.69,1.62,1.35,3.2,2.06,4.87.63-.15,1.23-.28,1.82-.42.2-1.71,1.07-3,1.73-4.39.71-1.48,1.21-3.06,1.98-5.04-9.68-.66-19.02-1.29-28.35-1.95-3.19-.23-3.91.45-3.72,3.76,2.29-.61,4.58-1.23,6.75-1.81-.2.33-.5.84-1.21,2.02,1.33-.72,2-1.08,3.09-1.67-.74,1.12-1.19,1.81-2.16,3.28,2.11-.33,3.49-.54,4.88-.75-.03.12-.16.62-.3,1.11ZM451.38,144.83c13.92.29,27.91.59,42.6.9-14.82-4.08-36.22-4.91-42.6-.9ZM379.62,556.59c-10.84-2.12-15.94,4.92-20.27,12.63-.9,1.6.14,4.27.28,6.45l.8-.08-.5-4.87.55-.07c.27.84.54,1.68.96,3,.27-1.17.42-1.81.64-2.75.63,1.41,1.08,2.42,1.53,3.44.17-.07.33-.13.5-.2v-3.47c.45.96.69,1.58,1.01,2.16.27.48.62.91.93,1.34v-9.06c.21-.03-.21.03-.88.11,3.52-5.36,7.78-8.92,14.45-8.64ZM361.5,552.35c.02-.09.03-.17.05-.26,4.76-.32,9.52-.64,15.15-1.02-1.29-.52-1.78-.87-2.27-.88-7.41-.17-14.83-.43-22.24-.34-2.57.03-5.61.28-6.07,3.72,4.24-.48,8.46-.95,12.68-1.42-2.43,1.13-4.95,1.61-7.47,2.09-4.52.87-5.3,1.26-6.01,2.56,5.66-1.2,11.79-2.5,17.91-3.79l-.11-.47c-.54-.06-1.09-.12-1.63-.18ZM251.55,309.81c-11.71,9.93-23.48,19.8-29.33,34.7,7.2-13.76,17.5-24.88,29.33-34.7ZM249.16,332.22c-.34-.25-.68-.51-1.02-.76-7.43,9.5-14.85,18.99-22.28,28.49.22.17.44.34.66.51,7.54-9.41,15.09-18.83,22.63-28.24ZM431.42,443.48c.98-1.19,2.06-1.96,1.94-2.45-1.09-4.42-2.38-8.79-3.76-13.69-.94,1-1.82,1.56-1.74,1.91,1.05,4.52,2.23,9.01,3.56,14.23ZM208.18,492.43v40.61c1.7-12.69,1.56-26.64,0-40.61ZM229.01,430.58c-2.73,13.19-4.4,26.87-4.05,37.22,1.11-10.22,2.6-23.91,4.05-37.22ZM221.52,458.9c1.04-5.65,2.64-13.55,3.93-21.5.85-5.24,1.27-10.54,1.88-15.82-.3-.03-.6-.07-.91-.1.28,13.48-5.92,26.13-4.9,37.42ZM258.77,312.04c-7.53,5.61-15.75,10.5-19.95,18.42,6.27-5.79,13.11-12.11,19.95-18.42ZM223.46,352.45c-5.94,7.06-8.11,16.09-10.97,25.23,3.8-8.73,7.45-17.13,10.97-25.23ZM377.16,146.36c4.98-1.1,9.54-2.1,14.49-3.19-5.66-1.68-10.4-.65-14.49,3.19ZM220.12,353.16c4.31-6.87,9.21-14.68,13.93-22.2-6.08,6.7-11.3,14.33-13.93,22.2ZM204.03,520.53c.17-.02.34-.05.51-.07.38-3.24.9-6.48,1.09-9.73.19-3.23.04-6.48.04-9.72-.22,0-.44,0-.66-.01-.33,6.51-.65,13.02-.98,19.53ZM241.94,335.31c5.52-5.01,10.46-9.49,15.4-13.97-5.7,3.67-11.17,7.6-15.4,13.97ZM216.26,435.28h.18c.88-5.35,1.79-10.72,2.6-16.1.12-.79-.18-1.65-.29-2.47-.28.01-.56.03-.84.04-.55,6.18-1.1,12.35-1.65,18.53ZM441.83,121.42c.07-.32.13-.64.2-.96-6.18-1.76-12.36-3.53-18.54-5.29-.08.27-.15.55-.23.82,6.19,1.81,12.38,3.63,18.57,5.44ZM371.59,146.86c5.77-2.32,11.32-4.55,16.97-6.82-6.33.48-11.94,2.59-16.97,6.82ZM432.34,458.81c.24.17.48.33.73.5.41-.97,1.09-1.93,1.16-2.93.17-2.33.06-4.69.06-7.15-1.77.38-2.41,1.11-2.03,3.12.39,2.08.09,4.3.09,6.46ZM410.69,570.63c-2.41-.83-4.66-.79-6.22,1.55-1.42,2.13-1.06,3.91,1.02,5.83q.93-6.44,5.2-7.38ZM378.77,148.53c4.87-.65,10.02-1.33,14.96-1.98-5.24-1.71-10.34-.66-14.96,1.98ZM215.11,403.36c.23.04.46.09.69.13,1.76-6.56,3.51-13.12,5.27-19.68-.24-.06-.47-.13-.71-.19-1.75,6.58-3.5,13.16-5.25,19.74ZM224.72,418.86c-.22-.04-.45-.09-.67-.13-.88,6.85-1.77,13.69-2.65,20.54.23.03.46.06.69.09.88-6.83,1.75-13.66,2.63-20.5ZM309.07,567.47c-5.77-1.84-6.28-1.56-5.59,2.26.77.23,1.35.4,2.29.69.73-.65,1.86-1.66,3.3-2.94ZM227.68,361.66c-3.55,5.28-5.68,11.27-6.85,18.01,2.37-6.23,4.61-12.12,6.85-18.01ZM389.61,139.67c-4.02-3.71-10.04-2.67-14.23,2.43,4.36-3.03,8.88-5.13,14.23-2.43ZM193.14,537.1l.61.36,5.28-18.6c-.17-.05-.34-.09-.51-.14-1.79,6.13-3.59,12.26-5.38,18.38ZM191.62,534.28c.16.11.32.22.49.32,1-5.78,1.99-11.57,2.99-17.35-.26-.05-.52-.09-.78-.14-.9,5.72-1.8,11.44-2.7,17.17ZM378.73,580.8v.45h12.27c0-.15,0-.3,0-.45h-12.27ZM241.07,370.77c-.21-.12-.41-.24-.62-.36-2.33,4.93-4.66,9.85-6.98,14.78.25.12.5.23.74.35,2.29-4.92,4.57-9.84,6.86-14.76ZM215.74,439.39h-.22v20.66c.07,0,.14,0,.22,0v-20.66ZM405.95,156.46c0-.2-.01-.4-.02-.6-5.53.66-11.05,1.33-16.58,1.99.02.19.04.38.06.57,5.51-.65,11.02-1.3,16.54-1.96ZM412.28,117.25c.05-.22.1-.44.15-.65-4.91-.89-9.82-1.77-14.72-2.66-.04.25-.09.5-.13.75,4.9.86,9.8,1.71,14.7,2.57ZM228.77,388.08c.23.11.46.22.69.32,1.96-4.43,3.91-8.87,5.87-13.3-.23-.1-.45-.19-.68-.29-1.96,4.42-3.92,8.85-5.88,13.27ZM273.14,588.37c-.02.17-.03.34-.05.51h16.13v-.51h-16.08ZM439.4,415.29c-.25-.25-.49-.51-.74-.76-2.26,2.08-4.51,4.17-6.77,6.25.21.22.42.44.62.67,2.3-2.05,4.59-4.1,6.89-6.15ZM212.21,520.59c-.2-.03-.4-.06-.6-.09-.69,4.84-1.38,9.68-2.07,14.52.13.02.27.04.4.06.76-4.83,1.51-9.66,2.27-14.49ZM219.69,515.29c-.21.04-.42.08-.62.12.44,4.73.87,9.46,1.31,14.18.17-.02.33-.04.5-.06-.4-4.75-.79-9.5-1.19-14.25ZM211.24,517.66c.29-.02.57-.04.86-.06-.43-4.32-.86-8.63-1.29-12.95l-.26.02c.23,4.33.46,8.66.69,12.99ZM290.29,259.46c-.28-.18-.56-.36-.85-.54-1.44,3.91-2.89,7.83-4.33,11.74.18.07.37.15.55.22,1.54-3.81,3.08-7.61,4.63-11.42ZM228.81,421.76c3.34-2.65,2.96-6.72,4-10.2-1.32,3.36-2.64,6.72-4,10.2ZM206.93,417.08c-.16.01-.31.03-.47.04-.25,4.86-.49,9.72-.74,14.58.13,0,.26.01.38.02.28-4.88.55-9.76.83-14.64ZM427.24,421.14c-.5,0-1,0-1.5-.01,0,1.39-.02,2.79.08,4.18,0,.07,1.14.05,1.75.07-.11-1.41-.22-2.82-.33-4.23ZM198.26,538.48c.17.04.34.08.51.12,1.05-4.32,2.1-8.63,3.15-12.95-.22-.05-.44-.1-.66-.15-1,4.33-2,8.66-3,12.98ZM397.96,152.69c0-.13,0-.26,0-.39h-12.75c0,.13,0,.26.01.39h12.74ZM197.72,531.77c-.18-.14-.35-.27-.53-.41l-3.65,11.13c.22.07.43.14.65.2,1.18-3.64,2.35-7.28,3.53-10.93ZM217.88,466.27c.08-.04.15-.09.23-.13v-13.82c-.08,0-.15.01-.23.02v13.93ZM394.16,149.98c-.02-.17-.03-.34-.05-.5-3.66.32-7.31.64-10.97.96.02.26.05.52.07.78,3.65-.41,7.3-.82,10.95-1.24ZM228.88,403.17c.15.04.29.08.44.12,1.03-3.33,2.07-6.66,3.1-9.99-.21-.06-.43-.12-.64-.18-.97,3.35-1.94,6.7-2.91,10.05ZM231.63,361.92c-.22-.1-.43-.21-.65-.31-1.3,2.7-2.6,5.4-3.9,8.09.2.1.41.2.61.3,1.31-2.69,2.63-5.38,3.94-8.08ZM216.9,515.49c-.25.01-.51.02-.76.03.15,2.37.3,4.74.45,7.11.28-.02.57-.05.85-.07-.18-2.36-.36-4.71-.54-7.07ZM425.8,573.14c-.15.33-.3.65-.45.98,1.73.82,3.47,1.64,5.2,2.45.16-.35.33-.7.49-1.05-1.74-.79-3.49-1.59-5.23-2.38ZM388.99,558.87c-.22-.27-.44-.54-.66-.81-1.08.88-2.16,1.76-3.24,2.64.23.28.46.56.69.84,1.07-.89,2.14-1.77,3.22-2.66Z"/>
  <path d="M385.39,214.6c.57-.65,1.14-1.29,1.7-1.94,1.73-.3,3.45-.59,5.38-.92-2.78,4.62-7.09,7.35-11.79,9.62-7.72,3.72-15.5,7.35-23.16,11.18-1.07.54-1.48,2.28-2.51,3.07-1.51,1.17-3.34,1.92-4.94,2.99-.99.66-2.71.97-1.87,2.98.14.33-.73,1.24-1.3,1.66-1.46,1.08-3.02,2.04-4.54,3.05.3.15.6.31.91.46-1.5,3.76-3,7.51-4.54,11.37-.21-.11.22.08.62.32,3.22,1.93,3.39,2.97,1.02,5.85-1.11,1.35-2.18,2.74-3.66,4.61h3.27c-.51,1.22-.89,2.18-1.3,3.11-.42.95-.88,1.88-1.41,3.02.94.24,1.64.41,3.03.77-1.9,2.83-3.61,5.38-5.66,8.44,1.71-.41,2.84-.67,4.36-1.04.72,5.59-4.06,7.12-6.71,10.03.31.37.95.87.87,1.1-.85,2.37-1.86,4.67-2.72,7.04-.39,1.06-.4,2.27-.82,3.31-1.31,3.26-2.71,6.48-4.15,9.68-.38.83-1.06,1.52-1.98,2.79,1.83-.61,3.05-1.01,5.09-1.69-2.78,7.39-6.38,13.06-13.94,15.64,2.58,1.91,2.21,3.65.52,5.1-1.89,1.63-3.92,3.13-6.05,4.43-1.78,1.09-2.55,2.35-2.38,4.47.47,5.93.62,11.9,1.16,17.82,2.48,27.11,1.45,54.02-4.85,80.57-4.82,20.3-13.22,38.87-27.68,54.27-4.47,4.76-9.55,8.76-16.13,10.26-5.52,1.26-9.52-1.46-9.28-7.11.24-5.73,1.31-11.48,2.51-17.11,3.59-16.76,5.65-33.69,5.29-50.83-.18-8.35-1.23-16.68-1.68-25.03-.32-5.91-.28-11.84-.4-17.76,0,0-.09.07-.09.07.8-.15,1.6-.29,2.65-.48-.33.9-.58,1.49-.77,2.11-.69,2.33.11,4.42,1.77,4.7-.44.42-1.24.84-1.25,1.27-.07,4.01-.02,8.02.08,12.03,0,.13.91.24,1.39.37-1.55,1.12-1.74,2.38-.45,3.81.48.89-1.37,2.83,1.24,2.76-1.06,1.27-1.13,6.95-.04,7.96.19.18.72,0,1.1-.03-.59,1.74-1.17,3.48-1.79,5.29,4,0,4.57-1.67,2.29-5.83v-7.68c-.2.05-.92.21-1.63.37.82-.95,1.63-1.89,2.45-2.84-.17-.18-.34-.37-.5-.55-1.07.22-2.14.43-3.21.65q2.82-1.95,2.69-4.16c-.73.1-1.47.2-2.2.3,1.8-1.3,3.31-2.71,2.12-5.25-.77-1.66.97-3.97-1.02-5.33.26-.64.59-1.46.93-2.29l-2.26-.81c1.76-.44,1.79-1.83,1.61-3.18-.83-6.05-1.63-12.11-2.66-18.13-.18-1.07-.26-3.13-2.52-2.53,0,0,.06.08.06.08.48-.85,1.4-1.73,1.35-2.56-.11-1.77-.97-3.5-1.06-5.26-.3-6.01-.93-12.06-.46-18.02,1.2-15.16,9.07-26.76,20.54-36.25,3.27-2.7,6.45-5.55,9.42-8.57,8.13-8.26,13.87-18.26,19.87-28.06.45-.73.95-1.44,1.43-2.16.23.09.46.18.68.27-.09,1.71-.01,3.46-.32,5.13-.67,3.7-1.43,7.4-2.33,11.05-4.82,19.36-6.93,38.95-5.15,58.88.44,4.99.95,9.99,1.09,15,.18,6.35-.05,12.71,0,19.06.09,15.15.73,30.32-1.62,45.4-3.79,24.34-9.27,48.05-26.41,67.03-3.55,3.93-8.11,7.05-12.53,10.06-2.63,1.78-4.21.75-4.99-2.32-.33-1.29-.53-2.6-.91-4.49-.89.87-1.94,1.45-1.95,2.04-.01.76.81,1.54,1.33,2.4-.13.09-1.01.39-1.01.71-.01.84.1,1.99.64,2.45.87.76,2.26,1.66,3.21,1.46,2.97-.63,6.07-1.33,8.69-2.78,6.64-3.68,11.48-9.4,15.82-15.48,14.68-20.54,21.24-44.02,23.89-68.69,2.74-25.55,1.02-51.12-.84-76.66-1.8-24.75,1.42-48.57,13.03-70.84.66-1.27,1.53-2.44,2.3-3.66l1.34.22c.3,2.37,1.33,4.94.75,7.07-1.24,4.5-2.83,9.05-5.17,13.05-3.63,6.2-6.88,12.44-8.43,20.17,3.52-6.02,6.71-11.47,9.89-16.92,3.73-6.4,6.59-13.11,7.02-20.63.14-2.36-.52-4.99.31-7.04,1.91-4.75,6.19-7.98,8.38-12.89,1.85-4.15,6.43-7.09,9.79-10.56.67-.69,1.32-1.4,2.46-2.6-1.55-.52-2.77-.93-3.35-1.13,3.16-1.92,6.64-4.27,10.33-6.23,6.05-3.2,12.18-6.25,18.37-9.14,4.8-2.25,10.05-3.54,14.36-6.8ZM287.59,351.06c.11.12.23.24.34.36-3.73,3.36-7.46,6.73-11.18,10.09.11.11.23.22.34.33,3.5-3.59,7-7.19,10.5-10.78ZM281.39,378.6c.14.16.28.31.42.47,3-2.64,6.01-5.28,9.01-7.92-.23-.25-.45-.5-.68-.75-2.92,2.73-5.83,5.47-8.75,8.2ZM260,435.93c.98-.36,1.97-.72,2.83-1.04v-3.96c-4.61-.65-.91,3.77-2.83,4.99ZM259.32,451.5c1.89.12,1.87.12,2.29-1.41.28-1,.64-1.98,1.03-3.19-3.92-.16-2.24,3.04-3.33,4.59ZM260.27,442.22q1.83-.36,2.38-4.16c-1.08.4-1.98.74-2.84,1.06.17,1.15.3,2.02.46,3.11ZM263.3,442.05c-1.72.73-2.7,1.15-3.71,1.58.23,1.08.42,1.98.6,2.85q1.22-.03,3.1-4.44ZM278.31,368c.16.16.31.32.47.48,2.74-2.14,5.49-4.29,8.23-6.43-.31-.31-.62-.62-.94-.93-2.59,2.29-5.18,4.59-7.77,6.88ZM257.31,465.97c.43.31.87.62,1.3.93.78-1.25,1.56-2.51,2.34-3.76-.41-.27-.82-.53-1.24-.8-.8,1.21-1.6,2.42-2.4,3.63Z"/>
  <path d="M429.67,137.48c-1.81,1.46-3.63,3.03-5.54,4.46-7.53,5.63-14.51,3.52-18.86-4.53-.33-.6-.14-2.16.28-2.38,3.51-1.82,7-3.85,10.75-4.99,4.5-1.37,8.17.63,10.87,4.43.75,1.06,1.66,2,2.51,3.01ZM422.75,133.65c-2.47-3.76-7-4.15-10.7-.92q6.19-.91,10.7.92Z"/>
  <path d="M272.17,577.83h-118.4c0-.11,0-.22,0-.32h118.39v.32Z"/>
  <path d="M506.98,551.09c32.97-1.39,65.93-2.78,98.9-4.17,0,.23.02.45.03.68-32.97,1.4-65.94,2.8-98.91,4.2,0-.23,0-.47-.01-.7Z"/>
  <path d="M267.64,576.43h-107.36c0-.15,0-.3,0-.45h107.36c0,.15,0,.3,0,.45Z"/>
  <path d="M181.49,583.1h95.6c0,.12,0,.25,0,.37h-95.6c0-.12,0-.25,0-.37Z"/>
  <path d="M414.16,599.03h89.75c0,.06,0,.12,0,.19h-89.71c-.01-.06-.03-.12-.04-.19Z"/>
  <path d="M501.04,590.15c26.79-.43,53.59-.86,80.38-1.29,0,.08,0,.17,0,.25-26.79.5-53.59,1.01-80.38,1.51,0-.16,0-.31,0-.47Z"/>
  <path d="M527.62,583.66c-20.84.44-41.68.87-62.52,1.31,0-.19,0-.39-.01-.58,20.88-.44,41.75-.88,62.63-1.32-.03.2-.07.4-.1.59Z"/>
  <path d="M153.84,586.85h71.94c0,.14,0,.29,0,.43h-71.94v-.43Z"/>
  <path d="M441.98,594.68h48.01c0-.05,0-.1,0-.16-16,.29-32,.59-48,.88,0-.24-.01-.49-.02-.73Z"/>
  <path d="M495.42,561.84h50.28c0,.13,0,.26,0,.39h-50.37c.03-.13.06-.26.09-.39Z"/>
  <path d="M516.6,570.07h48.22c0,.06,0,.12,0,.18h-48.22c0-.06,0-.12,0-.18Z"/>
  <path d="M255.43,592.02c-12.98.29-25.96.58-38.94.88,0-.17,0-.34-.01-.5,13.01-.36,26.02-.71,39.03-1.07-.02.23-.05.46-.07.7Z"/>
  <path d="M259.58,564.49c-1.2-5.2-2.4-10.39-3.61-15.59.16-.04.32-.08.48-.12.63,1.94,1.26,3.89,1.9,5.88.7-.35,1.12-.56,2.18-1.09v10.83l-.95.1Z"/>
  <path d="M315.88,540.27c-1.92.94-3.83,1.92-5.77,2.82-1.25.58-2.56,1.07-3.84,1.6-.16-.29-.32-.58-.48-.86,1.01-.52,2.02-1.05,3.03-1.57,5.42-3.3,10.84-6.59,16.26-9.89.12.14.23.28.35.42-2,1.38-4.09,2.67-5.97,4.2-.81.66-1.2,1.83-1.78,2.77-.6.17-1.2.35-1.79.52Z"/>
  <path d="M431.01,591.48h36.96c0,.07,0,.14,0,.21h-36.96c0-.07,0-.14,0-.21Z"/>
  <path d="M372.51,522.14c-1.43.08-2.85.16-4.26.24.11-.26.27-.66.44-1.07,1.53-1.01,3.06-2.03,4.59-3.04,1.34-.79,2.73-1.5,4-2.38,1.14-.8,2.15-1.78,3.21-2.69-.19.51-.37,1.02-.56,1.53-.87,1.18-1.73,2.37-2.6,3.55,0,0,0,0,0,0-1.61,1.28-3.21,2.56-4.82,3.84Z"/>
  <path d="M195.05,571.72h32.39c0,.07,0,.15,0,.22h-32.37l-.02-.22Z"/>
  <path d="M208.42,588.05h30.25c0,.06,0,.12,0,.17h-30.25v-.17Z"/>
  <path d="M121.37,577.57h29.14v.22h-29.14v-.22Z"/>
  <path d="M452.48,589.17h27.73s0,.1,0,.15h-27.74s0-.1,0-.15Z"/>
  <path d="M509.77,579.95h26.04s0,.08,0,.12h-26.04s0-.08,0-.12Z"/>
  <path d="M479.64,577.78h-25.12s0-.09,0-.13h25.12s0,.09,0,.13Z"/>
  <path d="M262.93,590.72h21.79c0,.06,0,.13,0,.19h-21.82c0-.06.02-.13.03-.19Z"/>
  <path d="M365.18,513.68c3.48-3.88,6.96-7.76,10.44-11.64.29.28.58.57.88.85-3.79,3.58-7.57,7.16-11.36,10.74,0,0,.04.05.04.05Z"/>
  <path d="M356.03,521.25c3.05-2.52,6.1-5.04,9.15-7.57,0,0-.04-.05-.04-.05-.52.64-.99,1.34-1.58,1.91-2.21,2.17-4.45,4.31-6.69,6.45-.04.04-.19.03-.25-.02-.07-.05-.1-.16-.14-.25-.15-.16-.3-.33-.45-.49Z"/>
  <path d="M559.56,579.56h-17.82s0-.05,0-.07h17.72s.07.05.1.07Z"/>
  <path d="M433.86,595.74h-16.68s0-.06,0-.09h16.68s0,.06,0,.09Z"/>
  <path d="M513.92,586.32h16.09s0,.1,0,.14h-16.17s.06-.1.08-.14Z"/>
  <path d="M314.85,532.81c-.15.8-.06,1.69-.39,1.9-2.77,1.76-5.62,3.4-8.63,4.79,2.88-2.13,5.76-4.27,9.02-6.69Z"/>
  <path d="M236.44,423.02c.94-1.96,1.89-3.92,2.83-5.87.31-.29.63-.58,1.45-1.34-.6,3.45-1.46,5.91-4.28,7.21Z"/>
  <path d="M318.62,527.88c2.62-2.89,5.23-5.78,7.85-8.68.16.14.32.27.47.41-2.6,2.87-5.19,5.75-7.79,8.62-.18-.12-.36-.24-.54-.36Z"/>
  <path d="M248.02,574.16h14.35s0,.08,0,.12h-14.35s0-.08,0-.12Z"/>
  <path d="M402.53,599.77h-13.85s0-.07,0-.11h13.74s.08.07.12.11Z"/>
  <path d="M335.04,520.69c2.45-2.58,4.91-5.16,7.36-7.75.13.12.26.24.39.36-2.42,2.62-4.84,5.23-7.26,7.85l-.5-.46Z"/>
  <path d="M403,459.75c-1.59,3.42-3.18,6.84-4.76,10.26-.18-.08-.37-.16-.55-.25,1.55-3.44,3.1-6.87,4.65-10.31.22.1.44.2.66.3Z"/>
  <path d="M470.47,579.45h13.15s0,.09,0,.14h-13.14v-.14Z"/>
  <path d="M450.82,278.11v12.88c-.07,0-.14,0-.21,0v-12.87c.07,0,.14-.01.21-.02Z"/>
  <path d="M353.03,593.76h-9.59c0-.18.02-.37.03-.55,3.51.2,7.01.41,9.57.55Z"/>
  <path d="M232.8,571.3h11.52v.1h-11.52s0-.07,0-.1Z"/>
  <path d="M377.33,518.29c.87-1.18,1.73-2.37,2.6-3.55.27.16.54.31.82.47-.9,1.05-1.8,2.09-2.7,3.14-.24-.02-.48-.04-.72-.05Z"/>
  <path d="M306.67,534.54c.62-.39,1.24-.78,1.85-1.17.13.16.26.32.4.48-1.19.81-2.38,1.63-3.56,2.44.44-.59.88-1.17,1.32-1.76Z"/>
  <path d="M349.15,526.15c-.57.64-1.14,1.29-1.7,1.93-.16-.18-.32-.35-.48-.53.74-.46,1.49-.91,2.23-1.37l-.05-.03Z"/>
  <path d="M349.2,526.19c.87-.5,1.75-1,2.62-1.5,0,0-.05-.06-.05-.06-.86.51-1.73,1.03-2.6,1.53-.01,0,.04.02.04.02Z"/>
  <path d="M356.03,521.25c.15.16.3.33.45.49-.68.49-1.35.98-2.04,1.46-.01-.01.04.04.04.04.52-.67,1.04-1.33,1.56-2Z"/>
  <path d="M318.76,540.37c.13-.41.25-.83.38-1.24.26.37.52.74.79,1.11-.39.04-.78.09-1.17.13Z"/>
  <path d="M305.18,535.08l-1.06,1.1c-.34.03-.68.07-1.02.1.69-.4,1.39-.8,2.08-1.2Z"/>
  <path d="M352.84,523.99c-.36.21-.71.42-1.07.63,0,0,.05.06.05.06.36-.2.73-.41,1.1-.61,0,0-.08-.08-.08-.08Z"/>
  <path d="M352.92,524.07l.87-.33-.07-.08c-.29.11-.58.22-.87.33,0,0,.08.08.08.08Z"/>
  <path d="M353.78,523.75c.22-.17.45-.35.68-.51,0,0-.04-.05-.03-.03-.24.16-.49.31-.73.46,0,0,.07.08.07.08Z"/>
  <path d="M379.03,518.32c.22-.22.45-.43.67-.65-.22.22-.45.43-.67.65Z"/>
  <path d="M379.61,517.77c.22-.22.44-.45.67-.67-.22.22-.44.45-.67.67Z"/>
  <path d="M380.2,517.19c.22-.27.44-.54.66-.81-.22.27-.44.54-.66.81Z"/>
  <path d="M259.65,294.35c-2.48,1.81-4.95,3.63-7.43,5.44-4.19,1.56-8.19,3.4-11.24,6.87-2.02,2.29-4.17,4.47-6.26,6.7-.22-.06-.43-.12-.65-.18,1.7-4.24,5.05-7.1,8.36-9.97,1.09-.92,2.11-1.95,3.29-2.76,4.91-3.33,9.86-6.59,14.8-9.88,4.27-2.93,8.55-5.85,12.79-8.81.24-.17.23-.69.33-1.05l1.15-1.65c.38.04.77.08,1.15.12,1.49,3.11-1.42,3.78-2.9,5.25-4.02,2.75-8.06,5.49-12.05,8.28-.56.39-.89,1.09-1.33,1.65Z"/>
  <path d="M281.46,260.54c1.5-1.93,2.89-3.95,4.53-5.75,2.89-3.17,5.94-6.2,9.15-9.02-2.24,3.21-4.61,6.35-6.69,9.66-1.56,2.49-2.83,5.17-4.06,7.85-.24.53.29,1.41.46,2.14-1.55,2.6-3.08,5.19-4.62,7.77.53-2.21,1.07-4.42,1.68-6.94-1.72,2.49-3.27,4.73-4.82,6.98-.39-.1-.78-.2-1.18-.3.13-.33.25-.66.38-1l2.27-6.91c.97-1.49,1.93-2.98,2.9-4.47Z"/>
  <path d="M377.17,576.42c-1.26-2.32-2.53-4.64-4.05-7.43,1.41-.15,2.55-.27,3.79-.4.43-1.04.9-2.16,1.36-3.27-1.49,3.89-.71,7.06,2.41,9.85.43.38-.1,1.83-.21,2.78-1.12-.51-2.21-1.02-3.31-1.53Z"/>
  <path d="M226.24,326.12c.63.12,1.26.24,1.89.36-1.14,2.47-2.28,4.93-3.42,7.4-.98,1.78-1.97,3.57-2.95,5.35.15-1.16.17-2.36.48-3.47.62-2.26,1.4-4.48,2.11-6.72.63-.97,1.27-1.94,1.9-2.91Z"/>
  <path d="M304.37,585.38c2.54-1.37,3.78.99,5.45,2,.15.09-.26,1.13-.43,1.73-.34.07-.66.14-.98.21-1.39-.95-2.78-1.91-4.17-2.86.04-.36.08-.72.11-1.08Z"/>
  <path d="M445.28,424.99c.81-1.2,1.62-2.39,2.43-3.59.9-1.09,1.79-2.17,2.69-3.26.58-.47,1.16-.94,1.74-1.4l.55.58c-1.76,2.02-3.53,4.03-5.29,6.05l-2.12,1.62Z"/>
  <path d="M432.82,415.43c2.57-2.53,5.15-5.05,7.72-7.58-1.26,1.62-2.38,3.37-3.81,4.82-1.7,1.72-3.65,3.19-5.5,4.76.53-.67,1.06-1.34,1.59-2Z"/>
  <path d="M441.12,404.38c-2.17,2.75-4.34,5.51-6.55,8.24-.11.13-.65-.1-.99-.16.31-.36.63-.72.94-1.08,2.2-2.33,4.4-4.66,6.6-7Z"/>
  <path d="M333.27,152.12c.8-.81,1.61-1.62,2.41-2.42.34.11.68.22,1.02.33.06.12.09.25.09.38-.25.14-.49.28-.74.41,0,0,.11-.09.11-.09-.21.23-.42.47-.63.7,0,0,.06-.07.06-.07-.2.22-.4.43-.59.65,0,0,.01-.01.01-.01-.96.78-1.92,1.56-2.89,2.34.38-.74.76-1.48,1.14-2.23Z"/>
  <path d="M350.05,126.62c-.39-.02-.78-.04-1.17-.07.61-.39,1.22-.79,1.83-1.18.41-.15.82-.29,1.23-.44l.19.32c-.69.46-1.39.91-2.08,1.37Z"/>
  <path d="M296.84,260.58l1.08-2.25c-.26.87-.53,1.74-.79,2.61-.1-.11-.2-.23-.28-.36Z"/>
  <path d="M300.28,262.19c.37-.24.75-.47,1.12-.71-.37.24-.75.47-1.12.71Z"/>
  <path d="M434.25,408.79c.16-.2.31-.4.47-.59-.16.2-.31.4-.47.59Z"/>
  <path d="M433.18,407.41s.06,0,.09,0c0,0-.09,0-.09,0Z"/>
  <path d="M384.88,213.85c-.13-.05-.26-.1-.39-.14l.42-.18c-.01.11-.02.21-.03.32Z"/>
  <path d="M384.96,213.48c.03-.19.06-.37.09-.56-.03.19-.06.37-.09.56Z"/>
  <path d="M434.73,408.19c.21-.27.41-.54.62-.82-.08.27-.17.54-.25.82-.12,0-.24,0-.36,0Z"/>
  <path d="M301.35,261.55c.22-.16.44-.31.67-.47-.22.16-.44.31-.67.47Z"/>
  <path d="M433.08,410c-.12.18-.23.36-.35.54-.1-.22-.19-.45-.29-.67,0,0-.08.08-.08.08.22,0,.43,0,.65,0l.07.05Z"/>
  <path d="M302.47,260.4c-.03.2-.05.39-.08.59-.1,0-.21.02-.31.03.15-.18.31-.37.46-.55l-.07-.07Z"/>
  <path d="M432.98,409.39c.2.07.4.14.6.2-.17.14-.34.27-.5.41,0,0-.07-.05-.07-.05,0-.22,0-.43.01-.65l-.04.08Z"/>
  <path d="M433.81,409.37c.12-.13.23-.27.35-.4-.13.13-.24.26-.35.4Z"/>
  <path d="M271.25,266.81c.77-1.26,1.57-2.5,2.3-3.77.71-1.24,1.37-2.51,2.05-3.77,1.07-2.22,2.14-4.44,3.21-6.66l.17-.16.24.02s-.06,0-.06,0c.59-1.43,1.17-2.86,1.76-4.29,0,0-.14.1-.14.1l1.5-2.21c1.73-1.89,3.46-3.77,5.18-5.66.83-.45,1.77-.77,2.47-1.38,4.84-4.17,9.63-8.4,14.44-12.61.3.36.6.72.9,1.08-1.11.89-2.2,1.79-3.33,2.65-1.34,1.01-2.71,1.98-4.07,2.97-3.18,3.11-6.35,6.23-9.53,9.34-2.76,3.89-5.55,7.75-8.24,11.68-.46.68-.46,1.67-.67,2.52-1.55,2.26-3.1,4.52-4.65,6.79-1.17,1.12-2.35,2.24-3.52,3.36Z"/>
  <path d="M335.09,152.45c-.55,1.06-1,2.18-1.66,3.16-1.62,2.45-3.33,4.85-4.48,7.71.53-.47,1.07-.94,1.77-1.55-.08.43-.06.64-.15.76-3.73,4.92-4.24,11.02-6.11,16.62-.16.48-.54.89-.82,1.34,0,0,0,0,0,0,.69-3.06,1.38-6.12,2.06-9.17-.24-.06-.47-.12-.71-.18-.79,3.23-1.58,6.45-2.37,9.68-.28-.08-.56-.16-.83-.24,1.59-5.44,3.18-10.87,4.76-16.31,1.47-2.85,2.93-5.7,4.4-8.54.32-.26.64-.52.96-.78,1.06-.84,2.12-1.67,3.18-2.51Z"/>
  <path d="M279.42,256.67c.21-.85.21-1.84.67-2.52,2.69-3.94,5.48-7.8,8.24-11.68,2.65-2.3,5.3-4.59,7.95-6.89-4.78,6.12-10.6,11.44-14.16,18.49-.9.87-1.8,1.74-2.7,2.61Z"/>
  <path d="M330.95,155.74c-1.47,2.85-2.93,5.7-4.4,8.54-1.16,2.29-2.33,4.57-3.51,6.9.26-1.94.52-3.88.78-5.83.14-.21.28-.42.43-.64,1.15-2.05,2.17-4.2,3.51-6.12.8-1.14,2.11-1.91,3.19-2.85Z"/>
  <path d="M281.46,260.54c-.97,1.49-1.93,2.98-2.9,4.47-.92.72-1.79,1.51-2.78,2.12-.85.52-1.84.83-2.77,1.23.17-.23.34-.46.51-.69,1.91-2.31,3.85-4.59,5.73-6.93,1.25-1.55,2.4-3.18,4.04-5.36-.78,2.2-1.3,3.68-1.83,5.16Z"/>
  <path d="M323.63,180.5c.14.56.48,1.15.38,1.67-1.04,5.41-2.14,10.8-3.23,16.2-.24-.05-.48-.1-.71-.14l1.63-6.76c-.19-.06-.39-.12-.58-.18-.48,1.18-.96,2.37-1.72,4.23,1.54-5.47,2.89-10.23,4.23-15,0,0,0,0,0,0Z"/>
  <path d="M320.82,179.54c-.89,5.22-1.78,10.45-2.67,15.67-.18-.03-.35-.06-.53-.09.8-5.22,1.6-10.43,2.4-15.65.27.02.54.04.81.06Z"/>
  <path d="M304.64,218.07c-4.95,3.01-9.9,6.03-14.85,9.04.06-.28.02-.71.19-.81,4.88-2.77,9.77-5.5,14.66-8.24Z"/>
  <path d="M279.42,256.67c.9-.87,1.8-1.74,2.7-2.61-.3.83-.45,1.76-.92,2.47-1.28,1.91-2.62,3.79-4.1,5.55-.55.66-1.55.94-2.34,1.38,1.55-2.27,3.1-4.53,4.65-6.79Z"/>
  <path d="M295.59,225.37c2.33-1.58,4.65-3.19,7.01-4.74,1.52-1,3.09-1.91,4.63-2.87-.5.69-.85,1.65-1.52,2.04-3.33,1.94-6.74,3.73-10.12,5.57Z"/>
  <path d="M313.38,251.66c-2.5,2.21-5,4.43-7.49,6.64-.19-.22-.38-.44-.57-.65,2.52-2.19,5.03-4.39,7.55-6.58.17.2.35.39.52.59Z"/>
  <path d="M316.47,187.45c1-3.81,2.01-7.62,3.01-11.43.2.05.41.11.61.16-.97,3.84-1.95,7.68-2.92,11.51l-.71-.25Z"/>
  <path d="M316.56,238.47c-2.48,1.72-4.96,3.43-7.44,5.15-.14-.2-.28-.4-.41-.6,2.49-1.71,4.97-3.41,7.46-5.12l.39.57Z"/>
  <path d="M285.22,238.91c-1.57,2.15-3.14,4.3-4.72,6.44,0,0,.08-.07.08-.07l-.63.64s-.08.07-.08.07c-.39.01-.79.02-1.18.04.02-.11.05-.22.06-.33,1.66-2.08,3.31-4.16,4.97-6.24.5-.18,1-.37,1.5-.55Z"/>
  <path d="M289,235.48c-1.28,1.17-2.57,2.34-3.85,3.52,1.28-1.17,2.57-2.34,3.85-3.52Z"/>
  <path d="M296.22,254.08c1.17-1,2.34-2,3.5-3.01-.41.79-.82,1.57-1.24,2.36-.56.69-1.13,1.39-1.69,2.08-.19-.48-.38-.95-.57-1.43Z"/>
  <path d="M300.26,250.59c-.41-.14-.82-.28-1.22-.42.86-.69,1.71-1.38,2.57-2.08.18.16.35.32.53.48-.62.67-1.25,1.34-1.87,2.01Z"/>
  <path d="M280.55,239.71c.38-.45.77-.9,1.15-1.35.27-.08.54-.15.86-.25-.12.51-.23.98-.34,1.46,0,0,.11-.09.11-.09-.23.23-.46.45-.68.68,0,0,.09-.09.09-.09-.39.05-.77.11-1.16.16-.01-.17-.03-.35-.04-.52Z"/>
  <path d="M273.52,267.67c-.17.23-.34.46-.51.69-.38.33-.77.65-1.15.98-.02-.54-.04-1.07-.06-1.61.21-.12.43-.25.64-.37l1.07.31Z"/>
  <path d="M283.78,239.52c-.7.57-1.4,1.15-2.09,1.72,0,0,.06.07.06.07,0-.41,0-.82,0-1.24,0,0-.09.09-.09.09.23-.23.46-.45.68-.68,0,0-.11.09-.11.09.52-.02,1.04-.04,1.56-.05Z"/>
  <path d="M303.27,259.83c.11-.4.23-.8.34-1.2.13.07.26.13.39.2-.27.31-.54.62-.81.92,0,0,.08.08.08.08Z"/>
  <path d="M299.62,251.18c.23-.23.46-.45.68-.68-.23.23-.46.45-.68.68Z"/>
  <path d="M302.54,260.47c.24-.21.48-.43.72-.64,0,0-.08-.08-.08-.08-.24.21-.48.43-.72.64,0,0,.07.07.07.07Z"/>
  <path d="M450.4,418.15c-.9,1.09-1.79,2.17-2.69,3.26-1.83,1.21-3.67,2.42-5.5,3.63,2.73-2.3,5.46-4.59,8.19-6.89Z"/>
  <path d="M364.46,117.28l-5.4.45c10.11-3.55,20.52-1.86,30.83-1.65-5.69,0-11.38-.13-17.06.06-2.83.09-5.64.78-8.46,1.2,0,0,.09-.06.09-.06Z"/>
  <path d="M402.11,109.72c4.81.75,9.61,1.5,14.42,2.25-.04.24-.08.47-.11.71-4.83-.78-9.66-1.57-14.49-2.35.06-.2.12-.41.18-.61Z"/>
  <path d="M432.29,112.09c-1.87-.1-3.78-.02-5.61-.35-2.88-.52-5.72-1.33-8.42-2.64,4.63,1.03,9.26,2.06,13.89,3.08,0,0,.15-.09.15-.09Z"/>
  <path d="M432.29,112.09s-.15.09-.15.09c1.16-.04,2.33-.09,3.49-.13-.49,0-.98,0-1.89,0,2.92,1.7,5.46,3.18,8,4.66-3.15-1.54-6.3-3.08-9.45-4.62Z"/>
  <path d="M426.21,113.46c-3.43-.88-6.86-1.77-10.3-2.65.05-.21.11-.42.16-.63,3.43.93,6.85,1.86,10.28,2.79-.05.16-.1.33-.14.49Z"/>
  <path d="M345.52,128.81c-1.18.89-2.36,1.79-3.53,2.68.69-.92,1.39-1.83,2.08-2.75-.03.04-.06.09-.09.13,0-.04,0-.09,0-.13.51.02,1.03.04,1.54.06Z"/>
  <path d="M347.25,127.63c-.61.42-1.23.84-1.84,1.25.61-.42,1.23-.84,1.84-1.25Z"/>
  <path d="M348.99,126.48c-.62.41-1.23.83-1.85,1.24.62-.41,1.23-.83,1.85-1.24Z"/>
  <path d="M275.83,559.1c3.39-1.11,6.77-2.23,10.16-3.34.08.23.16.47.24.7-3.35,1.29-6.71,2.57-10.06,3.86-.11-.4-.23-.81-.34-1.21Z"/>
  <path d="M370,546.93c-5.02-.46-10.03-.93-15.05-1.39.02-.27.04-.54.07-.81,4.99.37,9.98.74,14.98,1.11,0,.36,0,.73,0,1.09Z"/>
  <path d="M299.95,585.19c.16.42.31.85.49,1.34-5.5-.99-5.46-1.85-6.16-6.74.62,1.3,1.24,2.6,1.77,3.71,1.11-.79,2.2-1.56,3.53-2.5.15,1.66.27,2.95.4,4.25.01.01-.05-.06-.05-.06Z"/>
  <path d="M304.37,585.38c-.04.36-.08.72-.11,1.08-.93,2.14-1.91-.12-2.89-.03-.42.04-.93-.78-1.4-1.22,0,0,.05.06.04.05.33-1.25.67-2.48,1.01-3.75,1.13,1.3,2.24,2.59,3.36,3.87Z"/>
  <path d="M294.82,585.31c-2.25-.34-3.84-3.5-3.64-7.57,1.36,2.83,2.47,5.14,3.64,7.57Z"/>
  <path d="M288.65,580.87v-2.52c.12-.1.25-.2.37-.3.14.41.28.82.52,1.55.24-.93.35-1.37.41-1.58.52,2.08,1.08,4.36,1.8,7.23-1.24-1.74-2.21-3.1-3.18-4.47,0,0,.08.09.08.09Z"/>
  <path d="M248.85,296.92c5.59-4.16,11.13-8.39,16.79-12.46,1.83-1.32,3.95-2.23,5.93-3.32-1.18.92-2.39,1.79-3.52,2.77-2.54,2.19-5.03,4.43-7.54,6.65-4.94,3.29-9.89,6.55-14.8,9.88-1.18.8-2.2,1.83-3.29,2.76.85-1.31,1.69-2.62,2.53-3.93,1.3-.78,2.6-1.57,3.89-2.35Z"/>
  <path d="M269.06,276.1c.14-.4.15-.99.44-1.18,1.93-1.29,3.91-2.51,5.92-3.68.12-.07.57.44.87.69-.13.33-.25.66-.38,1-1.47,1.44-2.94,2.88-4.41,4.32,0,0,.1-.05.1-.05-.51-.1-1.01-.2-1.52-.3-.34-.26-.68-.53-1.02-.79Z"/>
  <path d="M278.8,252.62c-1.07,2.22-2.14,4.44-3.21,6.66-.62.56-1.24,1.12-2.11,1.91-.09-.57-.15-.95-.2-1.34,1.25-1.85,2.51-3.7,3.76-5.54.44-.8.88-1.61,1.32-2.41.15.24.29.49.44.73Z"/>
  <path d="M277.04,254.3c-1.25,1.85-2.51,3.7-3.76,5.54-1.55,1.35-3.1,2.71-4.65,4.06,2.25-3.09,4.47-6.2,6.79-9.24.26-.34,1.07-.26,1.63-.37Z"/>
  <path d="M270.72,267.24c-2.63,1.79-5.26,3.57-7.89,5.36,2.63-1.79,5.26-3.57,7.89-5.36Z"/>
  <path d="M271.9,269.49c-1.1,1.41-2.2,2.81-3.3,4.22,0,0,.03-.11.03-.11-3.19-.5-4.4,2.53-6.63,3.73-1.83,1.05-3.68,2.08-5.5,3.17-.64.38-1.19.91-1.79,1.37.39-.73.59-1.72,1.19-2.16,4.47-3.26,9-6.44,13.57-9.56.65-.45,1.6-.45,2.42-.66Z"/>
  <path d="M248.78,293.59c-.69.35-1.38.7-2.07,1.05.22-.7.23-1.67.7-2.07,3.43-2.88,6.96-5.64,10.46-8.44.21.33.42.67.63,1-2.95,2.59-5.9,5.17-8.85,7.76-.3.23-.59.47-.89.7Z"/>
  <path d="M258.52,285.13c-.21-.33-.42-.67-.63-1,2.09-1.46,4.2-2.9,6.26-4.4.78-.57,1.46-1.29,2.18-1.95.91-.56,1.83-1.12,2.74-1.69.34.26.68.53,1.02.79-.25.37-.41.87-.75,1.1-3.59,2.41-7.21,4.77-10.82,7.15Z"/>
  <path d="M242.84,293.44c3.31-3.4,6.61-6.79,9.92-10.19-2.2,2.61-4.32,5.29-6.63,7.81-.89.98-2.18,1.59-3.29,2.37Z"/>
  <path d="M278.68,246.03c.39-.01.79-.02,1.18-.04.05.4.1.8.15,1.2.25.36.51.72.76,1.08,0,0,.14-.1.14-.1-.51.66-1.02,1.33-1.53,1.99-1.92-1.03-2.54.54-3.36,1.69-2.35,3.28-4.6,6.63-7.08,9.81-.88,1.13-2.3,1.83-3.71,2.48,4.32-4.15,8.58-8.26,10.38-14.18,1.02-1.31,2.04-2.63,3.06-3.94Z"/>
  <path d="M278.68,246.03c-1.02,1.31-2.04,2.63-3.06,3.94-1.49,2.02-2.98,4.05-4.47,6.07,1.15-2.47,2.3-4.95,3.46-7.42l4.82-5c-.23.69-.45,1.39-.68,2.08-.02.11-.04.22-.06.33Z"/>
  <path d="M256.15,270.88c2.73-2.83,5.46-5.67,8.19-8.5-2.73,2.83-5.46,5.67-8.19,8.5Z"/>
  <path d="M274.6,248.63c-1.89,2.3-3.78,4.59-5.67,6.89,3.06-4.52,6.08-9.06,9.2-13.53.62-.89,1.6-1.53,2.42-2.28.01.17.03.35.04.52-.22.65-.43,1.3-.65,1.95l-.53,1.46s.02-.02.02-.02c-1.61,1.67-3.22,3.34-4.82,5Z"/>
  <path d="M248.78,293.59l.89-.7c.97-.26,2.12-.27,2.88-.82,5.4-3.9,10.73-7.89,16.04-11.92,1.12-.85,2.02-1.97,3.02-2.97,0,0-.1.05-.1.05.19.37.62.97.53,1.06-.73.76-1.52,1.46-2.36,2.1-6.24,4.76-12.51,9.49-18.74,14.28-.8.61-1.4,1.49-2.09,2.25-1.3.78-2.6,1.57-3.89,2.35.35-.7.61-1.45,1.06-2.08.87-1.24,1.84-2.4,2.77-3.6Z"/>
  <path d="M228.36,326.23c-.44-3.23,1.19-5.46,3.53-7.35-1.18,2.45-2.36,4.9-3.53,7.35Z"/>
  <path d="M332.13,154.35c-.08.2-.15.41-.23.61-.32.26-.64.52-.96.78-1.08.94-2.39,1.72-3.19,2.85-1.34,1.92-2.36,4.07-3.51,6.12.07-4.38,2.7-7.54,5.34-10.6.85-.99,2.44-1.35,3.69-2-.38.74-.76,1.48-1.14,2.23Z"/>
  <path d="M432.44,409.88c-.23.03-.45.06-.68.09.22-.19.43-.38.65-.58l-.05-.08c0,.22,0,.44,0,.65l.08-.08Z"/>
  <path d="M432.41,409.39c.19,0,.38,0,.57,0,0,0,.04-.08.04-.08h-.66s.05.08.05.08Z"/>
  <path d="M279.22,252.47c-.14-.27-.29-.54-.43-.81.12.27.24.54.36.81,0,0,.07,0,.07,0Z"/>
  <path d="M281.84,245.3c-.61.63-1.22,1.26-1.82,1.9-.05-.4-.1-.8-.15-1.2,0,0,.08-.07.08-.07.21-.21.42-.43.63-.64,0,0-.08.07-.08.07.45-.02.89-.03,1.34-.05Z"/>
  <path d="M279.41,243.64c.18-.49.35-.97.53-1.46.41-.1.81-.2,1.22-.29l-.07-.06c-.56.6-1.12,1.21-1.68,1.81Z"/>
  <path d="M281.69,241.24c-.2.2-.4.4-.6.59,0,0,.07.06.07.06.19-.19.39-.39.59-.58,0,0-.06-.07-.06-.07Z"/>
</svg>