<?xml version="1.0" encoding="UTF-8"?>
<svg id="Capa_1" xmlns="http://www.w3.org/2000/svg" viewBox="0 0 700 700">
  <path d="M405.82,403.36c-.16-2.16,1.32-2.8,2.99-2.84,4.38-.1,8.75-.04,13.16-.04-1.55-1.7-3.1-3.26-4.47-4.97-.79-.99-1.1-2.38-1.96-3.27-.68-.7-1.84-1.19-2.84-1.29-1.94-.2-3.92-.06-6.71-.06,1.05-1.74,1.66-2.76,2.42-4.01,2.27,1.43,5.41.48,7.13,3.55.46.82,3.11.42,5.76.68-2.14.69-3.4,1.1-5.7,1.84,6.76,4.8,12.91,9.17,19.64,13.95,2.14-4.26,4.13-7.96,5.81-11.79.29-.66-.46-2.14-1.16-2.8-6.12-5.81-13.51-8.05-21.85-7.58-2.25.13-4.51.02-6.79-.36,3.59-2.43,7.75-1.33,11.8-1.87-.65-1.31-1.39-2.46-1.8-3.72-1.03-3.17-2.9-4.17-6.28-3.55-2.06.38-4.34-.44-6.9-1.38.94-.31,2.12-1.15,2.77-.85,5.28,2.46,9.88.48,14.72-2.03-1.78-.8-3.41-1.53-5.05-2.27,8.07,1.41,16.44,1.63,23.48,7.27.19-3.76-.3-6.24-3.84-7.27-6.47-1.88-12.86-3.99-18.22-5.67,5.56-2.06,12.01.77,18.62,2.04-1.7-3-6.05-4.82-14.32-6.25,1.14-.08,2.28-.16,3.43-.25.01-.1.03-.2.04-.3-1.8-.4-3.6-.8-5.4-1.2.04-.22.08-.44.13-.65,4.16.81,8.33,1.61,13.41,2.6-4.74-4.06-10.1-4.29-14.79-6.49,3.78.64,7.56,1.27,11.27,1.9-1.26-4.26-.84-3.32-15.1-7.4,2.38.21,4.76.42,7.13.63.05-.28.1-.55.15-.83-5.54-.81-11.07-2.12-16.62-2.23-2.93-.06-5.9,1.99-8.84,3.08,1.63-.9,3.25-1.79,4.88-2.69-.08-.22-.17-.43-.25-.65l-7.11,2.65c8.7-6.91,18-5.09,27.41-1.72-9.2-7.43-25.06-5.71-33.24,5.24v-1.52c-8.2,6.87-9.49,9.69-11.51,24.62-.11-3.73-1.21-7.93.12-11.11,2.79-6.66,6.38-13.13,10.55-19.03,4.61-6.51,11.27-9.82,19.63-8.38,1,.17,2.06.02,3.09.02-4.91-1.6-9.85-2.42-14.75-.24-9.89,4.39-15.3,12.64-18.98,22.32-2.13,5.62-2.23,11.34-.49,17.08.19.63.73,1.14,1.51,2.33.58-4.78.7-8.74,1.61-12.5,1.25-5.18,3.61-9.88,8.44-12.83-5.65,6.06-8.27,13.18-7.57,21.49,1.43-9.58,4-18.47,13.44-23.44-2.73,3.58-6.04,6.87-8.05,10.82-2.35,4.6-3.57,9.78-5.43,15.14h11.22c-.08.13-.49.75-.88,1.35.19.21.3.39.46.49,1.62,1.01,3.26,2.01,4.89,3.01-1.59,2.03-3.04,4.19-4.82,6.04-.89.92-2.37,1.28-3.6,1.9,2.78,4.2,2.83,10.9-.33,12.67.13-1.27.22-2.19.35-3.41-5.13,1.58-10.26,3.17-15.89,4.91,4.57-5.36,11.96-4.04,16.66-8.04-.88-2.87-3.04-3.27-5.3-3.53-4.19-.48-8.38-.99-12.58-1.43-.59-.06-1.3.03-1.81.31-4.64,2.49-9.66,2.93-14.79,3.04-5.05.11-6.84,1.46-7.79,4.94-.53,1.92-.17,3.11,1.9,3.48,5.71,1.02,11.42,2,17.12,3.08,1.9.36,3.75.94,5.91,1.49-3.37,5.17-7,6.8-10.62,5,.99-1.62,1.97-3.23,2.95-4.83-.28-.2-.56-.4-.84-.6-1.29,1.68-2.55,3.38-3.88,5.03-.71.88-1.37,2.14-2.31,2.43-6.66,2.09-13.29,1.86-20.28-.7.92-2.11,1.74-3.99,2.6-5.95-47.48,3.21-94.79,4.89-141.63-6.46-.18.94-.35,1.35-.32,1.73.78,9.28-2.51,17.01-8.83,23.65-5.61,5.9-10.83,12.14-18.29,16.05-3.21,1.68-5.7,4.71-8.61,7.01-3.89,3.06-8.01,5.47-13.3,5.2-1.45-.07-3.2.65-4.41,1.55-9.43,7.08-20.73,8.98-31.79,11.23-6.08,1.24-12.41,1.37-18.64,1.68-2.38.12-4.88-.37-7.18-1.08-3.4-1.05-4.29-4.28-2.8-7.44,2.15-4.57,4.4-9.16,5.85-13.96,2.04-6.73,5.93-11.59,12.14-14.73,2.36-1.19,4.68-2.48,7.04-3.67.64-.33,1.42-.79,2.05-.68,3.49.61,6.95,1.39,10.75,2.17-1.05,1.46-1.84,2.54-3.22,4.45,1.94-.19,3.15-.32,4.47-.45,1.51,2.72,1.16,3.4-2.08,3.55-.95.05-1.99-.14-2.83.19-8.86,3.45-17.68,6.98-26.36,11.01.52-.07,1.08-.04,1.57-.22,7.46-2.71,14.9-5.48,22.37-8.15,2.21-.79,4.54-2.17,6.15-.22,1.56-.66,2.81-1.19,4.06-1.72.18.28.36.55.54.83-.87.78-1.73,1.55-2.59,2.34-3.08,2.86-6.04,5.87-9.29,8.53-6.79,5.55-15.1,7.73-23.35,10.01.86.03,1.7.03,2.53-.12,9.88-1.76,18.97-5.43,26.38-12.27,3.64-3.36,7.7-3.97,12.17-4.08.48-.01.96-.07,1.44-.11-.03-.34-.07-.68-.1-1.02-2.32.25-4.7.29-6.95.82-1.83.43-2.54-.2-2.89-1.79,2.46-.12,4.91-.24,7.24-.35-.26-.23-.77-.69-1.29-1.15,2.03-1.88,4.02-3.71,6.02-5.52.65.9,1.28,1.78,1.79,2.5q1.78-3.78,6.62-2.08c.1.03.21.04.31.05.05.84,0,1.71.18,2.53.12.52.5,1.24.91,1.35.48.13,1.29-.12,1.66-.5,2.49-2.6,2.74-6.13.48-9.5.14,1.98.36,3.55.33,5.13-.08,4.03-2.36.91-3.64,1.07,1.32-2.25-.74-.96-1.3-1.23-.85-.42-1.72-.81-2.58-1.22.27-.47.56-1.36.81-1.35.85.04,1.68.4,2.52.62.41.11.83.16,1.93.36-.87-1.24-1.35-1.92-1.46-2.07.34-1.57.57-2.63.8-3.69-.38-.18-.75-.35-1.13-.53.33,3.46-1.52,3.65-3.01,3.31-1.97,1.97-3.62,3.61-5.26,5.25-.58-.57-1.16-1.15-1.76-1.74,2.08-1.25,3.58-2.17,5.09-3.08-.09-.18-.19-.36-.28-.54-1.32.15-2.63.3-3.95.45l.08.1c-1.81-1.13-2.15-2.85-1.61-4.7.19-.65,1.08-1.08,1.65-1.62l.61.56c-.36,1.17-.73,2.34-1.09,3.52,4.37-.11,6.72-3.47,3.98-5.66-.9-.72-2.01-1.2-3.09-1.64-.8-.32-1.71-.4-3.01-.68-.14.2-.63.94-1.42,2.11-.05-.94-.08-1.43-.11-2.12-.66.31-1.24.58-1.59.74-.26-2.52,0-5.12-.88-7.27-1.08-2.68.21-3.87,1.81-5.35,4.19-3.88,8.33-7.8,12.47-11.73.43-.41.71-1,1.33-1.92-1.7-.37-3.15-.53-4.49-1-5.37-1.9-10.72-3.87-16.05-5.88-4.06-1.53-8.06-3.2-12.11-4.76-4.08-1.58-8.34-2.86-9.13-8.19-.09-.63-1.35-1.18-2.16-1.58-4.69-2.3-8.14-5.7-9.64-10.81-1.1-3.73.69-6.5,4.58-6.49,3.37,0,6.74.65,10.11,1.03,7.05.8,14.09,1.76,21.16,2.33,1.67.13,3.82-.62,5.13-1.71,17.33-14.3,34.73-28.54,51.77-43.19,31.84-27.38,67.46-48.45,106.47-63.69,35.68-13.94,72.7-19.88,111.03-16.15,12.37,1.21,24.62,3.15,36.34,7.51,12.89,4.79,23.43,12.63,31.05,24.21.56.84,1.38,1.82,2.27,2.09,5.03,1.51,10.09,2.25,15.26.38,8.87-3.21,17.28-7.21,25.44-12.06,10.22-6.07,21.98-8.11,33.54-10.42,18.65-3.73,37.11-2.97,55.39,2.25,2.64.75,5.2,1.81,7.78,2.78,6.69,2.52,10.92,6.99,12.87,14.15,2.9,10.64,6.28,21.14,6.35,32.32,0,1.17.04,2.34-.08,3.5-.39,3.72-2.48,5.01-5.93,3.7-1.07-.4-2.11-.87-3.48-1.44-3.43,8.7-10.67,12.4-18.62,15.3-2.57.94-4.99,2.33-7.42,3.62-17.1,9.06-34.98,15.75-54.44,17.19-5.37.4-10.81-.24-16.21-.22-2.79.01-5.59.43-8.38.66-.04.29-.07.57-.11.86.47.3.91.67,1.41.88,14.41,5.93,22.97,16.87,27.18,31.58,3.1,10.86,2.85,22,2.75,33.11-.01,1.25-.14,2.67-.72,3.72-2.52,4.52-1.91,9.26-1.68,14.12.34,7.1-1.13,13.89-5.21,19.96-.74,1.1-1.11,2.5-1.43,3.82-3.01,12.28-8.01,23.57-17.56,32.15-3.71,3.33-8.24,5.93-12.75,8.13-4.75,2.32-7.93.42-8.48-4.87-.4-3.86.28-7.82.21-11.72-.03-1.44-.6-3.01-1.33-4.28-2.75-4.79-4.37-9.88-4.5-15.39-.12-4.87-.02-9.75-.02-14.88-3.32-.34-4.52-2.87-5.19-5.74-1.08-4.63-2.43-9.25-2.96-13.96-.62-5.53,2.39-9.85,7.13-11.48,3.99-1.37,8.81.46,11.96,4.57.38.5.77,1,1.04,1.35.2-2.22.4-4.51.65-7.24-.1-.09-.73-.64-1.55-1.37,1.35-.28,2.34-.49,3.08-.64-1-1.36-1.82-2.48-2.7-3.68-2.05,2.94-2.97,6.03-.26,9.03-3.63-1.53-7.26-2.76-10.59-4.55-2.75-1.48-5.47-3.3-7.6-5.54-2.99-3.15-2.98-6.78-.76-10.56.54-.91,1.24-1.73,1.77-2.64,1.87-3.23,1.21-5.32-2.28-6.57-7.58-2.71-15.1-5.84-23.41-5.09-2.08.19-4.2.64-6.16,1.36-6.72,2.46-6.53,2.53-6.74,9.69-.28,9.69-3.71,18.4-8.95,26.47-1.14,1.76-2.23,3.58-3.12,5.48-2.78,5.95-6.29,11.27-11.79,15.11-1.19.83-2.13,2.05-3.05,3.2-5.74,7.19-12.37,13.36-20.21,18.24-1.5.93-2.78,2.25-4.05,3.5-4.32,4.21-8.59,8.48-12.9,12.7-.53.51-1.11,1.07-1.78,1.32-9.17,3.49-15.13,11.15-22.41,17.1-7.03,5.75-14.76,10.24-23.2,13.64-7.26,2.93-14.28,6.48-21.55,9.39-3.5,1.4-7.49,3.11-11,2.65-8.48-1.1-16.47,1.7-24.75,1.82-8.58.12-16.93-.96-25.03-3.67-2.16-.72-4.3-1.91-6.06-3.36-3.17-2.61-3.26-5.51-.49-8.51,1.34-1.45,2.18-2.73,2.01-4.96-.11-1.54,1.01-3.42,2.07-4.76,7.4-9.41,16.95-14.45,29.1-15.37,8.5-.64,16.88-2.78,25.69-4.32,1.53,2.43,1.68,5.27-.41,8.04-3.81,5.04-9.25,8.03-15.02,9.63-10.39,2.88-21.02,4.89-31.57,7.2-2.74.6-5.53.99-8.29,1.47-.03.28-.06.56-.09.83.88.29,1.79.9,2.63.82,17.24-1.63,34.43-3.51,50.03-11.97,1.49-.81,2.85-1.88,4.38-2.58,1.13-.51,2.45-.59,3.68-.9.88-.23,1.85-.35,2.58-.83,2.83-1.87,5.58-3.67,9.23-3.75,1.44-.03,2.94-1.08,4.27-1.88,5.55-3.35,5.94-3.32,10.61,1.95-12.2,10.71-26.6,18.77-37.98,30.43.21.36.42.72.62,1.08,1.28-.63,2.71-1.06,3.82-1.91,9.58-7.36,19.18-14.7,28.61-22.25,6.45-5.16,12.8-10.47,18.85-16.08,1.84-1.71,3.01-4.53,3.66-7.06,1.09-4.21,7.56-9.76,11.88-9.52,2.28.13,2.94,1.45,1.97,4.12-4.76,13.05-11.95,24.28-23.77,32.12-3.39,2.25-6.65,4.7-9.7,7.56,1.03-.44,2.08-.82,3.07-1.34,9.26-4.87,17.44-11.16,25.13-18.25,5.44-5.02,8.22-10.87,8.21-18.18,0-2.01.04-4.04.26-6.03.23-2.01.81-3.92,3.2-4.29-.43,6.9-.86,13.68-1.33,21.12,1.58-1.04,2.81-1.63,3.78-2.52,4.84-4.44,9.57-8.98,14.4-13.42,2.15-1.98,2.36-4.04,1.46-6.8-2.25-6.9-2.25-7.07-9.34-5.32-2.74.68-5.39,1.7-8.3,2.64,1.94-4.18,6.83-6.03,14.6-5.67.25-2.36-1.95-5.43,1.29-6.93,1.87,5.71,3.7,11.32,5.75,17.59,8.05-6.22,15.16-11.94,20.39-19.65-5.33-8.36-13.56-8.93-22.16-8.3.27-3.27,1.81-3.6,11.91-2.8-.8-1.84-1.57-3.59-2.33-5.33-.05.14-.1.28-.15.42,5.18,4.51,10.35,9.02,15.58,13.58,4.75-3.81,7.66-8.21,9.87-13.05.31-.68-.53-2.28-1.29-2.99-6.59-6.21-14.69-6.34-23-5.46-.74.08-1.46.23-2.19.35l.06.08ZM426.74,335.27c-.24-.42-.39-.96-.75-1.24-7.7-6.01-14.63-7.76-24.31-6.2,4.3.65,8.78.85,12.97,2.08,4.21,1.23,8.11,3.49,12.15,5.29,6.1,6.91,12.19,13.82,18.09,20.51.38-3.59.37-3.57-2.76-5.97-.83-.64-1.6-1.38-2.32-2.15-3.23-3.46-6.37-7.01-9.69-10.39-.87-.89-2.25-1.3-3.39-1.93ZM526.15,362.52c1.25-2.62,2.5-5.25,3.82-8.04-2.38-2.13-4.69-4.19-7.26-6.48-.97,3.27-1.46,6.03-2.58,8.5-2.32,5.1-3.26,11.31-9.75,13.59,3.69,1.07,5.68-2.16,8.69-3.03-1.99,1.64-3.98,3.28-5.97,4.93.14.22.28.43.42.65,2.28-1.53,4.67-2.92,6.8-4.63,2.12-1.69,3.97-3.71,5.95-5.58-2.58,5.12-6.96,8.39-11.57,11.6,2.82-.7,5.64-1.4,9.07-2.25-2.32,4.84-7.02,4.08-10.6,5.75,7.62,2.53,19.49-4.87,23.39-9.42.4-.46.62-1.51.38-2.02-1.72-3.62-3.59-7.17-5.62-11.15-2.12,3.12-3.65,5.36-5.18,7.6ZM374.18,366.59l-.06-.07c.42,1.06.84,2.13,1.26,3.19.35-.01.69-.02,1.04-.04.3-7.73,2.25-14.82,6.8-21.11,4.48-6.19,8.94-12.32,16.34-15.49-.14-.23-.28-.47-.42-.7-2.31,1.04-4.62,2.09-6.93,3.13,3.6-3.4,7.78-5.86,12.73-4.52,5.68,1.53,11.13,3.88,16.68,5.87.58.21,1.14.47,1.71.7-5.34-5.29-12.17-7.02-19.14-8.46-3.96-.82-7.54-.06-10.86,2.23-8.24,5.7-15.18,12.57-19.32,21.86-1.97,4.43-2.24,8.96.17,13.39ZM496.75,348.53v-1.59c-2.58,2.45-5.07,4.81-7.75,7.35,5.32-1.13,5.56-1.31,7.83-5.87,1.05,1.79-2.8,4.26.85,5.71-.53,1.11-1.05,2.22-1.82,3.84,5.08-2.53,5.71-7.11,6.88-11.36.3.12.61.24.91.36-1.39,4.22-2.78,8.45-4.17,12.67.16.09.32.19.49.28,1.59-3.08,3.18-6.15,4.77-9.23.25.11.49.22.74.33-1.5,3.48-3,6.96-4.64,10.75,5.91-3.87,8.55-9.77,10.88-15.93-1.58,6.81-1.32,14.35-8.23,19.04,5.01.07,6.75-1.1,12.54-7.47-1.68,2.66-3.36,5.33-4.95,7.84,4.93.16,5.69-3.98,7.2-7.33.65-1.44,1.11-2.98,1.55-4.5q1.76-5.96-3.52-9.18c-.54-.33-1.15-.6-1.59-1.04-3.14-3.15-6.63-2.67-10.24-1.04-1.06.48-2.07,1.18-3.19,1.41-2.79.57-4.12,2.31-4.55,4.96ZM519.66,397.53c5.06-3.34,11.32-1.64,16.46-4.59.19.34.37.68.56,1.03-1.32,1.01-2.63,2.03-3.95,3.04.14.22.29.44.43.67,2.38-1.07,4.75-2.14,7.63-3.43-1.5,2.87-2.92,5.03-3.78,7.39-1.04,2.84-2.91,3.6-5.65,3.32-3.14-.33-6.29-.54-9.43-.81,5.46,1.95,11.02,2.67,16.71,1.4.12,1.79.22,3.38.33,4.96.28.03.55.06.83.09.53-1.66,1.48-3.31,1.51-4.98.15-8.11.11-16.23-.06-24.34-.02-.78-1.33-1.54-2.1-2.36,3.23-3-.27-6.22-1.02-9.91-4.85,6.83-11.15,10.51-19.42,10.46h15.61c-.17,2.14-3.62,2.97-17.42,3.88h10.52c.01.27.03.55.04.82-3.05.5-6.11,1-9.16,1.5,1.25.82,2.67,1.16,4.11,1.44.93.18,2.4-.07,2.74.45,1.44,2.22,3.29,1.08,4.97.85,1.67-.23,3.32-.7,4.95-1.15,1.5-.41,2.97-.94,4.45-1.42-6.18,6.23-13.14,8.51-21.48,4.77,1.07.8,2.14,1.59,3.04,2.26-.45,1.6-.89,3.17-1.34,4.75-1.88-1.14-3.75-2.27-5.8-3.52v3.61c.33-.29.67-.57,1-.86,2.08.88,4.15,1.76,6.23,2.63.09-.22.18-.43.27-.65-.59-.44-1.19-.87-1.78-1.31ZM443.71,293.69c2.92-4.52,6.07-8.92,8.71-13.6,3.24-5.74,4.63-12.82,12.14-15.26-3.15-.42-5.66.61-7.47,2.85-1.99,2.46-4.08,4.95-5.49,7.75-8.09,16.16-22.03,25.61-37.62,33.21-1.85.9-3.85,1.52-5.78,2.27,9.03-1.25,18.12-2.18,25.79-7.64-5,6.25-12.33,7.04-19.55,8.16,1.21.38,2.38.39,3.49.63,4.21.91,8.59,1.43,12.54,3,3.38,1.34,6.41,1.09,9.66.37l-.08.06c.77.05,1.54.11,2.31.16.03.27.07.55.1.82-2.53.45-5.05.89-7.58,1.34,7.19,2.5,12.36-.95,17.74-6.42-1.17,2.22-2.46,3.58-2.47,4.96-.03,2.14-.92,1.84-2.45,2.06-1.55.23-2.94,1.46-4.41,2.25l.09-.08c-5.07,1.14-9.28-1.51-13.67-3.22-1.85-.72-3.47-2.2-5.36-2.65-7.84-1.88-15.8-2.75-23.35.89-8.09,3.9-16.2,7.88-23.87,12.54-12.77,7.76-24.03,17.26-32.4,29.96-3,4.55-7.01,8.43-10.57,12.61-.91,1.07-1.84,2.11-2.76,3.17.1.28.2.55.29.83,8.8-.41,17.51-.16,25.82,3.22-5.63-6.72-6.63-10.95-3.3-16.13-1.32,7.55,2.57,11.79,8.71,15.5-6.73-10.17-7.13-11-6.93-14.44,1.31,2.36,2.63,4.72,3.95,7.08.16-.1.32-.19.49-.29-.13-.67-.26-1.34-.5-2.56,1.14,1.43,1.9,2.38,2.66,3.34-3.19-8.15-3.37-9.66-.55-15.82,1.14-2.48,2.61-4.89,4.36-6.98,7.41-8.84,15.99-16.38,26.2-21.84,14.74-7.88,29-7.75,42.34,3.23,2.76,2.27,5.58,4.17,9.42,3.74.71-.08,1.5.45,2.25.7-.06.25-.12.5-.18.76-2.68-.31-5.35-.63-8.03-.94,1.97,1.3,4.23,2.71,6.25,2.42,2.75-.4,3.98.32,4.5,2.73,4.2.1,2.14-4.96,5.6-6.28-2.22,2.95-.88,7.35-5.37,8.29.68.17,1.36.35,2.08.54-.07,1.18-.15,2.38-.22,3.59-1.18-.17-2.34-.33-3.5-.5-.48-5.84-5.55-.87-7.5-3.2,1.11,1.48,2.23,2.97,3.34,4.45-1.83-1.59-3.67-3.17-6.07-5.26,2.67,5.39,4.99,7.42,10.53,8.83-1.52-1.22-3.05-2.45-4.57-3.67,2.96,0,5.27.71,6.18,4.1.28,1.03,1.96,1.67,3.55,2.93-.12-2.68-.2-4.43-.29-6.18.44.39.88.78,1.31,1.17.61-1.28,1.22-2.55,2.02-4.22.78,1.03,1.34,1.77,2.45,3.23-1.46-.59-1.94-.79-2.41-.98-.18.26-.36.51-.55.77,2.6,2.27,5.2,4.55,8.1,7.09-.35-1.45-.57-2.36-.88-3.62,1.11.51,1.7.77,2.28,1.04-.68-1.36-1.8-2.18-2.59-3.24-.77-1.02-1.2-2.29-1.78-3.45,1.31.36,2.7.55,3.91,1.12,1.02.49,1.77,1.49,2.74,2.13.81.53,1.75.87,3.19,1.55-1.92-2.79-3.42-4.98-4.85-7.04,2.02,1.07,3.93,2.09,5.85,3.11.14-.26.27-.51.41-.77-.25-.61-.5-1.23-.74-1.84l-.06.07c1.8.5,3.6,1,6.09,1.69-1.02-1.28-1.51-1.89-2.08-2.6.69-.03,1.13-.05,1.6-.07-1.04-2.26-2.02-4.42-3.01-6.57.2-.08.4-.16.59-.23,2.38,2.12,4.75,4.23,7.13,6.35.06-.13.12-.25.18-.38-2.49-3.79-4.99-7.59-7.48-11.38.14-.08.28-.15.42-.23,3.43,3.71,6.86,7.43,10.29,11.14l.68-.62c-5.89-5.68-8.39-13.02-9.29-20.75-.92-7.87-1.03-15.84-1.18-23.78-.15-8.04-.68-16.19,3.13-23.78-5.74,5.59-6.3,13.31-8.17,20.43-1.93,7.38-3.43,14.86-5.12,22.3.82-7.72,2.18-15.31,3.48-22.92.74-4.36,1.15-8.8,2.16-13.1.49-2.09,2.03-3.93,3.1-5.88.06.07.12.13.17.2-1.26,3.77-2.53,7.54-3.79,11.32.25.08.49.16.74.24,1.64-4.17,3.28-8.34,4.91-12.51q-2.43-.87-8,8.59c1.17-3.05,2.34-6.09,3.52-9.14-6.63,8.57-8.53,18.74-10.08,29.12.34-4.05.69-8.09,1.03-12.14-.27-.07-.54-.14-.81-.21-2.02,5.01-4.04,10.03-6.33,15.72-.12-1.09-.27-1.45-.16-1.67,5.17-10.51,6.7-22.63,14.38-32.49-.62.33-.98.45-1.25.66-3,2.36-4.8,5.46-6.22,9.01-2.3,5.74-5.08,11.28-7.66,16.91-.19-.09-.38-.18-.56-.27,2.28-6.27,4.56-12.54,6.83-18.81-.19-.07-.37-.14-.56-.21-2.95,4.55-5.91,9.11-8.86,13.66-.21-.14-.43-.28-.64-.43,3.93-6.98,7.86-13.97,11.79-20.95-2.38,2.45-4.36,5.24-6.34,8.02-4.09,5.75-8.18,11.5-12.28,17.25ZM427.93,251.97c.09.05-.24-.21-.62-.35-21.41-7.93-43.41-13.03-66.34-13.48-.6-.01-1.28.11-1.81.39-10.32,5.42-20.59,10.92-30.94,16.28-3.94,2.04-6.55,5.25-8.88,8.86-10.23,15.83-18.43,32.67-24.72,50.4-4.11,11.57-7.7,23.33-11.59,34.98-.92,2.75-2.12,5.4-3.48,8.82,4.13-1.59,7.46-3.24,10.98-4.16,13.47-3.55,24.76-10.78,35.01-19.95,2.44-2.18,5.24-3.94,7.91-5.86,6.69-4.81,13.8-9.13,19.99-14.51,10.53-9.16,22.1-16.4,35.04-21.5,3.41-1.34,6.85-2.62,10.46-4-4.53-7.64-6.85-15.43-4.14-24.06-.2,8.04,1.14,15.64,5.75,22.52,12.84-8.76,23.65-18.51,27.37-34.37ZM209.83,373.91c5.7,0,11.58.89,17.08-.19,11.3-2.21,22.4-5.45,33.57-8.31,7.44-1.91,12.04-6.78,14.21-14.03,2.18-7.3,4.35-14.6,6.41-21.93,6.25-22.23,14.12-43.74,27.37-62.91,1.48-2.14,2.89-4.34,4.48-6.72-6.45-.81-12.5-1.57-19.12-2.41-3.29,1.86-7.21,4.44-11.42,6.39-13.32,6.16-22.73,16.09-30.84,28.24-17.1,25.6-28.35,54.09-41.74,81.87ZM214.51,309.03c.15.13.3.26.44.39-.12.26-.2.56-.37.78-10.28,13.04-18.45,27.37-26.2,42-3.36,6.35-7.29,12.39-11.02,18.54-.73,1.21-1.77,2.23-3.05,3.8,8.17.92,15.75,2.33,23.26.45,2.46-.61,5.12-2.44,6.6-4.5,2.37-3.31,4.19-7.13,5.62-10.97,10.59-28.34,23.77-55.26,42.65-79.13.37-.47.6-1.04.89-1.57-.12-.29-.24-.59-.36-.88-5.58,1.42-11.52,2.05-16.65,4.43-13.02,6.04-24.97,13.79-33.91,25.45-4.19,5.46-9,10.47-12.85,16.15-9.98,14.73-19.58,29.72-29.34,44.6-1.51,2.31-.59,3.76,1.62,4.77,6.07,2.78,10.29,1.93,14.19-3.51,2.7-3.77,5.06-7.84,7.14-11.99,7.13-14.22,14.26-28.43,24.3-40.91,2.21-2.74,4.68-5.28,7.03-7.91ZM625.31,298.85c.17-2.26.77-4.39.4-6.33-1.77-9.36-3.67-18.7-5.79-27.98-1.13-4.94-4.39-8.3-9.02-10.45-10.53-4.9-21.69-6.99-33.17-7.96-9.75-.82-19.22.87-28.73,2.52-11.12,1.93-21.89,4.97-32.22,9.55-4.32,1.92-6.15,4.94-5.97,9.7.32,8.43,2.2,16.38,6.48,23.67,8.29,14.13,23.93,22.62,42.47,15.67,9.19-3.44,18.83-5.7,28.31-8.32,12.17-3.36,24.4-4.05,37.24-.08ZM544.91,318.41c.08-.16.15-.31.23-.47,1.75.35,3.65.38,5.24,1.1,7.15,3.23,14.18,2.36,21.38.1,8.18-2.57,16.51-4.64,24.73-7.08,3.95-1.17,7.88-2.47,11.65-4.09,3.19-1.38,5.07-4.18,6.81-8.02-3.95,0-7.23-.25-10.46.04-14.33,1.28-28.12,5.12-41.82,9.25-7.56,2.28-15.24,3.57-22.83,1.17-14.79-4.68-24.68-14.66-28.79-29.66-1.59-5.81-1.73-12.02-2.51-17.91-4.13,1.51-5.8,3.16-5.97,7.91-.22,6.23-.4,12.54.35,18.7.59,4.84,1.92,9.87,4.17,14.16,5.84,11.13,15.24,18.57,26.88,23.15,3.78,1.49,7.72,1.8,11.73.36-7.92.53-13.05-4.67-18.63-8.9,3.43,1.73,6.48,4.34,10.02,5.64,3.44,1.26,7.36,1.36,11.09,1.61,3.72.25,7.47.05,11.21.05-.01-.31-.02-.62-.04-.93-12.99.65-26.7-3.11-32.44-8.7,4.76,1.79,9.8,3.94,15.01,5.56,5.29,1.64,10.79,2.26,16.41,1.44-4.48-1.48-8.95-2.97-13.43-4.45ZM506.31,327.79c.32-.24.64-.48.96-.72-4.48-8.35-4.79-9.21-4.26-11.81,3.44,9.2,7.92,13.21,13.12,12.03-17.95-16.13-19.78-37.57-19.35-59.82-4.72,14.49-2.08,28.98-.49,43.49-1.68-14.11-5.79-28.02-3.19-42.49-3.2,6.36-2.42,13.15-2.26,19.91-2.14-6.03-1.92-12.21-1.27-18.44-3.6,10.42-1.56,20.97-.84,31.49-.27.02-.55.05-.82.07-.86-8.97-1.71-17.94-2.57-26.9-.1-.02-.19-.05-.29-.07-.23,3.29-.45,6.58-.68,9.87-.14,0-.28,0-.41,0v-12.49c-.4-.03-.8-.06-1.2-.1-.38,2.75-.91,5.48-1.1,8.24-.19,2.8-.04,5.62-.04,8.43-.29,0-.58-.01-.86-.02v-16.75c-.25-.06-.51-.12-.76-.18-.56,1.63-1.29,3.23-1.65,4.91-2.43,11.51-2.45,23.17-1.75,34.82.4,6.69,2,13.19,5.67,19,1.83,2.89,4.05,5.28,8.36,6.69-5.81-5.54-7.13-11.91-7.57-18.62,1.94,5.5,3.25,11.33,9.2,15.39-4.49-7.49-5.57-15.04-6.03-22.73.3.46.31.98.45,1.47,1.67,5.89,3.17,11.83,5.13,17.62.67,1.99,1.79,4.38,4.89,4.33-4.44-4.71-5.84-13.71-6.09-20.97,2.55,7.14,2.68,15.2,10.27,19.85-4.9-8.08-6.32-13.76-4.89-18.95.42,9.02,6.05,17.35,11.27,17.29-4.41-3.94-6.66-8.75-7.62-14.54,2.34,3.75,4.51,7.23,6.68,10.71ZM406.49,293.35c1.67,2.4,3.58,5.33,5.72,8.07.49.62,2.05,1.09,2.71.78,13.31-6.28,24.45-15.08,31.93-28.04,3.5-6.07,7.23-11.97,15.5-14.91-5.38-4.07-10.02-7.63-14.76-11.07-.56-.41-1.68-.33-2.44-.13-4.97,1.34-9.42,3.28-10.59,9.13-.35,1.74-1.3,3.36-1.82,5.08-1.62,5.35-4.01,10.27-8.12,14.17-5.96,5.65-12,11.22-18.13,16.93ZM355.44,337.95c1.33-1.09,2.63-2.31,4.08-3.32,8.32-5.84,16.43-12.03,25.1-17.3,5.93-3.61,12.85-5.55,18.97-8.89,7.52-4.1,7.11-4.37,1.93-10.78-1.88-2.33-3.83-2.81-6.6-1.41-7.94,4.02-16.38,7.21-23.89,11.9-8.13,5.08-15.47,11.44-23.04,17.37-.57.45-.64,2.13-.33,3.02,1.07,3.09,2.42,6.08,3.78,9.39ZM307.71,365.11c.16-.02.59.02.94-.12,13.02-5.12,25.91-10.58,37.09-19.15,8.02-6.15,8.09-5.49,2.99-15.51-1.04-2.05-2.71-2.72-4.98-2.51-5.5.53-9.45,3.99-13.6,7.05-7.23,5.33-14.42,10.69-21.58,16.12-.7.53-1.46,1.58-1.45,2.38.05,3.87.35,7.74.58,11.74ZM265,380.83c4.03-1.1,7.86-1.92,11.53-3.2,7.56-2.64,15.18-5.2,22.5-8.42,6.01-2.64,6.94-5.94,5.17-12.38-.66-2.42-1.72-3.06-4.06-2.1-8.5,3.49-17.08,6.81-25.56,10.35-6.84,2.86-9.83,8.25-9.57,15.75ZM197.6,310.32c-1.2.35-1.53.36-1.74.52-11.09,8.55-22.27,16.99-29.57,29.37-2.64,4.47-5.5,8.81-8.46,13.07-3.91,5.63-8,11.13-12.08,16.77,1.96.51,3.98,1.07,6.02,1.55,2.11.49,4.23.88,6.53,1.35-.23-1.22-.71-2.14-.44-2.62,11.8-20.62,23.34-41.42,39.74-60.01ZM183.7,389.79c.05.45.1.9.15,1.34,8.72.43,17.45,1.3,26.16,1.15,8.8-.15,14.39-4.97,17.11-13.8-7.39,0-14.56.09-21.74-.02-7.88-.12-14.99,1.24-19.39,8.78-.57.97-1.53,1.7-2.31,2.55ZM222.42,391.09c.55.17.75.31.94.29,12.52-1.59,24.84-4.03,36.75-8.29.68-.24,1.57-.97,1.68-1.59.77-4.37,1.37-8.77,1.94-12.64-8.34,2.46-17.13,4.77-25.7,7.73-3.26,1.13-6.35,3.37-8.91,5.76-2.57,2.41-4.38,5.63-6.71,8.74ZM300.31,255.27c4.73.39,9.24,1.12,13.73,1.02,3.16-.07,6.55-.74,9.39-2.09,8.31-3.94,16.4-8.35,24.56-12.61,2.32-1.21,4.58-2.54,6.87-3.81-1.66-.35-3-.13-4.34.12-15.19,2.84-30.36,5.78-44.96,11.06-2.85,1.03-4.71,2.73-5.26,6.31ZM434.56,334.68c-3.17-6.18-7.51-9.6-13.24-11.44-7.9-2.53-15.53-1.43-22.95,1.66-11.13,4.63-20.43,11.91-28.17,21.02-3.04,3.58-5.6,7.76-7.52,12.05-2.46,5.51,1.11,13.19,6.53,14.85-2.73-2.9-4.87-5.77-3.76-10.37.28,1.16.42,1.72.54,2.23.2-2.21.39-4.41.59-6.6.26.03.52.06.78.09-.08,5.09-.04,10.13,5.12,13.17-.05-1.07-.57-1.97-.85-2.93-.5-1.71-1.38-3.53-1.17-5.17.76-5.77,2.14-11.29,5.56-16.32,4.57-6.71,10.45-11.97,16.9-16.62,5.94-4.28,12.89-5.97,20.12-5.89,6.77.08,12.97,1.89,17.52,7.49.81,1,2.18,1.55,3.98,2.78ZM365.62,236.76c5.6.26,11.22.29,16.79.82,14.11,1.35,27.77,4.91,40.96,9.89,6.48,2.45,11.61,1.12,17.42-2.86-24.83-7.9-49.77-9.93-75.17-7.86ZM188.2,380.02c-4.16-.32-8.35-.15-12.28-1.06-5.74-1.33-10.15.14-14.43,4-2.68,2.41-6.14,3.96-10.07,6.39,5.86.81,10.83,1.61,15.82,2.15,9.04.98,16.32-3.03,20.95-11.48ZM131.36,364.29c3.34,1.45,5.96,2.74,8.69,3.73,2.42.87,4.58.28,6.13-1.96,7.11-10.29,14.24-20.57,21.75-31.43-12.28,9.96-24,19.47-36.57,29.67ZM273.21,360.69c.36.27.72.54,1.07.8,1.56-2.26,3.67-4.32,4.59-6.82,2.14-5.86,3.91-11.88,5.47-17.92,7.1-27.46,18.62-52.92,34.43-76.45.25-.37.36-.84.53-1.26l-.8-.67c-1.31,1.35-2.9,2.52-3.9,4.07-12.39,19.25-22.49,39.58-29.09,61.59-3.7,12.34-5.87,25.2-12.29,36.64ZM161.87,377.94c-5.66-1.33-11.01-2.6-16.37-3.84-.39-.09-.9-.1-1.24.07-4.92,2.45-9.81,4.95-14.59,7.37,13.4,7.56,23.81,6.53,32.2-3.6ZM442.64,388.64c2.73-7.01,1.95-9.55-4.62-13.59-1.43-.88-3-1.58-4.58-2.16-4.53-1.65-8.65-.33-12.96,1.79,1.42,3.62,3.49,6.5,6.73,7.96,4.96,2.23,10.14,3.97,15.42,6ZM204.18,374.13c.24.29.49.57.73.86,1.35-1.3,3.08-2.38,3.98-3.94,1.85-3.2,3.49-6.56,4.8-10.01,10.97-28.92,25.46-55.9,44-80.69.62-.83,1.1-1.77,1.64-2.65-.58-.5-1.16-1.01-1.74-1.51-.7,1.32-1.23,2.77-2.12,3.95-14.45,19.01-26.03,39.66-35.78,61.41-4.92,10.98-7.98,22.84-15.51,32.59ZM139.17,373.25c-1.42-.65-2.52-1.01-3.47-1.61-5.74-3.63-11.62-4.49-18.09-1.77-2.5,1.06-5.47,1.01-8.54,1.52,7.82,8.43,20.31,10.26,30.1,1.85ZM524.76,328.73c.01-.13.03-.26.04-.39-4.35-3.94-8.69-7.88-13.04-11.82.23-.25.46-.51.69-.76,2.65,2.32,5.12,4.93,8.01,6.9,2.91,1.98,6.25,3.33,9.41,4.96-1.97-1.93-4.4-3.07-6.53-4.61-9.24-6.7-17.47-14.42-20.36-25.93-1.48-5.9-1.75-12.13-2.29-18.23-.3-3.42-.05-6.88-.05-10.32-.39,0-.79-.01-1.18-.02-.22,1.65-.66,3.3-.63,4.94.1,5.93.05,11.88.6,17.77,1.19,12.7,5.86,23.87,15.95,32.14,2.75,2.25,6.24,3.61,9.38,5.37ZM243.87,275.62c.14.29.28.59.41.88,4.73-.4,9.46-.73,14.18-1.26,1.2-.14,2.4-.8,3.47-1.44,8.78-5.26,17.56-10.53,26.29-15.89,2.22-1.36,4.26-3.02,6.39-4.54-.19-.29-.39-.59-.58-.88-16.72,7.71-33.43,15.42-50.15,23.12ZM118.58,361.48c-.04.26-.09.52-.13.78-4.79-1.69-9.58-3.37-14.38-5.06-.12.25-.25.5-.37.75,1.76,1.19,3.53,2.38,5.29,3.57-.09.18-.17.36-.26.54-3.91-1.71-7.82-3.43-12.13-5.32.9,5.91,6.28,10.85,11.57,10.84,3.89,0,7.77-.68,11.66-1.02,4.01-.35,6.65-2.7,9.02-5.96-4.63-.35-9.01-.68-13.4-1.02-.05.12-.1.25-.14.37,1.09.51,2.18,1.02,3.27,1.53ZM345.41,323.7c.2.4.41.81.61,1.21,1.57-.64,3.34-1.01,4.68-1.98,2.75-1.96,5.19-4.34,7.91-6.37,5.5-4.1,10.8-8.56,16.71-11.97,6.67-3.85,13.91-6.7,20.9-9.98,1.51-.71,3.02-1.43,4.53-2.15-.04-.38-.07-.76-.11-1.13-.95,0-2.03-.3-2.83.05-7.59,3.24-15.2,6.44-22.66,9.95-11.47,5.39-19.79,14.94-29.74,22.36ZM289.39,383.75c.04.34.09.69.13,1.03,7.85-.96,15.72-1.86,23.56-2.93,2.61-.35,4.88-.36,7.25,1.22,1.59,1.06,3.77,1.75,5.67,1.73,9.99-.14,19.97-.55,30.35-.89-6.73-1.89-13.15-1.16-19.6-.82-4.3.23-8.67.14-12.94-.38-1.99-.24-3.82-1.84-5.73-2.82.14-.35.27-.71.41-1.06h28.47c.02-.39.05-.77.07-1.16-.66-.19-1.32-.53-1.99-.54-6.74-.12-13.49-.19-20.23-.25-.63,0-1.28.08-1.89.26-3.57,1.07-7.06,2.54-10.7,3.2-7.57,1.37-15.22,2.31-22.83,3.42ZM398.16,381.6c-6.86-2.34-13.52-2.8-20.26-2.34-.67.05-1.87,1.25-1.79,1.76.19,1.23.7,3.03,1.59,3.42,7.54,3.24,13.57,4.65,20.45-2.84ZM433.08,251.57c-.72.77-1.79,1.53-2.31,2.55-1.48,2.91-2.98,5.85-4.03,8.94-1.36,4.01-3.21,7.56-6.48,10.34-5.64,4.81-11.18,9.73-16.83,14.52-1.54,1.31-1.8,2.26.16,3.29,14.54-9.63,26.18-21.48,29.5-39.64ZM311.87,373.02c12.76.36,28.9-8.93,32.8-18.36-10.56,5.91-21.8,12.2-32.8,18.36ZM499.3,463.82c.31.14.62.27.93.41,3.99-8.87,7.97-17.75,11.94-26.58-.85.27-1.91.67-1.94.6-.77-1.68-2.04-3.46-1.9-5.1.1-1.18,2.13-2.19,3.39-3.37-.09-.09-.59-.59-.55-.54-1.76.25-3.23.9-4.08.44-.74-.4-1.15-2.11-1.05-3.19.23-2.69-.23-5.95,3.72-6.65.17-.03.23-.64.36-1.07-1.49.08-2.74.15-4.11.22-.43,3.08-.95,6.81-1.52,10.87-.07-.04,1.06.23,1.36.88,1.35,2.96,2.52,6.01,3.61,9.08.2.57-.2,1.44-.48,2.1-1.94,4.57-3.9,9.14-5.9,13.69-1.21,2.76-2.51,5.49-3.76,8.23ZM425.02,341.53c-9-7.97-27.32-4.92-32.81,5.49,9.34-11.51,20.85-9.58,32.81-5.49ZM590.77,316.51c-.1-.35-.2-.7-.31-1.06l-20.45,7.28c.06.18.12.37.18.55,6.86-2.26,13.71-4.51,20.57-6.77ZM447.6,339.02c-2.5-2.8-6.71-1.63-10.13-4.24,2.62,3.83,4.74,4.74,10.13,4.24ZM511.63,462.87c.19.06.37.11.56.17,1.32-4.25,2.65-8.49,3.97-12.74-.19-.06-.39-.12-.58-.18-1.32,4.25-2.63,8.5-3.95,12.75ZM417.8,326.38c-.14.25-.28.49-.42.74,3,1.7,6,3.39,9,5.09.12-.22.24-.43.36-.65-2.98-1.73-5.96-3.45-8.94-5.18ZM334.32,369.17c-.15-.21-.3-.42-.44-.63-2.61,1.81-5.23,3.63-7.84,5.44l.54.76c2.58-1.86,5.17-3.72,7.75-5.58ZM156.8,429.23c1.07,2.03,2.04,3.89,3.12,5.94-.32-5.28-.94-6.33-3.12-5.94ZM536.65,418.68c.04-.44.07-.66.06-.66-3.4-.62-6.8-1.23-10.19-1.83-.04.25-.08.5-.13.75,3.38.58,6.77,1.15,10.26,1.75Z"/>
  <path d="M327.52,445.74c-1.6,2.92-2.46,5.87-4.38,7.7-3.73,3.56-7.72,7.16-12.24,9.51-4.11,2.14-9.05,2.68-13.66,3.8-.57.14-1.37-.41-2-.76-2.96-1.64-5.97-3.22-8.79-5.07-.74-.48-1.44-2.02-1.22-2.81,1.24-4.61,4.15-8.32,8.26-10.43,7.69-3.96,15.66-7.38,23.55-10.95,1.95-.88,3.8-.38,5.09,1.36,1.78,2.4,3.45,4.88,5.39,7.66Z"/>
  <path d="M353.29,423.71c-.9,1.45-1.52,3.23-2.76,4.28-4.37,3.67-8.93,7.12-13.49,10.57-.98.75-2.18,1.34-3.37,1.67-3.38.93-6.6,1.8-8.71-2.58-1.05-2.19-3.49-3.67-4.98-5.7-4.18-5.68-3.01-11.37,3.03-15.07,4.6-2.82,9.81-3.21,15.02-3.15,2.52.03,5.04.49,7.54.9,5.4.89,7.35,3.3,7.72,9.1Z"/>
  <path d="M131.68,416.59c-.99,1.89-1.99,3.78-2.98,5.68-.34.65-.97,1.35-.91,1.97.4,3.8-1.7,3.19-4.08,2.56-2.65-.7-5.42-1-7.99-1.89-.96-.33-2.02-1.77-2.15-2.82-.49-3.98,1.91-6.75,5.01-8.49,2.7-1.52,5.84-2.39,8.88-3.12,2.28-.54,3.67,1.88,4.22,6.11Z"/>
  <path d="M335.41,469.24c1.93-1.16,2.51-4.68,5.95-3.2-.78-4.35,5.16-7.91,11.65-6.75-2.51,6.25-7.57,10.08-12.8,13.51-.83.54-3.37-1.54-5.12-2.41l.31-1.15Z"/>
  <path d="M328.7,459.13c1.58,4.16-.63,7.5-6.62,9.84-.41-1.26-.71-2.57-1.25-3.77-1.19-2.64-1.08-5.09,1.55-6.6,2.1-1.2,4.52-1.9,6.42.64l-.1-.11Z"/>
  <path d="M294.28,467.51c-5.15.9-10.3,1.81-15.45,2.71-.14-.23-.29-.46-.43-.68,1.94-2.65,3.89-5.31,5.91-8.06,3.52,1.76,6.85,3.41,10.17,5.07-.06.32-.12.64-.19.96Z"/>
  <path d="M318.31,462.04c.61,1.55,1.21,3.01,1.74,4.49,1.2,3.35.53,4.65-2.97,5.85-2.28.78-4.83-.63-5.71-3.13-.64-1.83-.36-3.28,1.52-4.24,1.77-.9,3.48-1.9,5.42-2.97Z"/>
  <path d="M349.46,455.26c-.51-.65-2.32-2.54-2.12-2.77,1.54-1.85,3.47-3.39,5.27-5.03,1.19,1.47,2.84,2.77,3.44,4.45.56,1.56-2.79,3.44-6.59,3.35Z"/>
  <path d="M382.57,430.44c-1.15-.38-2.3-.76-4.26-1.42,2.69-1.76,4.65-3.04,7.06-4.61.48,2.02.89,3.78,1.31,5.55-.3-.08-.6-.16-.9-.24-.69,1.11-1.21,2.42-2.13,3.29-.97.92-2.3,1.5-3.57,2.01-.18.07-1.37-1.59-1.25-1.74.69-.84,1.63-1.49,2.54-2.12.3-.21.77-.15,1.17-.21.01-.16.02-.33.03-.49Z"/>
  <path d="M355.17,428.72c-.08,1.75-.16,3.51-.27,5.7-1.51.47-2.89,1.31-2.7,4.18.17,2.57-2.2,2.85-4.39,1.99,0,0-.13-.19-.13-.19-.41-1.27-.82-2.55-1.4-4.32,1.44-.13,2.75-.24,3.4-.3,1.94-2.5,3.71-4.77,5.48-7.04v-.02Z"/>
  <path d="M334.05,442.84c1.81,5.35.04,6.3-3.7,7.48-1.73.54-2.77-.08-2.54-2.28.47-4.5.92-4.96,6.24-5.2Z"/>
  <path d="M367.59,438.05c2.76-1.48,5.52-2.96,8.49-4.54,1.11,2.9,1.19,6.04-.93,6.92-2.04.84-4.98-.49-7.52-.87-.01-.5-.03-1.01-.04-1.51Z"/>
  <path d="M387.1,414.06c1.45-.92,2.68-1.83,4.01-2.52.8-.42,2.5-.83,2.56-.69.63,1.41,1.48,2.99,1.29,4.4-.14,1.09-1.66,2.01-2.64,1.96-1.11-.11-2.23-.21-3.77-.36-.39-.74-.99-1.91-1.45-2.79Z"/>
  <path d="M390.88,419.33c1.79,1.88,3.05,3.21,4.31,4.53.38-.09.76-.18,1.15-.26-.77,1.32-1.5,3.73-2.3,3.76-1.91.06-3.85-1.01-5.78-1.62.84-2.04,1.68-4.08,2.63-6.4Z"/>
  <path d="M334.93,457c0-2.06-.57-4.35.16-6.1.76-1.84,2.84-2.98,5.2-2.26.84,4.08-1.45,6.39-4.2,8.47-.39-.03-.77-.07-1.16-.1Z"/>
  <path d="M365.81,430.75c2.47-.7,4.58-1.49,6.75-1.79.63-.08,1.45,1.26,2.18,1.95-.7.61-1.38,1.24-2.1,1.83-.24.19-.66.19-.84.41-2.92,3.63-4.13.89-6-2.41Z"/>
  <path d="M395.46,408.32c1.07-.72,1.84-1.1,2.44-1.67.5-.47.79-1.14,1.19-1.74,5.12,4.11,5.1,5.03-.17,7.64-1.08-1.32-2.18-2.67-3.46-4.23Z"/>
  <path d="M354.73,446.84c1.92-3.53,3.74-4.47,6.15-2.81.64.44,1.09,2.29.71,2.84-.77,1.09-2.21,2.39-3.32,2.35-1.2-.04-2.35-1.52-3.53-2.38Z"/>
  <path d="M330.24,464.78c1.23,1.53,1.95,2.44,2.68,3.35-1.78,1.39-3.52,2.83-5.4,4.06-.16.1-1.91-1.7-1.82-1.83,1.27-1.78,2.73-3.42,4.55-5.58Z"/>
  <path d="M328.8,459.24c-.87-3.12.83-4.68,3.59-5.4,2.89,5.62,2.82,6.05-1.6,7.5-.67-.71-1.38-1.45-2.09-2.2,0,0,.1.1.1.1Z"/>
  <path d="M339.26,463.05c-1.71,1.68-3.26,3.19-4.93,4.82-.8-1.45-1.57-2.83-2.31-4.17,3.83-4.24,4.51-4.31,7.24-.65Z"/>
  <path d="M359.64,437.96c.67-1.74.98-3.41,1.93-4.56.39-.48,2.42-.2,3.19.4.71.55,1.28,2.23.95,2.99-1.13,2.57-3.51,2.86-6.06,1.18Z"/>
  <path d="M396.24,389.23c1.7-.62,3.31-1.32,4.98-1.75.52-.13,1.44.35,1.78.83.24.33-.07,1.22-.36,1.73-2.32,4.13-3.31,4.04-6.4-.81Z"/>
  <path d="M396.68,399.07c2.39-1.15,4.79-2.31,7.22-3.48-2,7.15-2.36,7.4-7.22,3.48Z"/>
  <path d="M363.84,446.62c2.66-2.41,5.14-4.3,8.72-3.41-1.52,3.8-2.9,4.36-8.72,3.41Z"/>
  <path d="M137.75,427.84c-.07.29-.08.79-.24.85-2.64.96-5.24,2.38-7.96,2.64-3.19.3-1.64-2.17-1.58-3.52,1.51-.16,2.8-.26,4.07-.45,1.16-.17,2.43-1.12,3.13.84.07.2,1.73-.15,2.65-.26,0,0-.08-.11-.08-.11Z"/>
  <path d="M341.72,440.93c.83,4.48.21,5.32-4.12,5.52-1.17-3.68-.03-5.21,4.12-5.52Z"/>
  <path d="M355.65,422.98c-.78-2.1-1.44-3.91-2.18-5.89,2.3-.7,4.28-1.02,5.19,1.22.86,2.11-.52,3.45-3.02,4.67Z"/>
  <path d="M129.58,435.71c1.47-1.8,2.52-3.3,3.82-4.55.43-.42,2.05-.44,2.17-.18.41.85.87,2.32.45,2.82-1.37,1.65-2.95,3.43-6.44,1.91Z"/>
  <path d="M377.91,422.7c-1.41,1.63.18,4.95-3.25,4.53-.98-.12-2.66-2.04-2.48-2.76.67-2.72,3.01-2.21,5.73-1.76Z"/>
  <path d="M378.34,411.66c.37,2.23.73,4.47,1.14,6.96-1.44.3-2.56.53-4.46.93.95-1.43,1.41-2.12,1.99-2.99-.66-.21-1.18-.37-1.4-.44.7-1.56,1.37-3.06,2.04-4.56.23.04.46.07.69.11Z"/>
  <path d="M342.13,448.25c1.88-2.26,3.56-3.68,5.81-1.88.23.18-.85,2.65-1.81,3.54-2.45,2.29-2.47-1.13-4-1.66Z"/>
  <path d="M373.21,415.34c.32.73.71,1.64,1.18,2.72h-1.44c.2.18.4.37.61.55-.64.94-1.27,1.88-1.91,2.83-.67-.79-1.41-1.53-1.94-2.39-.12-.2.41-.93.77-1.28.86-.84,1.8-1.6,2.73-2.42Z"/>
  <path d="M403.04,376.88c-.37-.08-1.27-.27-2.9-.62,1.54-1.01,2.43-1.59,3.2-2.1,1.05.76,1.99,1.43,2.56,1.84.19.93.33,1.64.52,2.57-.67.28-1.77.74-3.57,1.49.06-1.07.12-2.06.19-3.18Z"/>
  <path d="M355.16,428.74c.78-.38,1.57-.77,2.35-1.15-.06.3-.13.6-.19.9,1.53.33,3.05.66,5.4,1.18.29,1.95-3.13,1.56-3.98,3.2.15-.82.3-1.64.49-2.73-.76.33-1.44.63-2.28,1-.58-.78-1.18-1.59-1.79-2.41,0,0,0,.01,0,.01Z"/>
  <path d="M415.1,381.02c-1.18-.44-2.36-.87-3.81-1.41-.17.25-.63.91-1.25,1.81-.69-.29-1.41-.59-2.04-.86-.41-1.81,3.36-3.63,4.99-2.51.87.6,1.59,1.43,2.38,2.15-.09.27-.17.55-.26.82Z"/>
  <path d="M409.49,395.21c-.68.9-1.27,1.68-1.85,2.45-.25-.18-.51-.36-.76-.53.82-1.27,1.65-2.55,2.54-3.92,1.71.63,3.28,1.2,5.16,1.88-1.61.93-2.46,1.43-3.61,2.09-.23-.31-.72-.96-1.48-1.97Z"/>
  <path d="M382.42,422.42c.51-.9.79-1.4,1.2-2.13-.85-.3-1.6-.56-2.86-.99,1.12-.94,2.12-2.4,2.92-2.3,1.25.16,2.35,1.39,3.77,2.33-1.87,1.14-3.2,1.96-5.04,3.09Z"/>
  <path d="M367.51,419.14c.34,1.47.62,2.67.93,4.04-1.49.4-2.89,1.21-3.31-1.49-.16-.99-1.56-1.78-2.06-2.31,1.3-.07,2.85-.15,4.44-.24Z"/>
  <path d="M358.93,425.84c1.72-.26,3.44-.52,5.38-.82.17.84.52,1.65.43,2.41-.05.47-.93,1.3-1.17,1.21-1.53-.56-2.99-1.33-4.47-2.03l-.16-.77Z"/>
  <path d="M347.68,440.4s.13.19.13.19q.03,2.13-2.72,3.22c-.14-1.8-.27-3.57-.43-5.61,1.19.86,2.11,1.53,3.02,2.19Z"/>
  <path d="M389.08,403.46c-1.13,1.43-2.26,2.85-3.67,4.63-.69-3.89.08-5.07,3.67-4.63Z"/>
  <path d="M338.98,461.13c.52-1.29.78-2.81,1.66-3.75.39-.42,2.03.3,3.64.62-1.89,1.49-3.07,2.42-4.25,3.35-.35-.07-.7-.14-1.05-.21Z"/>
  <path d="M353.43,439.3c1.53-1.63,2.43-2.58,3.32-3.52.28.09.56.18.84.27-.26,1.61-.53,3.22-.79,4.83-.96-.45-1.91-.9-3.37-1.58Z"/>
  <path d="M391.17,402.13c1.19-.23,2.47-.47,3.8-.73.27.88.51,1.68.8,2.66-2.2,1.08-4.06,1.5-4.6-1.93Z"/>
  <path d="M353.91,443.4l-3.11,2.44c-.31-.16-.62-.31-.93-.47.38-.99.51-2.33,1.23-2.88.64-.49,1.94-.1,2.95-.1l-.15,1.01Z"/>
  <path d="M132.93,422.03c.26,1.09.51,2.18.79,3.34-.84.38-2.01.92-3.19,1.45l-.58-.44c.75-1.63,1.49-3.25,2.24-4.88.25.18.49.35.74.53Z"/>
  <path d="M405.76,403.28c.73.99,1.46,1.98,2.19,2.96l-.39.72c-1.39-.85-2.78-1.71-4.17-2.56,0-.24.02-.47.03-.71.8-.11,1.6-.22,2.4-.33,0,0-.06-.08-.06-.08Z"/>
  <path d="M390.23,409.66c-1.61.66-3.22,1.39-4.88,1.95-.29.1-.92-.4-1.18-.77-.15-.21,0-.92.24-1.06.65-.39,1.41-.85,2.11-.83,1.22.05,2.42.44,3.72.71Z"/>
  <path d="M402.15,383.11c1.72-.37,3.45-.75,5.48-1.19q-.82,2.95-5.48,1.19Z"/>
  <path d="M334.1,318.18c-5.57-6.03-4.76-24.85-.36-33.01-2.53,10.82-2.99,21.64.36,33.01Z"/>
  <path d="M308.21,316.86c-1.72,8.91-3.44,17.82-5.18,26.73-.07.37-.3.72-.73.99.51-9.56,2.27-18.84,5.91-27.72Z"/>
  <path d="M366.74,272.83c1.38,6.82,3.9,13,9.28,18.15-5.42-1.97-9.87-10.83-9.28-18.15Z"/>
  <path d="M238.44,356.68c1.45-3.24,3.07-6.41,4.31-9.72,3.72-9.9,7.17-19.9,10.97-29.76,3.51-9.12,8.28-17.57,14.71-25.05-1.98,3.43-4.38,6.69-5.88,10.31-4.24,10.25-7.91,20.73-12.2,30.95-3.37,8.02-7.34,15.79-11.05,23.68-.29-.13-.58-.27-.87-.4Z"/>
  <path d="M367.53,338.87c7.72-7.64,16.63-13.57,26.69-17.76,7.08-2.95,14.26-5.62,22.06-4.92,4.12.37,8.17,1.65,12.25,2.52l-.24,1.05c-2.26-.57-4.51-1.2-6.79-1.71-8.9-1.96-17.18.64-25.4,3.57-9.68,3.46-18.19,8.93-26.14,15.34-.8.65-1.62,1.27-2.43,1.9Z"/>
  <path d="M424.92,311.35c3.41-1.54,6.77-3.06,10.36-4.68-1.15.92-2.09,1.67-3.03,2.42.11.32.22.64.33.96,3.5-.73,7-1.47,10.73-2.25-.65.84-1.32,2.51-2.52,3.09-1.84.88-4.04,1.38-6.08,1.37-3.32-.02-6.64-.58-9.78-.9Z"/>
  <path d="M353.17,354.56c-6.16,14.61-6.13,15.24,1.05,21.27-7.07-.76-9.76-5.48-6.62-11.68,1.24-2.46,2.57-4.87,3.92-7.27.46-.82,1.09-1.55,1.65-2.32Z"/>
  <path d="M428.6,323.01c6-.13,11.9,6.28,17.74-.58.27.2.53.4.8.59-.57,1.09-.87,2.57-1.76,3.17-1.5,1.02-3.68,2.43-5.05,1.99-4.05-1.29-7.84-3.39-11.73-5.18Z"/>
  <path d="M440.14,315.42c-.59-.24-1.19-.48-1.06-.43,4.28-3.22,8.62-6.49,12.53-9.43-1.56,2.15-3.46,4.98-5.6,7.61-.55.67-1.88.7-2.84,1.06-1.04.39-2.07.83-3.11,1.25,0,0,.08-.06.08-.06Z"/>
  <path d="M443.31,320.65c.27.22.55.44.82.65-1.64.57-3.3,1.69-4.91,1.61-3.61-.17-7.19-.94-10.78-1.47.08-.42.16-.83.24-1.25,2.6.61,5.19,1.61,7.81,1.7,2.29.08,4.61-.85,6.92-1.33,0,0-.09.08-.09.08Z"/>
  <path d="M471.4,342.12c-1-.44-2.42-.6-2.92-1.36-1.49-2.32-2.62-4.87-3.89-7.34.23-.14.45-.28.68-.42,2.02,3.07,4.04,6.13,6.07,9.19,0,0,.06-.07.06-.07Z"/>
  <path d="M456.18,328.57c-1.25.7-2.5,1.41-3.79,2.03-.06.03-.56-.87-.85-1.34l3.83-2.14c.27.48.54.96.81,1.45Z"/>
  <path d="M198.59,347.74c-2.99,8.37-5.99,16.74-8.8,24.59-.01-.14-.34-1.21-.16-2.18,1.52-8.05,5.12-15.28,8.96-22.41Z"/>
  <path d="M587.82,265.71c.29,1.82.59,3.64.91,5.67,1.2-1.46,1.9-2.85,3.02-3.5,1.03-.6,2.52-.4,3.81-.56.09,1.28.69,2.85.16,3.79-1.43,2.54-2.99,5.21-5.13,7.13-8.21,7.39-23.07,5.96-29.53-2.88-2.08-2.85-3.14-6.43-4.85-9.57-.55-1.01-1.71-1.7-2.56-2.55-.54-.55-1.19-1.07-1.52-1.73-.32-.63-.33-1.43-.43-2.17q-.83-6.43,5.29-8.55c3.59-1.24,7.1-2.83,10.79-3.63,2.66-.58,5.56-.11,8.35-.11.15.43.29.86.44,1.29-1.05.78-2.01,1.75-3.17,2.29-3.25,1.51-6.63,2.76-9.88,4.28-1.28.6-2.91,1.46-1.17,3.3.4.4.8,1.14,1.2,1.14,8.01.04,12.91,5.06,17.42,10.74,1.06,1.34,2.17,2.63,3.26,3.95.21-.23.43-.45.64-.68-3.12-12.49-10.53-17.43-22.6-15.07.67-1.47.88-3.44,3.41-1.66.92.65,2.66.06,4.02.18,5.93.5,10.39,3.34,13.2,8.6,1.61,3.01,3.02,6.13,4.89,9.96-.95-6.85-1.73-12.84-6.69-17.8,3.14-1.16,4.91-.23,6.56,2.27-1.19.18-2.06.31-3.11.46,1.16,1.92,2.25,3.71,3.33,5.49l-.06-.07ZM558.59,262.57c.5,9.09,8.58,15.89,18.43,15.63-9.33-1.47-14.39-7.89-18.43-15.63Z"/>
  <path d="M565.71,298.66c1.94-7.22,6.05-11.89,13.6-12.89.52-.07,1.04-.21,1.56-.29,8.87-1.37,14.78-6.15,17.81-14.74,1.77-5.02,7.46-6.98,12.51-4.74-.01.28.09.66-.06.88-5.53,8.63-10.42,17.88-21.12,21.45-5.27,1.76-10.07,4.3-14.21,8.17-2.79,2.6-6.38,2.9-10.1,2.17Z"/>
  <path d="M580.01,247.77c11.19.52,21.69,3.77,31.86,8.05,0,.53.03.74,0,.94-.78,4.43-3.13,6.82-7.9,6.09-.39-.06-.84.11-1.24.23-4.35,1.2-7.84.41-10.71-3.52-2.65-3.61-6.22-6.29-10.63-7.74-2.31-.76-2.25-.94-1.37-4.05Z"/>
  <path d="M532.23,272.48c4.47-1.95,8.33-4.58,13.43-3.15.17-.55.18-1.27.55-1.62,1.2-1.13,2.77-3.16,3.76-2.94,1.88.43,4.19,1.81,5.04,3.45,2.3,4.45,1.79,5.49-2.73,7.57-4.09,1.88-8.26,3.59-12.47,5.19-2.04.78-3.63.04-4.52-2.17-.82-2.04-1.9-3.97-3.06-6.33Z"/>
  <path d="M533.76,267.91c-1.24-3-2.17-5.56-3.34-8.01-.89-1.86-.56-3.18,1.38-3.69,4.98-1.3,10-2.47,15.03-3.59.56-.12,1.79.38,1.83.71.37,2.82,1,5.73.56,8.46-.19,1.16-2.61,2.28-4.22,2.84-3.66,1.28-7.45,2.2-11.24,3.29Z"/>
  <path d="M521.21,272.03c7.2-.15,9.1,1.5,11.6,9.01.24.73-.22,2.2-.84,2.63-6.09,4.18-14.74,1.01-16.91-6.09-1.2-3.93-.26-5.29,3.87-5.54.95-.06,1.9,0,2.29,0Z"/>
  <path d="M541.39,305.04c-6.26.25-16.96-9.34-19.79-16.93,3.41,0,6.63-.18,9.8.1,1.04.09,2.38,1.15,2.89,2.13,2.4,4.64,4.57,9.4,7.1,14.7Z"/>
  <path d="M514.98,269.81c-2.24-4.55-1.43-7.05,3.03-9.11.86-.4,1.75-.75,2.66-1.03,5.28-1.61,9.04,1.09,9.51,6.69.16,1.9-.45,2.78-2.42,2.73-2.75-.07-5.51-.11-8.25,0-1.42.05-2.83.44-4.53.72Z"/>
  <path d="M553.61,288.83c-5.9,4.56-14.35,2.85-16.07-3.17,3.14-1.17,6.26-2.45,9.48-3.43.68-.21,1.95.44,2.51,1.08,1.45,1.66,2.64,3.54,4.09,5.53Z"/>
  <path d="M566.73,292.65c-2.36,2.62-4.25,5.32-6.75,7.25-1.18.91-4.79.95-5.06.35-.93-2.02-1.51-4.66-.99-6.77.46-1.88,2.52-3.31,5.09-2.6,2.19.61,4.44,1.03,7.7,1.76Z"/>
  <path d="M540.92,295.13c8.72-.84,8.42-.2,10.48,7.23.18.66-.73,2.32-1.2,2.35-1.86.11-4.73.44-5.43-.57-1.76-2.53-2.54-5.74-3.85-9.02Z"/>
  <path d="M558.45,287.41c1.78-2.11,3.51-4.16,5.27-6.25,2.04,1.44,3.9,2.75,5.74,4.05-1.71,4.83-5.22,5.6-11.01,2.2Z"/>
  <path d="M558.09,284.66c-3.4,3.94-3.8,3.92-6.45-.32-.71-1.13-1.39-2.28-2.24-3.69,1.36-.65,2.47-1.18,3.84-1.83,1.61,1.94,3.24,3.9,4.85,5.84Z"/>
  <path d="M617.82,270.06c-1.53-2.59-3.06-5.18-4.78-8.07,4.04-.36,6.23,3.18,5.64,7.68-.29.13-.58.26-.86.39Z"/>
  <path d="M559.92,281.98c-1.85-1.76-3.28-3.13-4.98-4.75.9-.7,1.75-1.36,2.83-2.19,1.44,2.1,4.31,3.39,2.15,6.94Z"/>
  <path d="M580.62,253.26c-.64,1.25-1.05,2.05-1.66,3.24-1.75-.85-3.45-1.69-5.15-2.52.06-.34.12-.68.17-1.02,2.04.09,4.08.18,6.64.3Z"/>
  <path d="M587.87,265.79c.56-1.06.89-2.47,1.77-3.03.51-.33,1.9.72,3.4,1.36-2.04,1.68-3.23,3.16-5.23,1.59,0,0,.06.07.06.07Z"/>
  <path d="M390.76,336.84c-2.94,3.52-5.89,7.04-8.83,10.55l-.57-.48c2.95-3.51,5.91-7.02,8.86-10.53.18.15.36.3.54.45Z"/>
  <path d="M374.18,366.59c-.66-5.56-.24-8.06,2.1-11.77-.76,4.1-1.47,7.89-2.17,11.69,0,0,.07.08.07.08Z"/>
</svg>