<?xml version="1.0" encoding="UTF-8"?>
<svg id="Capa_1" xmlns="http://www.w3.org/2000/svg" viewBox="0 0 700 700">
  <path d="M530.05,331.63c.15-6.54-.22-13.13.53-19.6,2.25-19.26,5.48-38.42,7.28-57.72,1.53-16.35,1.69-32.83,2.27-49.26.46-13.15.68-26.31.94-39.46.1-5.13.02-10.26.02-15.39.52-.05,1.03-.09,1.55-.14.56,9.78,1.12,19.56,1.75,30.4,2-2.46,3.8-4.09,4.89-6.11,5.19-9.64,14.58-12.43,24.06-15.15,8.88-2.55,18.06-4.39,26.52-7.95,5.12-2.15,9.93-6.33,13.45-10.73,8.6-10.75,12.6-23.46,13.18-37.98-2.65.52-5.15.61-7.32,1.51-10.18,4.22-20.34,7.5-31.64,8.37-5.54.43-10.59-.82-15.84-.93-12.28-.24-22.85,3.41-32.34,10.82-1.54,1.2-3.37,2.64-3.95,4.35-1.58,4.61-3.91,2.96-5.67.72-4.25-5.42-9.86-6.07-16.1-5.67-11.7.75-23.24-.63-34.42-4.05-4.47-1.37-8.56-4.02-12.9-6.13-4,14.2,2.64,31.98,15.15,38.16,9.1,4.5,19.09,7.16,28.59,10.87,4.05,1.58,7.86,3.77,11.94,5.76.29-1.59.82-4.55,1.36-7.51.52-.08,1.03-.15,1.55-.23.3,1.54,1.13,3.21.81,4.61-2.28,9.99-4.46,20.02-7.33,29.85-4.09,13.99-8.32,27.96-13.31,41.64-2.82,7.71-7.28,14.82-11.19,22.6.45.77,1.32,2.24,2.56,4.37-8.78-.31-11.1-6.75-15.1-12.44-4.44,7.22-8.87,13.8-12.66,20.73-3.77,6.9-7.45,13.94-10.17,21.29-2.61,7.06-3.94,14.59-5.83,21.92-.83-.12-1.65-.24-2.48-.36v-11.31c-.21.12-.42.24-.62.36,1.19-3.12,2.26-6.3,3.59-9.36,1.77-4.08,3.45-8.23,5.68-12.06,5.97-10.24,12.11-20.39,18.45-30.41,1.27-2,3.73-3.23,5.65-4.82,1.43,1.98,2.93,3.91,4.28,5.95.83,1.26,1.43,2.68,2.14,4.02l1.67.24c3.1-6.31,6.92-12.37,9.17-18.96,6.53-19.12,12.45-38.46,18.55-57.72,1.9-6.01-2.32-12.32-8.29-14.18-9.88-3.08-20.08-5.81-29.2-10.52-12.31-6.36-18.62-17.54-19.15-31.59-.14-3.82-.11-7.67.28-11.47.32-3.2,1.85-4.84,5.41-2.88,9.75,5.35,20.3,8.13,31.33,9.05,6.93.58,13.97.3,20.8,1.41,4.43.72,8.55,3.28,12.59,4.92,5.86-3.84,12.18-9.06,19.36-12.38,7.65-3.53,16.17-3.35,24.78-3.11,12.82.36,25.86-.01,37.96-5.75,3.4-1.61,7.15-2.52,10.79-3.61,2.91-.87,4.91.49,4.56,3.4-1.87,15.64-4.03,31.02-16.11,43.12-7.12,7.13-15.57,10.87-24.78,13.68-9.15,2.79-18.48,5.08-27.39,8.49-3.56,1.36-6.29,5.03-9.24,7.83-2.51,2.38-4.97,4.87-7.08,7.6-.87,1.13-1.02,3.01-1.06,4.56-.46,17.96-.08,35.98-1.46,53.87-1.34,17.27-4.57,34.39-6.78,51.6-1.2,9.3-1.82,18.68-3.08,27.97-.5,3.67-2.01,7.2-3.07,10.8,0,0,.13.08.13.08Z"/>
  <path d="M142.08,492.77c5.37,5.01,10.43,10.41,16.22,14.89,3.73,2.88,8.52,4.4,12.84,6.53.33-.42.66-.84.99-1.27-9.23-9.88-18.47-19.77-27.7-29.65.36-.36.72-.72,1.09-1.08,3.59,3.43,7.36,6.68,10.72,10.33,6.37,6.92,12.1,14.49,18.9,20.92,3.23,3.05,8.31,4.18,12.6,6.05,1.61.71,3.37,1.08,5.13,1.62-.73,1.18-1.33,2.15-1.93,3.1,0-.02.08-.17.08-.17-11.9-3.87-24.24-6.75-35.6-11.84-15.63-7.01-32.75-12.04-44.9-24.95-6.04-6.41-13.74-8.63-20.87-12.51-6.19-3.38-10.16-8.96-12.45-15.66-.25-.74-.26-1.92-.76-2.18-4.34-2.22-3.8-5.63-2.77-9.44.27-.99-.31-2.61-1.07-3.39-3.56-3.66-3.48-5.91.17-9.88,1.93-2.1,3.17-4.84,5.11-6.93,4.19-4.51,8.62-8.81,13.01-13.13.39-.38,1.29-.43,1.92-.36,8.41.93,13.46-5.14,19.58-9.12,1.59-1.03,4.19-1.2,6.15-.82,3.03.59,5.81,2.66,8.03-1.65.5-.97,3.43-.69,6.64-1.21q-11.46,8.33-17.09,5.77c-4.55,2.98-8.85,5.8-13.34,8.73.64.3,1.48.96,1.76.77,6.53-4.38,12.94,1.07,19.66.28,6.41-.75,13.19,2.48,19.89,3.2,5.51.59,11.15-.08,16.72.03,8.23.16,16.47.43,24.69.79,6.63.29,13.25,1.16,19.87,1.13,11.6-.04,22.31,3.22,33.41,6.25,11.79,3.23,22.67,8.02,33.64,12.93,11.3,5.06,19.98,13.48,28.21,22.43,3.36,3.66,6.11,8.09,10.02,10.99,4.26,3.16,9.49,5.03,14.36,7.33,7.18,3.39,14.05,2.35,20.87-1.37,2.23-1.21,4.95-1.52,7.58-1.62-8.65,6.36-17.09,9.91-28.69,6.66-13.39-3.75-21.2-13.13-29.99-22.21-8.91-9.21-18.84-17.12-31.2-21.47-9.81-3.45-19.37-7.75-29.34-10.58-8.5-2.41-17.39-3.88-26.21-4.66-12.56-1.12-25.21-1.24-37.82-1.75-2.15-.09-4.32-.15-6.45.08-11.28,1.21-22.13-.51-32.89-3.94-3.12-1-6.8-.3-10.22-.33-.82,0-1.67.29-2.47.19-6.7-.8-13.46-1.35-20.08-2.6-3.94-.74-6.44-.19-8.75,3.36-1.67,2.56-4.71,4.18-6.87,6.47-.98,1.04-1.3,2.7-1.91,4.08,1.34.54,2.64,1.23,4.03,1.57.66.16,1.48-.35,2.44-.02-3.56,3.83-11.43-1.62-13.24,6.46,4.63,2.06,4.73,5.9,3.62,10.54-.3,1.27,2.5,3.11,2.47,4.66-.12,5.35,3.85,8.2,6.48,11.85,1.66,2.3,3.02,5.24,6.95,4.1.72-.21,1.9,1.03,2.82,1.68,12.51,8.72,25.01,17.46,37.85,25.81-10.66-12.26-23.15-22.88-32-37.79,5.11,3.1,8.56,6.5,10.49,11.39.47,1.18,1.07,2.44,1.95,3.31,7.36,7.29,14.5,14.83,22.32,21.58,4.3,3.71,9.79,6.03,14.74,8.98.38-.5.76-1,1.15-1.49-2.72-2.42-5.57-4.71-8.08-7.32-1.13-1.18-1.6-3-2.37-4.52,0,0-.1.11-.1.11Z"/>
  <path d="M275.71,536.73c2.25,3.78,5.39,5.32,9.93,4.88,4.6-.44,9.28-.1,13.36-.1-25.58-13.07-47.75-31.09-65.84-54.22,2.62,2.16,5.39,4.18,7.84,6.52,5.56,5.3,10.96,10.76,16.45,16.13,1.52,1.49,3.22,2.82,4.68,4.36,5.27,5.55,10.39,11.19,18.58,12.5,1.65.26,3.66,1.39,4.57,2.75,6.41,9.54,16.32,9.78,26.14,10.01,4.1.1,8.23-.66,12.48-1.58-1.31-.36-2.61-.72-3.92-1.07,12.14,1.47,21.78-4.93,32.31-10.1-.8-.17-1.6-.33-2.4-.5.25-.4.49-.8.74-1.2,12.29,2.27,19.85-8.13,31.24-10.15-9.98-6.48-19.16-9.27-29.64-4.27-11.65,5.56-23.77,4.69-35.78,1.1-1.55-.46-2.68-2.31-4-3.51l-.08.12c7.54,1.49,15.11,4.25,22.62,4.11,6.85-.12,13.7-3.18,20.44-5.3,7.02-2.21,13.42-2.13,19.91,2.08,4.17,2.71,9.11,5.23,13.78.15.35-.38,1.38-.13,2.09-.17,0,0-.14.25-.14.25-.39.99-.49,2.47-1.21,2.89-5.63,3.33-11.24,6.71-17.11,9.58-9.5,4.64-19.02,9.3-28.84,13.17-8.05,3.17-16.46,5.51-24.86,7.66-14.95,3.82-30.28,2.35-45.48,2.52-2.91.03-6.05.01-6.62-4.37,2.78.2,5.64.41,8.69.63v-4.93l.02.05Z"/>
  <path d="M391.1,509.52s.14-.25.14-.25c-1.4-1.62-2.64-3.42-4.23-4.81-4.37-3.81-8.94-7.4-13.3-11.23-.61-.54-.49-1.91-.71-2.9,0,0-.14.19-.14.19,3.02,1.93,6.05,3.84,9.04,5.8,12.66,8.32,25.26,16.71,37.97,24.96,4.1,2.66,8.22,5.49,12.72,7.28,7.79,3.11,15.72,6.23,23.88,7.98,18.15,3.88,36.31,8.54,55.12,7.31,17.71-1.15,34.41-6.11,49.84-14.95,6.7-3.84,13.18-8.06,19.76-12.11.36.34.72.67,1.08,1.01-2.48,2.06-4.89,4.2-7.45,6.15-16.31,12.44-35.51,18.52-55.07,22.29-11.27,2.17-23.45.68-35.09-.46-10.44-1.03-20.89-3.16-31.01-5.99-18.25-5.1-35.11-13.37-50.51-24.58-3.52-2.56-7.99-3.82-12.03-5.67Z"/>
  <path d="M408.14,454.81c1.3,2.31,3.41,4.52,3.72,6.95.7,5.57,5.15,10.53,10.7,11.77,7.69,1.73,15.24,4.1,22.89,6.02,1.16.29,2.87,0,3.81-.7,4.63-3.46,9.03-7.24,13.62-10.76,7.66-5.88,15.48-11.54,23.06-17.5,3.21-2.53,6.83-5.1,8.83-8.5,7.43-12.61,16.75-24.46,20.25-38.92,3.26-13.43,4.92-27.25,7.29-40.9.08-.46.25-.9,1.75-1.85.4,1.23,1.32,2.56,1.13,3.69-2.55,14.94-3.86,30.3-8.37,44.64-3.46,11-10.64,20.95-16.83,30.96-8.13,13.13-20.64,21.65-33.28,29.95-5.09,3.34-9.68,7.45-14.89,11.52,2.87,2.04,5.35,3.8,7.84,5.57-.2.32-.41.63-.61.95-5.6-1.95-11.13-4.17-16.83-5.79-6.89-1.95-13.85-3.87-20.91-4.89-5.19-.75-13.75-9.8-13.14-15.15.22-1.94.09-3.93.11-5.89-.04-.39-.09-.78-.13-1.17Z"/>
  <path d="M162.2,487.29c5.61-.33,7.37,4.44,9.39,7.95,3.51,6.08,7.64,10.84,14.23,13.88,3.66,1.69,6.84,5.11,9.36,8.42,4.87,6.39,11.1,10.75,18.03,14.45,1.63.87,2.68,2.78,4.22,3.91.73.53,2.12.69,2.98.38,1.65-.6,3.15-1.65,5.03-2.69-.76-1.7-1.77-3.97-2.78-6.23,7.1,9.17,16.86,12.36,29.55,12.59-2.12,1.53-3.32,3.03-4.07,2.83-5.19-1.36-11.11.58-15.7-3.63-2.55-2.34-5.22-1.91-7.48.74,0,0,.19.17.19.17-1.8-.8-3.54-2.11-5.4-2.31-8.59-.93-14.8-6.52-23.61-10.34-2.21,2.86-6.14,6.42-8.16,10.84-6.02,13.19-9.54,27.16-9.53,41.75,0,5.82,1.16,11.42,6,15.81,3.33,3.02,6.24,3.98,10.2.92.48,3.56.1,5.42-4.03,4.77-6.31-.98-15.27-7.64-15.3-18.82-.05-20.05,2.47-39.41,16.44-55.37.44-.5-.46-2.16-.75-3.27,0,.01-.08.17-.08.19,1.62-.9,3.26-1.82,5.61-3.15-2.7-2.69-5.07-6.86-8.5-8.11-10.31-3.77-15.36-12.32-21.08-20.48-1.33-1.89-3.11-3.46-4.68-5.18h-.07Z"/>
  <path d="M289.44,379.34c-.82,1.07-1.42,2.71-2.48,3.11-5.49,2.06-10.77,1.51-15.87-1.63-1.42-.88-3.5-1.33-5.15-1.09-5.6.81-11.2,1.81-16.7,3.13-3.97.96-7.71,2.97-11.7,3.77-8.41,1.68-16.97,2.61-25.37,4.36-4.49.93-8.85,2.7-13.11,4.48-10.62,4.43-22.12,3.33-33.08,5.53-6.96,1.39-13.86,3.05-20.83,4.37-2.41.46-5.02.66-7.39.22-1.38-.26-2.48-2.04-3.39-2.86,6.37-.85,12.06-1.5,17.71-2.37,10.11-1.56,20.22-3.08,30.28-4.95,6.12-1.13,12.12-2.86,18.17-4.36,8.61-2.14,17.2-4.34,25.82-6.46,7.01-1.72,14.01-3.47,21.06-5,3.14-.68,6.4-.8,9.6-1.23,1.07-.14,2.11-.52,3.18-.68,3.58-.54,8.25-2.7,10.55-1.22,6.11,3.95,12.19,3.23,18.57,2.59,0,0,.15.3.15.3Z"/>
  <path d="M289.44,379.34s-.15-.3-.15-.3c7.12-3.57,14.11-7.44,21.39-10.66,16.13-7.12,32.35-14.04,48.63-20.82,13.25-5.52,26.73-10.51,39.9-16.19,4.16-1.79,9.05-2.47,12.25-6.31.23-.28,1.43.26,2.98.58-4.85,5.44-10.76,7.83-16.56,10.32-16.23,6.95-32.46,13.87-48.76,20.65-13.24,5.51-26.62,10.7-39.86,16.23-4.53,1.89-8.72,4.64-13.28,6.46-1.89.75-4.36.08-6.56.05Z"/>
  <path d="M586.79,481.86c-6.5,1.78-11.56,7.68-19.53,5.62-2.05-.53-5.01,1.56-7.27,2.92-4.04,2.45-7.89,3.01-12.72,2.05-4.05-.8-9.26-.42-12.74,1.57-8.54,4.88-17.7,3.39-26.62,4.3-4.07.42-8.28.68-12.29.07-4.77-.72-9.35-2.55-14.07-3.7-3.63-.88-7.33-1.45-11-2.12-2.13-.39-4.27-.69-6.41-1.04.12-.73.23-1.47.35-2.2,6.11,1.15,12.54,1.46,18.23,3.68,5.39,2.11,10.4,3.4,16.2,2.81,7.22-.73,14.56-.38,21.78-1.16,4.31-.47,8.43-2.51,12.74-3.28,4.94-.89,10-1.16,15.01-1.69,2.95-.31,5.99-.23,8.84-.95,7.42-1.86,14.76-4.04,22.11-6.14,2.36-.68,4.67-1.53,7-2.3.13.51.26,1.03.39,1.54Z"/>
  <path d="M332.4,458.87c-11.34-2.39-11.59-10.43-7.68-18.51,1.09-2.25,4.79-4.26,7.45-4.49,4.34-.38,9.18-1.38,12.84,3.02,3.42,4.1,3.97,11.05.56,16.19-3.19,4.82-7.35,5.97-13.33,3.67,1.63-.74,3.27-1.44,4.89-2.21,1.73-.82,3.86-1.31,5.07-2.63,5.73-6.22,2.7-13.1-6.47-15.12-4.27-.94-7.45.44-9.21,4.48-2.36,5.4-1.54,8.16,2.48,11.14,1.44,1.07,2.28,2.95,3.39,4.47Z"/>
  <path d="M347.98,525.67c-10.01,1.47-19.13,1.08-27.75-2.59-9.63-4.1-19.64-7.87-28.28-13.61-8.52-5.67-15.57-13.57-23.18-20.59-2.36-2.18-4.46-4.64-6.67-6.98.3-.32.61-.64.91-.96,3.35,3.15,7.03,6.02,10,9.49,13.85,16.15,32.05,25.34,51.67,31.83,7.06,2.34,14.92,2.26,23.3,3.4Z"/>
  <path d="M225.16,540.05s-.19-.17-.19-.17c.13,4-.47,7.54-4.45,9.83-.97.55-1.39,2.52-1.56,3.9-.55,4.29-3.26,6.87-6.35,9.5-1.61,1.37-2.96,3.74-3.24,5.81-.54,4.07-1.65,7.3-5.69,9.13-1.12.51-2.09,1.88-2.6,3.08-1.92,4.51-3.61,9.12-5.51,13.99-.39-.31-1.26-.75-1.21-1.02.8-4.63,1.46-9.31,2.73-13.81.52-1.85,2.19-4.45,3.72-4.75,5.79-1.14,5.76-5.42,6.46-9.7.28-1.76,1.04-4.22,2.34-4.9,4.09-2.15,5.38-5.64,7.1-9.59,1.83-4.2,5.55-7.57,8.45-11.3Z"/>
  <path d="M408.14,454.81c.04.39.09.78.13,1.17-.94-.29-2.19-.28-2.76-.9-5.11-5.52-10.47-11.02-18.69-10.04-7.25.87-14.54,2.64-16.81,11.38-.15.59-1.06.99-1.71,1.57-1.88-5.04,1.85-11.82,7.57-14.35,12.54-5.55,25.65-1.02,32.27,11.16Z"/>
  <path d="M178.47,481.08c1.93,2.43,4.43,4.6,5.69,7.33,3.35,7.29,8.3,12.95,14.77,17.64,6.78,4.91,13.17,10.36,19.61,16.53-2.65-1.19-5.64-1.93-7.87-3.65-6.24-4.8-12.5-9.66-18.12-15.16-3.68-3.6-6.42-8.23-9.26-12.61-1.97-3.04-3.38-6.43-5.05-9.66l.23-.43Z"/>
  <path d="M372.86,490.51s.14-.19.14-.19c-9.1,1.25-17.01-4.95-16.96-13.46,0-1.19,1.05-2.38,1.61-3.57.54,1.04,1.41,2.04,1.55,3.13.7,5.45,3.95,9.09,8.73,13.15-1.29-5.89-5.43-10.59-1.36-15.87,2.13,5.7,4.21,11.26,6.29,16.82Z"/>
  <path d="M279.36,464.14c-13.43-7.16-24.92-17.88-40.27-21.55,17.17.33,27.47,13.22,40.27,21.55Z"/>
  <path d="M606.11,472.76c1.05.78,2.77,1.37,3.03,2.36,1.37,5.19,2.14,10.64-1.19,15.32-4.26,5.99-9.03,11.62-13.58,17.41-.43-.44-.87-.88-1.3-1.32,3.68-4.79,7.4-9.56,11.03-14.39,4.54-6.05,4.65-12.63,2.11-19.48l-.1.11Z"/>
  <path d="M312.47,508.28c-1.91-.22-4.26.19-5.65-.77-7.51-5.23-14.9-10.66-22.09-16.32-2.87-2.26-5.14-5.29-7.02-8.57,11.56,8.6,23.11,17.21,34.68,25.8,0-.01.09-.13.09-.13Z"/>
  <path d="M529.93,331.55c.02,2.91.51,5.91-.02,8.72-1.21,6.41-2.92,12.73-4.47,19.29-4.04.59-2.63-2.86-2.36-4.53.94-5.75,2.16-11.48,3.66-17.12.59-2.23,2.19-4.19,3.33-6.28,0,0-.13-.08-.13-.08Z"/>
  <path d="M420.34,321.75c5.46-8.39,15.68-10.59,22.62-17.34,1.01,4.12-11.17,13.73-22.62,17.34Z"/>
  <path d="M162.27,487.3c-2.35-3.31-4.71-6.62-7.06-9.93-5.48-7.69-10.97-15.39-16.46-23.08.57-.46,1.15-.91,1.72-1.37,1.11,1.35,2.29,2.64,3.31,4.05,6.27,8.63,12.58,17.24,18.66,26.01.65.94-.1,2.85-.22,4.32-.02,0,.06,0,.06,0Z"/>
  <path d="M423.63,471.7c3.02-13.62,13.63-28.4,21.78-31.2-2,2.4-3.57,5.48-6.08,7.08-7.43,4.74-9.77,12.58-13.2,19.83-.71,1.49-1.66,2.86-2.5,4.29Z"/>
  <path d="M330.69,500.83c13.69-1.25,27.38-2.49,41.06-3.74.05.67.11,1.33.16,2-13.73,1.15-27.45,2.3-41.18,3.45l-.04-1.72Z"/>
  <path d="M121.05,460.95c2.23,2.96,4.6,5.83,6.68,8.9,4.08,6.01,8.04,12.11,11.97,18.22.95,1.47,1.6,3.13,2.38,4.7,0,0,.1-.11.1-.11-.83-.27-2.07-.29-2.44-.86-5.26-8.13-10.38-16.36-15.58-24.53-1.22-1.92-2.6-3.73-3.91-5.59.27-.24.53-.49.8-.73Z"/>
  <path d="M244,482.41c8.74,7.16,17.49,14.32,26.23,21.49-.4.48-.8.97-1.2,1.45-8.76-7.13-17.53-14.25-26.29-21.38.42-.52.84-1.04,1.26-1.56Z"/>
  <path d="M323.01,376.53c.59,1.66,1.46,3.86,1.36,3.9-3.07,1.37-6.23,2.54-9.38,3.73-.19-1.27-.92-3.42-.49-3.67,2.36-1.43,4.99-2.4,8.51-3.96Z"/>
  <path d="M314.78,438.28c1.67-7.52,11.65-11.56,20.1-7.66-7.86,1.29-15.32,1.17-20.1,7.66Z"/>
  <path d="M134.59,432.52c-1.59.47-3.46,1.69-4.69,1.22-1.62-.61-3.17-2.36-3.88-4-.35-.8,1.03-3.15,2.09-3.54,1.28-.47,3.04.41,4.59.71-.08.53-.16,1.05-.24,1.58-1.32.31-2.64.62-3.96.94-.03.51-.06,1.02-.08,1.53,1.91.11,3.82.23,5.73.34.15.41.3.82.45,1.22Z"/>
  <path d="M178.47,481.08s-.23.43-.23.43c-4.74-3.95-9.47-7.9-14.21-11.85.57-.61,1.14-1.21,1.72-1.82,4.24,4.41,8.48,8.83,12.72,13.24Z"/>
  <path d="M325.11,468.13c6.34-.68,12.38-1.33,17.93-1.93-3.36,3.95-12.7,5.25-17.93,1.93Z"/>
  <path d="M406.33,460.42c-4.58-.78-8.74-1.49-13.76-2.34.87-1.07,1.56-2.61,2.23-2.61,4.37.02,8.64.6,11.53,4.95Z"/>
  <path d="M593.07,506.52c.43.44.87.88,1.3,1.32-4.04,3.32-8.07,6.63-12.11,9.95-.36-.34-.72-.67-1.08-1.01,3.96-3.42,7.92-6.84,11.89-10.26Z"/>
  <path d="M159.93,454.07c-2.06-1.04-4.07-2.06-6.09-3.08-.38,2.05-.76,4.1-1.45,7.87-.79-3.1-1.92-5.31-1.61-7.29.14-.86,3.22-1.7,4.99-1.76,3.15-.11,4.74,1.58,4.16,4.26Z"/>
  <path d="M606.21,472.65c-5.22,2.01-10.44,4.02-15.66,6.04-.21-.48-.42-.96-.63-1.45,4.72-2.05,9.43-4.15,14.21-6.05.39-.16,1.31,1.01,1.98,1.57,0,0,.1-.11.1-.11Z"/>
  <path d="M179.21,437.15c2.04-.29,4.77-1.52,5.95-.65,1.58,1.17,2.22,3.91,2.68,6.1.11.52-2.12,1.52-4.18,2.91,1.12-2.98,1.66-4.41,2.2-5.84-2.07-.55-4.15-1.1-6.22-1.64-.14-.29-.29-.59-.43-.88Z"/>
  <path d="M428.16,438.77c.86-5.97,6.84-7.27,8.56-9.65-2.26,1.63-6.29,4.55-10.33,7.46.59.73,1.18,1.46,1.77,2.19Z"/>
  <path d="M255.07,419.86c-2.01-.48-4.09-.79-5.98-1.56-.44-.18-.68-2.52-.22-2.88.97-.76,2.45-.88,3.72-1.26.25.87.33,1.84.8,2.57.49.76,1.34,1.29,2.04,1.91-.11.41-.23.81-.34,1.22Z"/>
  <path d="M275.69,536.68c-.88.46-2.12,1.55-2.59,1.29-4.24-2.4-8.35-5.04-12.5-7.61.24-.4.47-.81.71-1.21,3.76,2.23,7.5,4.49,11.31,6.65.92.52,2.05.67,3.09.97,0-.03-.01-.08-.01-.08Z"/>
  <path d="M97.9,448.97c-3.25.44-6.68,1.01-6.81-3.3-.04-1.29,1.92-2.65,3.98-3.77-4.9,5.12-.18,5.6,2.83,7.07Z"/>
  <path d="M223.49,497.56c-2.76-3.15-5.52-6.31-8.28-9.46.02-.08.04-.16.06-.23,3.09,2.81,6.17,5.62,9.26,8.43-.35.42-.69.84-1.04,1.26Z"/>
  <path d="M333.07,374.1c-.97,2.82-1.71,4.95-2.44,7.09-.33-.11-.67-.22-1-.33-.59-2.12-1.17-4.25-1.95-7.06,1.11.06,2.71.15,5.39.3Z"/>
  <path d="M227.92,459.19c.21-4.28,2.43-5.19,5.08-4.3,3.29,1.1,3.35,3.88,2.34,7.6-1.26-2.6-2.21-4.57-3.36-6.94-1.49,1.33-2.42,2.17-4.06,3.64Z"/>
  <path d="M121.05,460.95c-.27.24-.53.49-.8.73-3.12-2.2-6.23-4.39-9.35-6.59l1.09-1.39c3.02,2.41,6.04,4.83,9.06,7.24Z"/>
  <path d="M208.34,449.84c-3.31.57-5.6-.95-6.46-3.87-.39-1.32.81-3.11,2.28-4.67-2.81,5.26.98,6.62,4.18,8.54Z"/>
  <path d="M166.75,410.52c-2.09,3.61-4.96,4.14-7.65,2.57-.97-.57-.73-3.21-.22-5.45,1.08,5.78,4.13,4.91,7.87,2.88Z"/>
  <path d="M451.02,317.53c3.24-2.22,6.49-4.45,9.74-6.67.31.42.63.84.94,1.26-3.17,2.34-6.34,4.67-9.51,7.01l-1.17-1.6Z"/>
</svg>