<?xml version="1.0" encoding="UTF-8"?>
<svg id="Capa_1" xmlns="http://www.w3.org/2000/svg" viewBox="0 0 700 700">
  <path d="M637.64,282.17c3.03,3.41,3.18,7.34,1.08,10.74-2.58,4.2-5.57,8.37-9.2,11.65-11.1,10.01-24.04,17.13-37.76,22.99-19.71,8.42-39.06,17.76-59.03,25.51-17.92,6.95-36.48,12.28-54.75,18.33-.7.23-1.38.55-2.15.85,7.2,23.46,5.09,46.69-1.48,69.66-4.39,15.37-12.62,28.64-24.58,39.41-5.08,4.58-10.81,8.1-17.51,9.77-1.76.44-3.69.62-5.49.44-4.78-.48-7.74-4.11-6.96-8.84.53-3.19,1.61-6.31,2.72-9.36,1.68-4.6,1.96-9-.12-13.62-1.17-2.59-1.55-5.54-2.38-8.69-.78.94-1.6,1.86-2.35,2.83-12.35,16.17-26.99,29.71-45.74,38.04-7.5,3.33-15.59,5.4-23.49,7.76-3.65,1.09-7.22.35-9.77-2.84-2.56-3.2-1.69-6.63-.06-9.84,1.92-3.79,3.96-7.52,6.2-11.12,4.29-6.91,5.24-14.43,4.46-22.32-.06-.65-.3-1.31-.22-1.94.97-8.6,1.02-17.24,1.51-25.85.21-3.68,3.01-7.83,5.79-10.59,4.08-4.03,4.1-7.99,2.23-12.81-6.99.74-13.99,1.63-21.02,2.21-22.74,1.88-45.49,1.29-68.25.38-28.94-1.15-57.27,2.49-84.37,12.86-25.44,9.73-46.91,25.43-63.37,47.22-5.16,6.84-8.68,15.06-12.11,23.01-2.86,6.62-.64,11.38,5.62,15.19,3.63,2.21,7.47,4.07,10.98,6.45,18.73,12.67,31.26,29.55,34.08,52.45.68,5.51-.24,11.26-.88,16.85-.17,1.49-2.04,2.78-3.13,4.16-1.36-1.07-2.79-2.07-4.04-3.26-.6-.57-.87-1.49-1.27-2.27-3.88-7.66-9.38-13.05-18.24-14.85-11.95-2.43-23.75-5.55-34.66-11.28-1.92-1.01-3.72-2.23-6.02-3.62-6.53,7.13-15.91,8.76-24.81,11.45-1.87.57-3.77,1.06-5.62,1.71-2.87,1.01-5.74,2.06-8.56,3.22-6.72,2.76-10.88,7.77-12.7,14.76-.63,2.42-1.06,4.92-1.94,7.24-.49,1.29-1.87,3.3-2.63,3.21-1.33-.16-3.08-1.45-3.61-2.71-1.25-2.97-2.48-6.16-2.66-9.33-1.55-27.43,7.41-50.22,30.04-66.84,6.49-4.76,13.03-9.47,19.28-14.53,5.22-4.22,7.53-10.1,8.73-16.68,5.02-27.56,11.5-54.76,22.17-80.77,5.73-13.96,13.55-26.76,21.75-39.39,17.27-26.61,37.7-50.35,62.39-70.34,17.66-14.3,36.87-26.28,56.59-37.47,1.51-.86,2.99-1.79,4.52-2.63,12.37-6.78,19.27-17.15,20.97-31.18,1.4-11.52,2.26-23.06-.3-34.45-3.48-15.46-10.64-28.71-24.48-37.54-3.96-2.53-4.24-6.86-.21-9.24,2.77-1.64,6.29-2.72,9.5-2.79,14.91-.29,28.19,4.85,40.15,13.47,11.45,8.26,20.42,18.92,28.25,30.56,5.47,8.13,10.42,16.61,16.1,24.59,6.45,9.06,15.71,13.97,26.74,14.13,10.2.15,20.45-.65,30.63-1.53,25.13-2.19,50.28-2.55,75.41-.75,22.25,1.6,44.5,3.63,66.63,6.39,22.94,2.86,43.54,12.05,61.66,26.45,3.29,2.61,6.07,5.94,8.74,9.22,2.53,3.1,5.6,4.93,9.36,6.13,3.9,1.24,7.94,2.57,11.33,4.77,5.44,3.53,6.25,10.21,2.29,15.24ZM293.89,309.18s.12-.11.12-.11c-.24.07-.48.14-.71.21-1.38,1.66-2.9,3.23-4.13,4.99-3.49,5.01-6.87,10.1-10.3,15.16,1.52-.85,2.49-2.09,3.41-3.37,3.61-5,7.2-10.01,10.8-15.02,1.55-1.28,3.1-2.57,4.65-3.85.17.62.34,1.24.57,2.08,2.92-2.4,3.87-5.3,3.86-8.65.56-.46,1.13-.93,1.69-1.39.17.4.33.79.5,1.19.44-.59.88-1.19,1.32-1.78.22-.22.44-.45.66-.67.23-.03.46-.06.69-.09.99-.43,1.98-.86,3.58-1.56-8.8,12.14-17.14,23.65-25.47,35.16,3.06-2.86,5.8-5.97,8.09-9.39,6.81-10.16,14.09-19.91,23.28-28.07,1.67-1.48,3.58-2.69,5.39-4.03.1.16.21.33.31.49-6.58,7.04-13.17,14.08-19.75,21.12l.93.88c2.8-3.15,5.46-6.42,8.42-9.4,3.07-3.09,6.42-5.9,9.65-8.84-2.06,2.69-4.38,5.08-6.74,7.44-2.37,2.37-4.76,4.71-7.15,7.07.21.2.41.4.62.61,1.34-1.12,2.67-2.24,4.01-3.36.21.23.42.45.63.68-.79,1.12-1.59,2.24-2.38,3.36.11.09.21.18.32.28,1.13-.77,2.26-1.53,3.39-2.3-4.22,4.67-8.43,9.34-12.65,14.02.27.24.54.47.82.71,2.78-3.16,5.58-6.3,8.34-9.49,2.1-2.43,4.13-4.92,6.19-7.38,2.33-2.41,4.55-4.94,7.04-7.16.84-.75,2.36-.73,3.57-1.06v-.02c-.09.12-.16.25-.22.39l.07.07c.13-.08.24-.17.35-.27.21.04.42.07.63.11-.41.89-.66,1.91-1.26,2.64-1.26,1.53-2.7,2.91-4.6,4.9,6.67-5.28,12.7-10.06,18.74-14.83.27.35.54.71.81,1.06-1.15.81-2.29,1.63-3.44,2.44-1.05.74-2.27,1.33-3.14,2.24-3.82,3.99-7.4,8.23-11.35,12.1-4.08,4.01-9.01,7.25-12.6,11.62-5.05,6.14-10.26,11.95-16.82,16.48-1.52,1.05-3.03,2.12-4.51,3.22-1.43,1.07-2.82,2.2-4.22,3.31,11.67-6.82,22.26-14.93,31.92-24.26,8.36-8.07,16.71-16.05,26.66-22.38,10.11-6.43,21.07-10.31,32.43-13.29,6.37-1.67,13.09-2.02,19.46-3.7,6.18-1.63,12.17-4.05,18.12-6.42,2.65-1.06,5.02-2.83,7.51-4.29-.07-.09-.14-.19-.21-.28-6.33,2.76-12.66,5.51-18.98,8.27-.11-.21-.22-.41-.34-.62.48-.45.96-.91,1.8-1.7-3.7,1.06-6.92,1.97-10.55,3.01,1.16.19,1.94.31,2.07.33-8.91,1.97-18.31,4.05-27.71,6.13,4.93-1.83,10-3.24,15.01-4.8,4.81-1.5,9.58-3.15,14.34-4.73.11.01.23,0,.35-.05,1.18,0,2.37.01,3.55.02,7.74-3.2,15.33-6.67,22.16-11.85-1.46,1.73-2.92,3.46-4.38,5.19.11.13.22.26.32.39,2.46-1.52,4.93-3.04,7.39-4.57.08.12.17.24.25.37-2.19,2.58-4.37,5.17-7.11,8.39,1.22-.76,1.76-1.07,2.26-1.42,4.5-3.13,8.93-6.38,13.54-9.35,1.38-.89,3.26-.98,4.92-1.43-3.53,2.83-7.06,5.67-10.59,8.5.22.27.44.54.66.81,3.94-3.17,7.9-6.32,11.81-9.53.19-.16.03-.76.03-1.15,1.29.04,2.58.08,3.86.11-3.54,2.87-7.08,5.73-10.62,8.6.21.26.42.52.63.78,3.7-2.91,7.41-5.83,11.11-8.74,2.31,1.04-.85,1.51-.28,2.32,2.36-.98,4.71-1.95,7.06-2.93.34-.12.68-.24,1.02-.36.2-.08.4-.17.6-.25.13-.07.27-.11.41-.12-.47.67-.79,1.59-1.43,1.98-3.09,1.89-6.26,3.63-9.4,5.43,2.59-.45,4.83-1.65,7.15-2.65,2.43-1.05,4.94-1.92,7.42-2.86-2.82,1.76-5.65,3.51-8.47,5.27.15.24.3.48.44.72,4.26-2.44,8.51-4.88,13.15-7.54-.24,4.44-5.04,3.69-6.77,6.77,8.43-2.25,13.72-10.26,21.31-10.06-4.7,2.69-10.35,5.92-16,9.16.16.32.33.64.49.96,2.3-1.03,4.6-2.07,6.9-3.1.06.14.12.27.19.41-.71.57-1.42,1.14-2.58,2.07,1.41-.33,2.65-.96,2.99-.64,2.62,2.49,5.1.37,7.53-.14,4.54-.95,9-2.31,13.54-3.27,1.36-.29,2.88.19,4.32.32-.01.32-.02.64-.03.95-3.84,1.36-7.67,2.72-11.51,4.08.1.31.2.62.3.92,5.74-1.89,11.47-3.78,17.31-5.7-.31.58-.62,1.17-1.18,2.22,1.56-.8,2.65-1.36,3.75-1.92.06.1.11.19.17.29-.64.59-1.27,1.18-2.18,2.03,9.01-3.43,17.88-4.36,27.03-2.87-6.25.3-12.49.6-18.74.9.02.38.04.76.06,1.15,11.18-.71,22.36-1.42,34-2.16-5.88,1.32-11.36,2.55-16.84,3.78,1.74.18,3.55,2.3,5.09-.04.18-.27.8-.28,1.23-.36,2.98-.58,6.06-.87,8.93-1.8,3.2-1.03,6.08-.73,9.19.32,4.48,1.51,9.11,2.58,13.67,3.84-5.05-2.3-10.26-4.12-15.44-6.01-.91-.33-1.71-.96-2.57-1.45h-.02c7.79.1,14.55,3.64,21.39,6.92.1-.26.2-.51.29-.77-3.6-1.95-7.2-3.9-10.8-5.84.19-.37.38-.74.57-1.11,3.53,1.81,7.05,3.63,10.58,5.44.56-.85,1.12-1.69,1.68-2.54,2-1.21,4.07-1.98,6.49-.82-.04-.55-.07-.98-.11-1.51.72,1.01,1.32,1.85,1.92,2.69.23-.15.45-.3.68-.45-1.4-3.47-2.8-6.93-4.2-10.4.18-.08.35-.17.53-.25,1.42,2.95,2.85,5.89,4.27,8.84.17-.07.34-.15.5-.22-.92-2.95-1.83-5.9-2.75-8.85,1.52,2.28,2.5,4.75,3.56,7.19.33.76.7,1.71,1.34,2.1,2.68,1.63,5.53,2.98,8.21,4.62,6.77,4.15,14.31,2.87,21.62,3.2,1.79.08,3.58.01,5.37.01,0,.19,0,.38,0,.57-5.43.31-10.85.61-16.28.92.02.24.03.49.05.73h22.35c0,.2,0,.4,0,.61h-23.04c.87,1.03,1.81,1.49,2.74,1.48,6.09-.04,12.17-.28,18.26-.22,1.55.02,3.16.74,4.64,1.38,1.48.64,2.83,1.59,4.92,2.8-3.84.92-7.37,1.43-10.66,2.63-8.26,3.01-16.8,3.86-25.48,3.91-10.67.06-21.35-.19-31.99.32-12.36.6-24.68,1.89-37.01,2.88,1.13-.7,2.27-1.4,4.17-2.57-3.09.76-5.4,1.17-7.59,1.9-4.27,1.42-8.47,3.03-12.7,4.56-3.85-1.6-7.72-3.15-11.54-4.82-1.1-.48-2.07-1.27-3.57-2.21,2.36,4.39,10.04,7.69,15.11,6.93-3.17.26-6.33.53-9.5.79,4.2,2.09,8.32,1.89,12.54.45,1.85-.63,3.86-.81,5.8-1.2-5.69,4.03-11.85,5.37-18.69,2.92-.03.38-.06.76-.08,1.14,3.25.6,6.49,1.21,10.18,1.89-8.93,1.37-16.49-5.81-24.54-3.06,4.22.8,9.16,1.08,13.62,2.71,8.38,3.07,15.79,1.41,23.03-2.95,1.02-.62,2.11-1.14,3.15-1.73,5.6-3.14,11.61-5.09,18.01-5.3,16-.54,32-.99,48-1.27,12.56-.22,24.99-1.46,37.21-4.38,1.67-.4,4.06-1.8,4.31-3.09.32-1.64-.87-3.9-2.02-5.41-.98-1.29-2.75-2.15-4.33-2.76-2.43-.93-5.14-1.19-7.48-2.28-3.17-1.47-7.16-2.73-8.96-5.34-5.59-8.12-12.58-14.37-21.09-19.11-15.4-8.57-31.28-16.06-49.08-17.79-24.27-2.36-48.54-5.07-72.88-6.08-21.5-.89-43.1.13-64.65.72-10.32.29-20.6,2-30.92,2.26-15.56.39-27.33-6.76-35.67-19.75-3.71-5.77-7.34-11.59-11.11-17.31-9.36-14.21-20.11-27.18-34.66-36.39-10.49-6.65-21.85-10.83-34.59-9.73-2.74.24-5.56.57-7.34,3.34,7.68-2.92,15.24-1.72,22.71.5,1.79.53,3.37,1.78,5.05,2.7,1.3.88,2.52,1.91,3.91,2.6,5.97,2.96,10.13,7.71,13.4,13.4-4.68-6.73-10.43-12.08-19.07-14.74,2.15,2.05,3.9,3.73,5.65,5.4.23.41.45.82.68,1.23,3.66,6.39,7.31,12.78,11.01,19.15.16.28.74.32,1.12.47.08.46.16.91.25,1.37-.57-.13-1.14-.26-2.09-.48,1.65,4.04,3.2,7.86,4.76,11.68.11-.05.21-.1.32-.15-.93-3.49-1.86-6.99-2.79-10.48.32.17.64.34.96.51.93,2.44,1.86,4.87,2.79,7.31,1.9,7.92,3.79,15.85,5.74,23.76.16.66.77,1.21,1.17,1.82,1.3,3.77,2.28,7.7,4.04,11.24,1.01,2.03,3.29,3.42,4.99,5.1l.23.17c7.17,4.86,15.49,4.02,23.5,4.9-4.88,0-9.75,0-14.63,0s-9.62,0-14.43,0c.02.4.03.79.05,1.19,12.92.28,25.9,2.5,38.7-1.72-11.54,4.78-23.98,2.61-35.8,4.88h15.32c.02.08.03.16.05.24-7.35,1.31-14.71,2.63-22.06,3.94.84-.38,1.64-.89,2.52-1.12,2.19-.58,4.41-1.03,5.85-1.36-4.46,0-9.7-.58-14.73.19-3.76.58-5.11-1.45-6.14-3.75-1.03-2.28-1.39-4.98-1.52-7.52-.38-7.26-.2-14.55-.77-21.78-1.21-15.37-4.26-30.36-11.72-44.03-1.79-3.28-5.12-5.71-7.74-8.53-2.52-1.73-5.05-3.47-7.57-5.2-.09.14-.19.27-.28.41,1.23,1.15,2.46,2.3,3.69,3.44-1.6-.88-3.18-1.78-4.8-2.64-1.47-.78-2.96-1.5-4.54-2.3,3.68,3,7.25,5.75,10.65,8.71,6.28,5.46,9.62,12.75,11.7,20.54,2.17,8.12,3.74,16.4,5.57,24.62.13,0,.26,0,.39,0-.58-4.3-1.16-8.59-1.74-12.89.23-.03.46-.07.68-.1.75,3.81,1.5,7.61,2.25,11.42.17-2.97-.2-5.83-.78-8.66-1.12-5.39-2.36-10.75-3.55-16.13,1.03,2.82,2.36,5.57,3.04,8.47,3.53,15.18,5.41,30.54,4.85,46.16-.07,1.86.6,3.77,1.08,5.62.41,1.55,1.04,3.05,1.58,4.57-3.26-2.99-4.27-6.84-4.24-11.1-.62,7.23.29,9.52,4.32,11.02.32.4.64.8,1.17,1.46-1.14-.06-1.93-.1-2.73-.14-.47-.41-.93-.82-1.4-1.23-.87-1.41-2.27-2.74-2.51-4.25-.55-3.38-.53-6.86-.75-10.3-.57,2.9-1.17,5.88-.72,8.7.39,2.49,1.94,4.79,2.98,7.18.34.28.67.55,1.01.83-1.14-.1-2.29-.2-3.35-.29.24.35.65.95,1.08,1.57-.72.1-1.21.13-1.69.24-2.75.65-5.49,1.31-8.23,1.97.09-.11.18-.23.27-.34,2.95-.97,4.72-3.27,5.03-6.08,1.2-10.8,2.1-21.63,3.11-32.46-.3-.03-.61-.06-.91-.08-.54,7.57-1.03,15.15-1.63,22.72-.39,4.95-1.76,9.56-5.3,13.28,1.1-3.5,2.88-6.95,3.18-10.52.81-9.73,1.08-19.5,1.38-29.26.07-2.11-.61-4.23-.94-6.35.02,5.82.55,11.55.64,17.29.15,9.32-1.04,18.47-5.12,27-2.1,4.38-5.66,7.54-9.3,10.55,2.41-3.82,4.82-7.63,7.58-12.01-3.92,4.09-6.83,8.22-10.72,10.97-7.52,5.33-15.48,10.07-23.45,14.73-18.08,10.57-35.47,22.16-51.53,35.59-20.6,17.23-38.02,37.37-52.99,59.64-8.81,13.1-17.61,26.21-24.12,40.67-10.05,22.28-15.34,45.94-20.12,69.75-1.2,5.97-1.93,12.06-3.48,17.93-1.93,7.28-6.61,12.98-12.4,17.61-6.03,4.82-12.38,9.24-18.51,13.94-21,16.13-29.74,37.63-27.69,63.78.14,1.78.67,3.53,1.02,5.3.46-5.58.26-11.02.5-16.44.73-16.97,7.23-31.53,19.43-43.24,5.63-5.4,12.08-9.97,18.3-14.73,3.97-3.04,8.73-5.2,12.16-8.71,4.38-4.48,7.86-9.85,8.79-16.43.7-4.95,1.55-9.89,2.55-14.78,2.38-11.71,4.29-23.56,7.5-35.04,3.18-11.37,7.22-22.59,11.85-33.46,4.01-9.42,9.38-18.27,14.15-27.37.35.17.71.35,1.06.52-13.42,22.95-23.1,47.36-29.16,73.19,2.94-8.03,5.88-16.05,8.83-24.08l-.11.05c-.36,1.74-.58,3.53-1.09,5.23-1.61,5.36-3.33,10.68-5.01,16.01.17.05.34.1.51.14,5.27-14.14,10.54-28.28,15.81-42.42.25.07.49.13.74.2-.5,2.21-1,4.42-1.64,7.2,1.93-4.67,3.33-8.94,5.38-12.85,3.89-7.4,8.03-14.68,12.31-21.85,2.9-4.86,6.24-9.46,9.38-14.18-1.09,2.44-2.19,4.88-3.28,7.32-.52.94-1.04,1.88-1.55,2.82-.69,2.09-1.29,4.21-2.09,6.26-.95,2.43-2.07,4.8-3.12,7.2,0,.36-.02.72-.03,1.08-2.18,4.16-4.37,8.33-6.55,12.49,6.24-8.53,11.8-17.45,17.47-26.29,1.43-2.23,3.22-4.23,4.84-6.33l-.06-.06c-1.52,3.13-3.08,6.25-4.5,9.43-.17.37.45,1.1.7,1.66l-2.78,5.39.82.49c2.88-4.09,5.77-8.17,8.65-12.26-.04.4-.08.81-.2,2.05,4.28-5.63,8.09-10.64,11.9-15.65.14.1.28.2.42.29-2.43,4.01-4.85,8.03-7.28,12.04.23.13.47.27.7.4.71-1.08,1.44-2.15,2.13-3.24,3.26-5.19,6.51-10.4,9.76-15.6l-.06-.06c-.55,1.59-1.09,3.17-1.73,5.01,2.65-3.91,5.13-7.56,7.6-11.21.17.12.33.24.5.36-.33.71-.66,1.42-1.13,2.43.87-.44,1.33-.67,2.18-1.1-2.27,3.86-4.24,7.21-6.22,10.56,8.74-10.94,14.18-24.22,25.92-33.71-3.03,6.33-5.78,12.06-8.52,17.78.08.08.15.16.23.25,4.53-5.77,9.07-11.53,13.72-17.45-.69,3.56-.54,3.81,1.67,3.11-2.31,4.16-4.62,8.32-6.92,12.49.23.13.46.26.69.39,2.31-3.77,4.66-7.53,6.92-11.34.67-1.14,1.07-2.44,1.6-3.66,5.76-5.7,11.51-11.39,17.27-17.09.17.13.35.27.52.4-.66,1.17-1.32,2.35-1.98,3.52-2.74,3.21-5.49,6.42-8.23,9.63.31.26.63.53.94.79.68-.84,1.28-1.76,2.05-2.51.83-.82,1.81-1.48,2.73-2.21-.02.22-.04.44-.06.66.14.06.28.13.41.21-.35,1.21-.35,2.74-1.11,3.56-2.04,2.19-4.41,4.09-6.64,6.1.28.29.56.57.84.86,5.32-1.98,7.97-6.84,11.2-11.08,1.18-1.01,2.36-2.01,3.58-3.05.21.43.4.8.67,1.35,1.9-2.71,3.76-5.35,6.03-8.58.61,1.59.83,2.17,1.18,3.05,1.12-1.55,1.81-3,2.93-3.92,1.2-.98,2.81-1.46,4.26-2.14-2.82,4.44-5.64,8.88-8.45,13.31.24.15.49.3.73.45,2.36-3.72,4.77-7.42,7.05-11.19.44-.73.39-1.77.57-2.66l5.13-4.8.04.21.21-.03c3.54-2.75,7.09-5.51,10.12-7.86-2.85,3.34-6.15,7.2-9.44,11.05.23.19.45.37.68.56,1.97-2.31,3.94-4.63,5.92-6.94.11.1.23.2.34.3-2.24,3.04-4.47,6.08-6.71,9.11.15.12.31.24.46.36,3.14-3.61,6.29-7.21,9.43-10.82-2.99,5.34-8.01,9.21-9.69,15.39,3.8-3.6,7.59-7.2,11.39-10.8.19.18.37.35.56.53l-3.15,5.93c-2.44,2.79-4.88,5.58-7.92,9.06,3.33-3.04,5.94-5.42,8.55-7.8.03.29.05.57.08.86,0,.74.31,1.69-.03,2.18-1.84,2.6-3.84,5.08-5.79,7.6,1.19-.5,2.01-1.31,2.75-2.19,3.7-4.42,7.4-8.85,11.05-13.31,1.85-2.26,3.76-4.24,7.04-2.97,0,.76.32,1.76-.05,2.23-7.56,9.88-15.19,19.7-22.81,29.53.24.19.47.39.71.58,1.61-1.95,3.27-3.86,4.83-5.84,3.91-4.93,7.78-9.89,11.66-14.84-.27.66-.54,1.32-.81,1.98,1.4-.44,2.3-1.3,3.03-2.28.94-1.26,1.6-2.76,2.65-3.91,1.72-1.89,3.65-3.58,5.5-5.35,1.03-.52,2.23-.84,3.05-1.58,3.28-2.99,6.23-6.37,9.69-9.12,4.17-3.31,8.74-6.13,13.13-9.17.08.14.16.28.24.42-1.16,1.21-2.33,2.42-3.49,3.63-1.37.83-2.87,1.52-4.09,2.53-1.57,1.3-2.93,2.86-4.39,4.31-.15.2-.31.4-.46.6-1.45,1.02-3.28,1.77-4.29,3.12-7.97,10.7-15.79,21.52-23.64,32.31-.08.12.03.37.08.91,1.33-1.53,2.61-2.81,3.68-4.25,4.56-6.15,9.07-12.35,13.59-18.53l-.07-.06c-1.41,2.69-2.81,5.38-3.88,7.42,1.62-1.17,3.74-2.68,5.85-4.2.42-.02.95.12,1.24-.08,3.04-2.2,6.03-4.46,9.06-6.67.39-.28.97-.31,1.46-.46l-2.63,4.45c0,.53,0,1.06,0,1.59,0,0,.1-.11.1-.11-.26.26-.51.51-.77.77ZM335.72,316.64c-.75.11-1.74-.05-2.22.36-2.37,2.06-4.66,4.21-6.85,6.45-.72.74-1.06,1.86-1.57,2.8.33.26.66.52,1,.78.85-1.11,1.7-2.21,2.55-3.31,4.11-3.46,8.22-6.91,12.32-10.38.04-.04-.03-.21-.04-.31,7.08-4.75,14.16-9.5,21.25-14.25-.17-.31-.33-.62-.5-.93-.77.21-1.67.23-2.3.66-2.96,2.02-5.83,4.17-8.76,6.23-3.52,2.48-7.1,4.88-10.59,7.41-.29.21-.1,1.09-.15,1.68-1.38.94-2.75,1.88-4.13,2.82ZM124.55,516.59l1,.35c1.14.96,2.33,1.86,3.41,2.88,4.16,3.9,8.73,7.47,12.33,11.84,10,12.14,15.7,25.98,14.75,42.05-.11,1.93-.38,3.84-.58,5.77,1.06-1.96,1.65-4,1.82-6.09.87-10.77-.97-21.08-6.15-30.6-7.85-14.46-18.34-26.38-33.42-33.72-5.66-2.76-10.75-6.21-13.39-12.34.68,2.08,1.44,4.23,2.84,5.8,2.37,2.64,5.14,4.91,7.75,7.34-2.7-1.67-5.4-3.34-8.1-5.01,5.03,5.28,11.16,8.86,17.75,11.75ZM302.13,204.02c.8,4.88,1.6,9.75,2.4,14.63.37-.08.74-.15,1.1-.23-1.17-4.8-2.34-9.59-3.5-14.39-1.6-8.11-2.65-16.37-6.51-24.1-.14.47-.29.7-.25.87,1.77,7.14,3.53,14.28,5.38,21.4.18.67.92,1.2,1.38,1.83ZM341.69,307.14c.33.18.82.59.96.5,3.56-2.41,7.13-4.82,10.57-7.39.53-.39.49-1.56.71-2.36,1.73-1.2,3.3-2.98,5.21-3.5,8.39-2.28,16.89-4.2,25.35-6.25-.08-.33-.16-.65-.24-.98-9.83,2.47-19.65,4.94-29.48,7.4,3.55-1.51,7.08-3.06,10.65-4.5,1.63-.66,3.34-1.11,5.02-1.65,4.89-1,9.78-1.99,14.67-3,.02,0,0-.2-.01-.31,1.86-.18,3.71-.35,5.57-.53-10.91-2.12-28.88,2.94-42.5,12.35-1.76.9-3.73,1.52-5.23,2.74-4.01,3.27-7.82,6.79-11.71,10.2-2.99,2.63-5.98,5.25-8.96,7.87l.3.32c1.58-.79,3.17-1.59,4.75-2.38.21.22.42.45.63.67-.35.39-.64.89-1.07,1.16-3.31,2.1-6.64,4.17-9.96,6.24l.07-.13c-1.78,1.49-3.55,2.98-5.95,4.99,1.48.17,2.47.61,2.87.29,6.02-4.81,11.95-9.71,17.91-14.59,3.29-2.39,6.58-4.79,9.87-7.18ZM339.01,335.89c.67-.3,1.41-.49,2-.9,5.96-4.16,11.9-8.34,17.82-12.54,1.92-1.36,3.8-2.79,5.7-4.19,2.05-.92,4.19-1.69,6.15-2.77,9.42-5.21,19.22-9.07,30.2-9.08.42,0,.84-.29,1.27-.44-1.34-.63-2.63-.86-3.81-.59-6.01,1.34-12.22,2.2-17.92,4.39-5.55,2.13-10.57,5.66-15.83,8.57-2.91,1.57-5.99,2.91-8.71,4.76-5.52,3.77-10.86,7.82-16.24,11.78-.3.22-.38.72-.57,1.09-4.23,1.69-7.86,4.13-10.84,7.42.31.39.63.78.94,1.17,3.28-2.88,6.56-5.77,9.84-8.65ZM388.24,317.79c13.02-3.36,26.07-3.33,39.2-.37-7.73-1.41-15.49-2.77-23.24-2.73-5.31.03-10.6,2.03-15.92,3.14-4.06,1.17-8.12,2.35-12.18,3.52-5.48,2.83-11.26,5.2-16.36,8.59-7.79,5.16-15.11,11.02-22.62,16.6-.85.63-1.63,1.35-2.44,2.03,3.8-1.85,7.25-4.08,10.57-6.49,9.75-7.08,18.74-15.3,30.18-19.81.29-.11.41-.66.62-.98,4.06-1.17,8.13-2.33,12.19-3.5ZM283.57,162.44c.2-1.06.95-2.52.51-3.11-3.58-4.87-7.35-9.6-11.16-14.3-.55-.67-1.64-.9-2.48-1.34.89,1.33,2.06,2.16,3.01,3.18,4.27,4.61,8.61,9.18,10.14,15.57,1.29,2.94,2.86,5.8,3.79,8.85,1.36,4.45,2.37,9.01,3.3,13.57.93,4.54,1.57,9.13,2.33,13.7-.26-12.07-2.8-23.65-7.47-34.76-.26-.63-1.32-.92-1.98-1.37ZM521.36,272.27c1.91.37,3.81.77,5.73,1.09,3.97.67,7.94,1.3,11.91,1.95.04-.23.08-.46.12-.69-4.17-.78-8.34-1.56-13.22-2.47,3.12-.43,5.34-.65,7.53-1.06,4.15-.78,8.57-1.02,12.33-2.7,3.43-1.53,6.59-1.86,10.05-1.34,2.2.33,4.38.83,7.1,1.36-7.75-3.95-21.97-3.52-29.67,1.06,2.48-.44,4.95-.88,7.43-1.32-3.99,1.24-8.1,3.6-12.02.37-6.02-4.96-12.9-4.17-19.81-3.34-.72.09-1.47.72-2.01,1.29-.97,1.04-1.67,2.34-2.7,3.32-1.43,1.36-3.06,2.51-4.6,3.75l.48.63c1.08-.77,2.25-1.45,3.23-2.33,3.37-3,7.33-3.1,11.36-2.17,2.3.53,4.47,1.64,6.7,2.48-1.99-.44-3.97-1-5.99-1.28-2.45-.34-4.93-.43-7.39-.63-.06.39-.11.78-.17,1.17,5.67-1.71,9.84,1.75,14.5,3.69-.92-.7-1.84-1.4-2.95-2.24.88-.25,1.48-.41,2.07-.58ZM451.7,373.74c1.54-.27,2.4-.35,3.2-.58,15.7-4.44,31.45-8.73,47.08-13.41,18.82-5.63,36.67-13.7,54.44-21.99,16.65-7.77,33.79-14.54,50.16-22.83,8.62-4.37,16.22-10.85,23.95-16.81,3.1-2.39,5.25-5.97,5.54-10.34-2.62.64-4.91,1.25-7.22,1.77-13.58,3.04-27.39,3.68-41.24,3.75-17.41.08-34.88-.71-51.95,3.95-1.04.28-2.28-.14-3.42-.24-.07-.41-.13-.83-.2-1.24,2.34-.94,4.61-2.12,7.02-2.79,11.03-3.08,22.4-3.06,33.72-3.4,11.97-.36,23.97-.17,35.92-.88,7.23-.43,14.41-2.04,21.58-3.31,1.49-.26,2.82-1.39,4.23-2.11-.13-.34-.27-.68-.4-1.02-.91.12-1.86.13-2.73.39-10.53,3.17-21.34,4.07-32.26,4.33-15.89.37-31.79.74-47.68,1.31-8.22.29-16.22,1.72-23.38,6.25-6.94,4.4-14.59,6.13-22.78,5.55-7.72-.55-14.01,2.62-19.39,7.79-5.26,5.05-8.98,11.19-11.78,17.89-3.56,8.51-6.48,17.35-13.43,24.01-1.2,1.15-1.98,2.89-2.55,4.51-2.17,6.24-4.17,12.55-6.44,19.46ZM366.54,387.34c-.06-.3-.13-.6-.19-.9-2.68.35-5.41.48-8.03,1.08-9.32,2.15-18.74,1.67-28.16,1.25-2.92-.13-5.81-.86-8.73-1.04-10.76-.66-19.58-5.16-26.76-13.11-5.4-5.98-10.79-11.97-16.3-17.85-4.97-5.3-10.87-9.29-17.43-12.45-28.06-13.52-62.8-1.92-72.32,29.74-1.5,5-3.28,9.92-4.7,14.94-2.29,8.06-6.59,14.63-13.61,19.33-1.27.85-2.52,1.72-3.82,2.52-5.9,3.61-12.33,6.57-17.6,10.93-9.08,7.52-16.6,16.61-22.63,26.82-1.91,3.23-3.6,6.59-5.06,9.27,5.8-5.7,11.98-11.82,18.21-17.88,7.42-7.22,15.6-13.46,24.73-18.34,2.75-1.47,5.93-2.12,8.85-3.3,4.74-1.92,9.32-4.27,14.15-5.9,28.61-9.64,58.02-13.33,88.16-11.52,20.35,1.22,40.71,1.33,61.04-.22,6.83-.52,13.62-1.59,20.39-2.64,1.28-.2,2.75-1.2,3.53-2.27,1.52-2.11,2.62-4.52,3.95-6.93-.77.11-1.69.26-2.62.37-4.53.55-9.04,1.23-13.58,1.62-11.27.98-22.55,1.99-33.84,2.67-9,.54-18.03.99-27.03.81-14.35-.29-28.7-1.14-43.04-1.72-2.27-.09-4.56-.01-6.84-.01,12.5-.05,25-.1,37.49-.04,11.53.06,23.06.63,34.57.24,13.47-.46,26.92-1.54,40.35-2.69,5.66-.48,11.25-1.82,16.87-2.77ZM444.09,350.74c2.99,7.56,2.1,14.86-.55,21.23.13-3.58.61-9.45.49-15.31-.11-4.93-4.34-9.37-8.72-8.77-4.53.61-9.29,1.75-13.25,3.93-4.8,2.64-8.83,6.67-13.28,9.99-4.78,3.57-9.61,7.09-14.51,10.51-6.34,4.41-12.97,8.44-19.08,13.14-3.65,2.81-6.73,6.44-9.74,9.98-2.64,3.1-3.24,6.97-1.88,10.79,1.34,3.74.17,6.54-2.38,9.13-.92.93-1.83,1.86-2.71,2.83-4.58,5.02-6.03,10.68-3.66,17.21.34.94.54,2.26.15,3.1-2.84,6.12-2.52,12.47-1.85,18.92.67,6.54-.37,12.78-3.92,18.49-2.29,3.69-4.44,7.48-6.59,11.26-1.18,2.07-2.72,4.3-1.03,6.66,1.76,2.46,4.51,1.54,6.97,1.39.21-.01.42-.1.64-.14,17.93-3.67,33.65-11.94,47.16-24.05,23.62-21.17,36.98-48.57,45.99-78.37,3.49-11.53,6.42-23.24,9.57-34.88.37-1.35.78-2.78.69-4.15-.84-12.45-20.07-19.61-27.6-13.18,9.41-3.21,18.28.34,22.13,5.02,3.41,4.14,4.12,8.77,1.76,13.79,1.31-6.18.12-11.39-5.26-15.27-4.1-2.95-12.26-3.94-16.08-1.66,15.09-3.33,24.39,8.29,18.83,17.85.32-3.55.59-6.89-2.28-9.42ZM422.67,303.85c17.5-.43,31.27-2.88,44.6-7.67,6.26-2.25,11.68-5.84,15.9-11.04,4.43-5.47,3.44-10.23-3.25-12.36-6.26-1.99-12.86-3.74-19.35-3.91-7.41-.19-14.94,1.1-22.29,2.42-12.53,2.25-24.98,5.05-36.61,10.45-2.69,1.25-5.24,3.15-7.34,5.25-2.61,2.62-2.53,6.02.29,8.35,2.62,2.17,5.67,4.43,8.87,5.19,7.37,1.75,14.94,2.61,19.19,3.3ZM427.56,460.17c-.2,0-.4,0-.6,0-.08.29-.29.62-.22.86,1.72,5.67.22,10.92-1.93,16.14-.65,1.59-1.09,3.32-1.31,5.03-.5,3.91,1.53,6.17,5.45,5.73,2.43-.27,4.92-1,7.14-2.04,8.38-3.93,14.84-10.19,20.32-17.5,16.29-21.78,20.56-46.8,19.46-73.18-.2-4.89-1.23-9.74-1.88-14.61-.28.03-.56.06-.84.09,1.93,14.49.79,28.82-1.34,43.2-2.88,19.51-10.39,36.72-23.75,51.27-4.36,4.75-8.99,9.34-15.36,11.2-2.18.64-5.59.79-6.91-.46-1.26-1.19-.89-4.54-.56-6.84.37-2.54,1.95-4.92,2.22-7.45.4-3.77.1-7.61.1-11.43ZM557.53,279.86c24.05-.3,48.02.23,70.17-4.44-4.29,0-9.97-.25-15.62.05-18.03.93-35.82-.68-53.58-3.72-5.85-1-12.01-.16-18.03-.16,1.53.74,3.05.72,4.57.75,5.27.09,10.74-.68,15.77.48,11.76,2.71,23.66,3.36,35.6,3.83,5.22.2,10.45.03,15.68.03-.52.29-1.06.35-1.59.37-8.15.33-16.34.27-24.44,1.07-10.36,1.02-20.58,1.34-30.81-1.14-4.15-1.01-8.45-1.36-12.69-2.02-.02.17-.04.34-.06.51,6.11,1.21,12.22,2.42,18.33,3.62-.05.26-.09.51-.14.77h-3.17ZM390.62,296.55c-6.97-.12-25.86,7.12-35.08,13.11-15.72,10.21-27.81,20.26-27.78,23.07,25.69-20.06,18.18-19.8,62.86-36.18ZM390.77,310.67c.04.07.08.15.12.22,9.84-.38,19.69-.71,29.53-1.14,7.92-.35,15.87-.48,23.74-1.38,6.1-.69,12.09-2.41,18.13-3.66-.06-.29-.12-.57-.18-.86-1.68.35-3.35.78-5.05,1.04-8.8,1.34-17.56,3.1-26.41,3.82-7.56.61-15.23-.28-22.83.01-5.7.22-11.36,1.27-17.04,1.96ZM79.71,505.44c-.21-.2-.42-.4-.63-.6-5.84,4.7-11.61,9.5-17.54,14.08-12.69,9.81-20.92,22.51-25.01,37.96-.28,1.04-.56,2.09-.84,3.13.86-.76,1.18-1.67,1.47-2.59,2.63-8.2,5.32-16.52,11.03-23.07,5.53-6.35,11.84-12.06,18.05-17.79,4.27-3.94,8.97-7.43,13.47-11.12ZM388.17,314.57c.14.36.27.73.41,1.09,12.57-4.34,25.15-2.76,37.63-.11,8.85,1.88,17.21.19,25.57-2.31-1.08-.06-2.13.1-3.18.25-5.98.85-11.81,2.77-18.05,1.65-6.08-1.09-12.25-2.08-18.4-2.28-7.12-.23-14.26.41-21.4.76-.87.04-1.72.62-2.58.95ZM408.56,310.69l-.09.53c8.66.77,17.31,1.61,25.98,2.27,2.36.18,4.8.08,7.14-.3,11.34-1.81,22.65-3.75,32.9-5.47-4.81.52-10.78.93-16.66,1.86-9.45,1.48-18.81,3.71-28.5,2.8-6.91-.64-13.84-1.13-20.76-1.69ZM340.72,340.71c15.06-9.84,28.74-21.86,46.03-28.02-18.29,4.52-31.26,17.79-46.03,28.02ZM369.24,334.47c16.12-9.81,34.08-10.47,52.15-10.62-18.22-.69-36.29-.66-52.15,10.62ZM354.55,321.14c6.57-3.8,13.08-7.69,19.71-11.35,6.75-3.73,13.95-6.19,21.7-6.96-10.12-1.9-35.91,11.83-41.42,18.31ZM426.42,319.74c-16.87-2.06-33.42-1.06-49.39,5.25,16.1-5.12,32.59-6.61,49.39-5.25ZM387.59,290.14c-.07-.26-.13-.52-.2-.79-1.94.53-3.9,1.02-5.83,1.6-1.23.37-2.38,1.07-3.62,1.25-3.63.54-7.29.85-10.91,1.37-.9.13-1.74.71-2.6,1.09.38.48.77.97,1.15,1.45,7.87,0,14.77-3.65,22.01-5.98ZM605.64,272.73c-11.46-1.65-22.93-3.3-34.39-4.96,11.07,4.16,22.75,4.42,34.39,4.96ZM296.14,186.7c-.29.08-.58.16-.87.25.38,3.32.76,6.63,1.15,9.95.94,8.07,1.82,16.15,2.85,24.21.23,1.83.96,3.6,1.46,5.39.16-.05.32-.1.47-.15-1.69-13.22-3.37-26.43-5.06-39.65ZM422.73,321.41c-13.24-2.24-40.23,1.94-45.62,7.17,14.47-7.18,30.1-6.79,45.62-7.17ZM352.49,317.52c-.22-.34-.45-.67-.67-1.01-7.66,5.42-15.33,10.85-22.99,16.27.26.37.52.74.78,1.11,7.63-5.46,15.25-10.91,22.88-16.37ZM363.14,301.95c-11.26,5.16-21.23,12.15-30.37,20.36,10.11-6.78,20.21-13.55,30.37-20.36ZM297.5,229.3c.28-.08.56-.15.84-.23-1.05-11.62-2.09-23.24-3.14-34.86-.45,2.42-.19,4.78-.09,7.15.34,7.58.55,15.16.99,22.73.1,1.76.91,3.48,1.39,5.21ZM119.34,414.59c4.46-10.2,8.92-20.41,13.27-30.38-6.82,8.86-9.33,19.94-13.27,30.38ZM333.06,358.79l.58.64c8.26-5.65,16.51-11.31,24.77-16.96-.23-.33-.47-.66-.7-.98-8.22,5.77-16.43,11.54-24.65,17.3ZM392.8,300.22c-10,.67-19.33,4.69-28.63,9.52,9.82-3.26,19.43-6.46,28.63-9.52ZM363.15,300.21c8.55-1.95,16.68-3.79,24.81-5.64-8.6,0-16.76,1.85-24.81,5.64ZM305.08,207.32c-.22.12-.43.23-.65.35.62,3.5,1.37,6.99,1.82,10.52.77,6.06,3.87,8.67,10.33,8.24-1.41-.66-2.65-1.31-3.95-1.82-3.41-1.36-5.39-3.54-5.65-7.48-.22-3.3-1.23-6.54-1.89-9.81ZM491.64,294.13c-9.27-.06-19.13,3.86-29.05,7.6,10.11-2.65,20.22-5.29,29.05-7.6ZM471.66,319.33c-.07-.08-.13-.16-.2-.24-4.6.68-9.22,1.29-13.81,2.06-8.17,1.37-9.02,1.74-11.81,4.08,7.95-1.82,16.88-3.86,25.81-5.9ZM449.63,420.49l-.25-.15v36.08c.08,0,.17,0,.25.01v-35.95ZM408.55,331.08c-10.18-.93-19.89,2.18-27.05,6.82,8.55-4.22,17.59-6.47,27.05-6.82ZM305.88,227.18c-4.92-6.9-3.08-15.19-5.94-22.87.5,5.33.76,10.08,1.45,14.77.45,3.02.7,6.38,4.48,8.1ZM583.32,278.03c.03-.17.05-.35.08-.52-8.81-.69-17.62-1.38-26.43-2.07-.02.32-.04.63-.06.94,8.8.55,17.6,1.1,26.4,1.65ZM313.04,349.52c.19.28.37.57.56.85,5.82-4.37,11.64-8.73,17.46-13.1-.2-.27-.4-.54-.6-.8-5.81,4.35-11.61,8.7-17.42,13.05ZM317.88,308.47c.33.29.65.57.98.86-5.13,5.5-10.26,10.99-15.39,16.49-.04-.03-.07-.06-.11-.09,4.84-5.75,9.68-11.51,14.51-17.26ZM452.95,351.95c.39-7.15-3.95-12.18-10.6-13.13q8.22,5.89,10.6,13.13ZM204.2,338.55c-.22-.18-.45-.37-.67-.55-3.68,6.12-7.36,12.24-11.04,18.36.27.16.54.33.81.49,3.63-6.1,7.27-12.2,10.9-18.3ZM396.12,327.71c0,.23-.01.47-.02.7,6.37-.51,12.73-1.02,19.1-1.52-.03-.33-.06-.65-.09-.98-6.33.6-12.66,1.2-18.99,1.8ZM600.31,269.28c-5.85-2.4-11.37-4.66-16.89-6.92,5.17,3.19,10.24,6.61,16.89,6.92ZM460.68,319.31c-6.08.33-12.42.19-17.96,3.66,5.99-1.22,11.97-2.44,17.96-3.66ZM99.79,460.67c-.24-.12-.49-.25-.73-.37-1.53,6.26-3.06,12.51-4.59,18.77.23.06.46.11.7.17,1.54-6.19,3.09-12.38,4.63-18.57ZM467.14,317.4c.01-.28.02-.55.04-.83-6.54.7-13.08,1.4-19.62,2.11.03.25.06.51.08.76,6.5-.68,13-1.36,19.5-2.04ZM426.93,330.52c4.41-3.19,8.81-6.39,12.91-9.35-5.77.58-9.25,5.08-12.91,9.35ZM201.4,330.88c-.22-.2-.43-.4-.65-.6-3.72,5.02-7.43,10.03-11.15,15.05.24.18.48.35.72.53,3.69-4.99,7.38-9.98,11.08-14.97ZM421.72,348.15c5.61-2.55,11.31-4.7,17.64-3.4-6.49-2.12-12.31-.68-17.64,3.4ZM439.44,429.54c-.21-.01-.42-.02-.63-.04-.4,7.1-.81,14.21-1.21,21.31.15,0,.31.02.46.03.46-7.1.92-14.2,1.38-21.3ZM505.92,273.68c5.27-1.87,9.76-.29,13.89,3.06-4.59-5.26-8.52-6.12-13.89-3.06ZM87.07,532.22c-.23-.08-.45-.15-.68-.23-1.92,5.56-3.83,11.11-5.75,16.67.26.09.52.18.79.26,1.88-5.57,3.76-11.14,5.65-16.71ZM432.98,461.57c.23-.02.45-.04.68-.07-.72-6.75-1.45-13.5-2.17-20.25l-.53.05c.68,6.75,1.35,13.51,2.03,20.26ZM505.12,278.08c4.62-.75,9.33-2.62,13.77,2.55-2.93-5.4-6.41-5.91-13.77-2.55ZM437.72,318.39c0,.31.02.63.02.94,5.28-1.09,10.57-2.18,15.85-3.27-.05-.26-.1-.52-.16-.78-5.24,1.04-10.48,2.07-15.72,3.11ZM548.77,269.05c-.02.25-.04.5-.06.74,5.45.42,10.9.83,16.36,1.25.02-.29.04-.59.07-.88-5.45-.37-10.91-.74-16.36-1.11ZM479.15,267.5c4.92-1.95,9.83-3.89,14.75-5.84-5.18,1.3-10.73,1.71-14.75,5.84ZM184.24,362.04c-.4-.2-.65-.36-.68-.33-3.73,4.31-7.45,8.64-11.17,12.96l.66.54c3.72-4.37,7.43-8.74,11.19-13.16ZM506.88,283.83c.75-1.1,1.46-3.33,2.66-3.64,1.96-.5,4.24.26,6.01.44-.74-1.96-2.94-2.81-6.04-1.61-2.78,1.07-3.49,2.68-2.63,4.81ZM114.79,424.22c-.25-.15-.5-.3-.75-.45-2.05,5.04-4.11,10.07-6.16,15.11.25.1.51.2.76.3,2.05-4.99,4.1-9.98,6.15-14.96ZM282.29,194.19c-.11,0-.22,0-.33,0v17.03c.11,0,.22,0,.33-.01v-17.02ZM239.8,320.59c.2.16.4.31.61.47,2.57-4.4,5.13-8.79,7.7-13.19-.22-.13-.44-.25-.66-.38-2.55,4.37-5.09,8.73-7.64,13.1ZM445.5,453.67h.16v-18.75c-.05,0-.11,0-.16,0v18.76ZM286.76,162.36c2.11,3.9,4.17,7.71,6.23,11.51-1.47-7.48-4.03-11.87-6.23-11.51ZM108.3,519.56c-.18,0-.36-.01-.54-.02-.36,5.02-.72,10.05-1.08,15.07.19.01.38.02.57.03.35-5.03.7-10.06,1.04-15.09ZM322.85,352.78c.16.23.32.46.48.69,3.88-2.61,7.76-5.22,11.64-7.83-.17-.24-.33-.48-.5-.73-3.87,2.62-7.75,5.25-11.62,7.87ZM117.11,536.88c-.23-.04-.47-.09-.7-.13-1.17,4.41-2.34,8.82-3.51,13.23l.57.15c1.21-4.41,2.43-8.83,3.64-13.24ZM464.99,417.91c-.19.04-.38.09-.57.13v16.38c.09-.35.53-1.25.54-2.15.07-4.79.03-9.57.03-14.36ZM289.33,310.5c-.3-.24-.59-.47-.89-.71-2.12,3.32-4.25,6.64-6.37,9.96.26.17.51.34.77.51,2.17-3.26,4.33-6.51,6.5-9.77ZM294.39,228.9c.1-.02.21-.04.31-.06v-11.62l-.31.02v11.66ZM280.01,149.92c-2.26-3.62-4.73-7.05-9.01-7.84,2.89,2.51,5.95,5.18,9.01,7.84ZM427.55,324.49c-3.78,3.18-5.32,7.05-6.53,11.12,2.07-3.52,4.14-7.04,6.53-11.12ZM108.36,549.86c.18.05.37.1.55.15,1.13-4.04,2.26-8.08,3.4-12.12-.19-.05-.38-.1-.57-.15-1.13,4.04-2.26,8.08-3.39,12.12ZM157.23,388.02c.25.26.49.52.74.79,2.59-2.77,5.19-5.54,6.63-7.08-1.62,1.38-4.49,3.84-7.37,6.3ZM436.88,346.73c-.02-.29-.05-.59-.07-.88-3.08.29-6.15.59-9.23.88l.06.66c3.08-.22,6.16-.44,9.24-.66ZM491.18,298.64c-.05-.3-.09-.59-.14-.89-3.53.56-7.06,1.12-10.59,1.68.04.25.08.51.12.76,3.54-.52,7.07-1.03,10.61-1.55ZM44.74,549.65l-.04-.12c2.72-2.45,5.45-4.9,8.17-7.35-.07-.06-.14-.13-.21-.19-2.64,2.55-5.28,5.11-7.92,7.66Z"/>
  <path d="M329.8,218.78c2.98,1.18,5.96,2.36,9.69,3.84-5.66-.54-10.72-1.03-15.52-1.49,3.04,2.56,7.3,3.38,11.44,3.89,4.16.51,8.43.11,13.53.11-11.71,1.39-22.48,2.03-32.95-2.09,0,0-.24-.17-.23-.17-1.32-2.39-2.64-4.77-3.95-7.16-1.25-3.97-2.46-7.95-3.79-11.89-.39-1.15-1.12-2.18-1.69-3.27l.1.08c-.52-1.52-1.04-3.03-1.55-4.55-1.69-5.04-3.37-10.08-5.06-15.12-.93-2.44-1.86-4.87-2.78-7.31.08-.22.17-.44.25-.67,1.52,2.65,3.04,5.3,4.56,7.95,1.87,4.89,3.74,9.78,5.6,14.67,2.21,6.64,2.8,13.92,7.84,19.84-2.13-5.82-4.09-11.29-6.14-16.72-.41-1.08-1.17-2.04-1.76-3.06-1.86-4.9-3.73-9.79-5.61-14.68-3.05-6.44-6.11-12.89-9.16-19.33-.64-.98-1.28-1.95-1.93-2.93.92.74,2.06,1.33,2.72,2.26,2.04,2.82,3.9,5.77,5.83,8.67.07.53.03,1.1.22,1.58,4.07,10.4,8.15,20.79,12.26,31.17.31.78.81,1.49,1.22,2.24.23-.13.46-.25.69-.38-3.78-10.09-7.56-20.18-11.34-30.27.07-.04.15-.07.22-.11,2.37,4.55,4.73,9.1,7.1,13.65,1.73,5.53,3.3,11.11,5.26,16.56,1.01,2.82,2.11,5.87,5.43,7.03,3.16,2.55,6.32,5.11,9.48,7.66Z"/>
  <path d="M109.52,423.32c-.12-.68-.54-1.49-.31-2.01,6.04-13.66,12.14-27.3,18.26-40.93.3-.67.87-1.22,1.01-1.92-6.36,14.97-12.71,29.94-19.07,44.91,0,0,.11-.04.11-.04Z"/>
  <path d="M282.81,150.37c3.92-.05,4.76,3.54,6.78,5.73.36.88.73,1.75,1.09,2.63.64.98,1.28,1.95,1.93,2.93.36,1.12.64,2.27,1.1,3.34,1.15,2.68,2.37,5.32,3.57,7.98-.08.22-.17.45-.25.67-.32-.17-.64-.34-.97-.51-.21-.14-.27-.32-.2-.56-.08-.46-.16-.91-.25-1.37-4.04-6.54-8.09-13.08-12.13-19.62-.23-.41-.45-.82-.68-1.23Z"/>
  <path d="M142.53,368.16c4.31-6.02,8.62-12.04,12.94-18.06.3-.42.7-.78,1.06-1.17.4.23.8.46,1.2.68-4.98,6.89-9.93,13.8-14.96,20.66-.32.44-1.18.48-1.79.71.52-.94,1.04-1.88,1.55-2.82Z"/>
  <path d="M311.8,215.71c1.32,2.39,2.64,4.78,3.95,7.16-1.71-1.68-3.99-3.07-5-5.1-1.76-3.54-2.73-7.47-4.04-11.24-.1-1.97-.2-3.94-.3-5.91,0,0-.1-.08-.1-.08,1.83,5.05,3.66,10.11,5.48,15.16Z"/>
  <path d="M260.35,306.46c5.47-5.05,10.94-10.1,16.41-15.15.13.15.26.31.39.46-5,5.24-9.98,10.48-15.01,15.69-.32.33-.98.34-1.48.5-.03-.29-.05-.57-.08-.86-.08-.21-.15-.43-.23-.64Z"/>
  <path d="M397.78,274.23c.04-.35.08-.7.12-1.06.21,0,.43-.01.64-.02.44-.28.88-.56,1.33-.84,5.6-.72,10.09-3.71,14.41-7.04l-.12.13c2.64-1.54,5.28-3.08,7.92-4.62,0,0-.06-.07-.06-.07-3.93,2.89-7.78,5.92-11.83,8.64-2.81,1.89-5.91,3.36-8.87,5.01-1.18,0-2.37-.01-3.55-.02,0,0,.01-.11.01-.11Z"/>
  <path d="M283.51,306.54c3.52-4.52,7.05-9.03,10.57-13.55.15-.2.31-.4.46-.6.64-.14,1.28-.28,1.93-.43-1.02,1.35-1.75,3.19-3.1,3.95-3.44,1.93-5.39,4.79-6.56,8.37-.05.16-.1.32-.17.47-1.07.57-2.13,1.15-3.2,1.72,0,0,.07.06.07.06Z"/>
  <path d="M297.18,302.48c3.13-3.04,6.26-6.09,9.39-9.13-.84.84-1.81,1.58-2.49,2.53-.58.8-.83,1.85-1.23,2.78-.34.66-.68,1.32-1.02,1.98,0,0-.04,0-.04,0-.4.42-.81.83-1.21,1.25-.25.28-.5.56-.76.85-1.76,1.4-3.52,2.79-5.27,4.19.88-1.48,1.75-2.97,2.63-4.45Z"/>
  <path d="M338.64,307.12c-2.25,2.42-4.51,4.84-6.76,7.27-1.31.66-2.62,1.31-3.93,1.97-.21-.22-.42-.45-.63-.67,2.87-2.65,5.69-5.37,8.65-7.92.62-.53,1.77-.45,2.67-.64Z"/>
  <path d="M337.03,290.98c-1.85,1.88-3.62,3.85-5.6,5.59-.82.72-2.1.92-3.17,1.35-.21-.03-.42-.07-.62-.11,0,0-.22-.18-.22-.18,0,0,.01.02.01.02,3.2-2.19,6.4-4.39,9.61-6.58,0,0-.01-.09-.01-.09Z"/>
  <path d="M571.39,263.77c-2.74-2.72-5.48-5.43-7.86-7.79,2.78,1.53,6.17,3.38,9.55,5.24-.57.85-1.13,1.7-1.69,2.55Z"/>
  <path d="M290.74,235.94c.33-.45.66-.9,1-1.33.47.42.94.83,1.4,1.24,2.67.45,5.35.91,8.02,1.36-4.63,2.27-6.9,2.16-9.41-.43-.34-.28-.67-.56-1.01-.83Z"/>
  <path d="M135.76,384.44c1.53-2.41,3.11-4.79,4.56-7.25,1-1.69,1.81-3.48,2.71-5.22.36.2.72.4,1.07.6-2.47,4.32-4.94,8.64-7.45,12.93-.08.14-.61.02-.93.03,0-.36.02-.72.03-1.08Z"/>
  <path d="M280.26,237.15c-.14.92-.28,1.84-.43,2.77-.09.11-.18.22-.27.34-1.98,1.86-3.95,3.72-5.93,5.57-.17-.18-.35-.36-.52-.54,2.38-2.71,4.77-5.42,7.15-8.14Z"/>
  <path d="M124.55,516.59c-2.39-1.56-4.8-3.09-7.16-4.69-.93-.63-1.74-1.42-2.61-2.14,3.59,2.39,7.18,4.79,10.76,7.18-.33-.12-.66-.23-1-.35Z"/>
  <path d="M299.9,303.16l-2.18,4.02c-1.55,1.28-3.1,2.57-4.65,3.85.08-.41.15-.83.23-1.24.24-.24.47-.48.71-.73,0,0-.12.11-.12.11.26-.26.51-.51.77-.77,0,0-.1.11-.1.11,1.78-1.79,3.56-3.58,5.34-5.36Z"/>
  <path d="M397.78,274.23s-.01.11-.01.11c-.12.05-.24.06-.34.05-.58.21-1.17.42-1.76.64l-.11-.8h2.22Z"/>
  <path d="M457.48,257.51c-.37.21-.74.42-1.1.63-.15.01-.28.05-.41.12.17-.38.26-.84.54-1.11.1-.1.64.24.97.37Z"/>
  <path d="M454.34,258.86c.34-.12.68-.24,1.02-.36-.34.12-.68.24-1.02.36Z"/>
  <path d="M327.42,297.63s.22.18.22.18c-.11.1-.22.19-.35.27l-.07-.07c.06-.14.12-.26.2-.39Z"/>
  <path d="M316.92,323.75s.07-.13.07-.13-.07.13-.07.13Z"/>
  <path d="M222.08,316.93c-.09.22-.17.44-.26.66-.13-.08-.27-.15-.41-.21.22-.15.45-.3.67-.44Z"/>
  <path d="M327.29,298.08s-.07-.07-.07-.07c0,0,.07.07.07.07Z"/>
  <path d="M284.08,251.64c-2.7.18-5.4.37-7.9.54,3.27-1.6,6.81-3.33,10.36-5.07-.08-.2-.16-.39-.23-.59-2.8,1.02-5.6,2.03-8.79,3.19,7.12-8.59,16.82-7.69,25.94-8.69-4.6,1.69-9.21,3.38-13.81,5.07.03.06.06.11.08.17,15.61-4.25,31.22-8.51,46.84-12.76.1.33.2.65.29.98-2.85.87-5.69,1.76-8.55,2.6-3.02.89-6.06,1.7-9.07,2.6-5.52,1.66-11.03,3.35-16.54,5.04-3.7,1.14-7.44,2.19-11.08,3.5-1.66.6-3.14,1.7-4.71,2.58-.94.28-1.88.56-2.82.85Z"/>
  <path d="M312.3,187.41c-1.97-5-3.59-10.17-6.01-14.94-2.53-5-5.83-9.61-8.8-14.39,1.3,1.21,3.03,2.18,3.84,3.66,4.66,8.58,9.18,17.22,13.57,25.94,2.54,5.04,4.97,10.17,7.04,15.42,3.16,8.01,8.57,13.2,17.19,14.88-5.51.61-9.66-2.28-13.85-5.07-.3-.39-.6-.78-.91-1.18-3.55-7.53-7.09-15.06-10.67-22.57-.31-.66-.93-1.18-1.4-1.76Z"/>
  <path d="M393.05,257.3c-3.6,3.6-7.16,7.24-10.84,10.77-.75.72-1.88,1.06-2.87,1.49-10.15,4.3-20.31,8.58-30.47,12.87-.37.16-.74.3-1.29.11,14.79-8.95,31.46-14.59,45.47-25.24Z"/>
  <path d="M300.1,248.2c2.35-1.18,4.7-2.37,7.05-3.55.1.2.21.4.31.61-6.15,3.69-12.22,7.52-18.47,11.02-6.5,3.64-13.17,6.96-19.91,10.49,6.94-4.71,13.72-9.31,20.5-13.91,3.51-1.55,7.01-3.1,10.52-4.65Z"/>
  <path d="M471.77,228.45c20.39.8,40.78,1.6,61.18,2.4,0,.19-.02.39-.02.58-20.4-.75-40.81-1.49-61.21-2.24.02-.25.04-.49.06-.74Z"/>
  <path d="M337.03,290.98s.01.09.01.09c1.87-1.38,3.56-3.16,5.64-4.05,8.17-3.49,16.46-6.71,24.7-10.02-2.36,1.1-4.77,2.12-7.07,3.34-1.79.95-3.44,2.15-5.15,3.24-3,1.22-6.05,2.34-8.99,3.68-1.93.87-3.67,2.18-5.6,3.05-1.06.48-2.35.47-3.53.68Z"/>
  <path d="M558.67,229.86c-19.4-2.55-38.8-5.09-58.19-7.64,19.44,2.29,39.15,2.65,58.19,7.94.03,0,0,.22,0-.3Z"/>
  <path d="M300.1,248.2c-3.51,1.55-7.01,3.1-10.52,4.65-1.45.41-2.88,1.06-4.34,1.15-.85.05-1.76-.81-2.64-1.26.49-.36.98-.72,1.47-1.09.94-.28,1.88-.56,2.82-.85,3.49-1.18,6.96-2.45,10.5-3.45.76-.22,1.8.55,2.71.86Z"/>
  <path d="M549.37,259.13c-8.45.14-16.9.29-25.35.41-3.44.05-6.88,0-10.33-.12,11.85-1.24,23.71-2.12,35.64-.3.01,0,.03,0,.03,0Z"/>
  <path d="M381.13,262.9c-7.17,3.78-14.33,7.57-21.5,11.35,2.14-3.89,12.79-9.32,21.5-11.35Z"/>
  <path d="M322.52,197.68c3.64,10.81,10.22,17.67,22.54,16.83-14.76,1.55-18.79-4.16-22.54-16.83Z"/>
  <path d="M606.15,263.17c-6.71-5.46-14.25-11.6-21.8-17.74,8.36,5.13,16.83,10.1,21.8,17.74Z"/>
  <path d="M324.38,211.75c.3.39.6.78.91,1.18,2.03,1.87,4.05,3.74,6.35,5.86-.69,0-1.26,0-1.83,0-3.16-2.55-6.32-5.11-9.48-7.66-.35-1.09-.66-2.19-1.05-3.26-.63-1.76-1.32-3.49-1.98-5.24l-.12.39c2.4,2.91,4.81,5.83,7.21,8.74Z"/>
  <path d="M368.41,278.76c2.2-1.21,4.39-2.41,6.59-3.62,5.51-2.43,11.02-4.86,16.51-7.29-6.6,5.82-14.95,8.14-23.09,10.9Z"/>
  <path d="M157.73,349.61c-.4-.23-.8-.46-1.2-.68,2.25-2.76,4.5-5.51,6.75-8.27,1.81-2.19,3.61-4.38,5.42-6.57-2.1,6.2-6.98,10.55-10.97,15.52Z"/>
  <path d="M334.75,277.93c-5.07,3.08-9.63,5.84-14.72,8.93.74-2.86,11.36-9.09,14.72-8.93Z"/>
  <path d="M160.69,332.7c-5.46,7.13-10.92,14.27-16.38,21.4-.22-.17-.45-.34-.67-.51,5.45-7.18,10.9-14.36,16.35-21.54.23.22.47.44.7.65Z"/>
  <path d="M478.79,225.57h-36.12c0-.09,0-.18,0-.27h36.14c0,.09-.01.18-.02.27Z"/>
  <path d="M316.32,177.66c4.66,7.61,9.33,15.23,13.99,22.84-.25.15-.49.31-.74.46-4.68-7.63-9.37-15.26-14.05-22.89.27-.14.53-.27.8-.41Z"/>
  <path d="M336.14,204.74c-4.36-6.57-8.71-13.14-13.07-19.71.24-.16.48-.32.72-.48,4.4,6.5,8.79,13.01,13.19,19.51-.28.23-.56.46-.84.68Z"/>
  <path d="M514.64,226.23c-10.76-.94-21.52-1.87-32.27-2.81.02-.19.03-.38.05-.56,10.76.97,21.51,1.93,32.27,2.9-.01.16-.03.32-.04.47Z"/>
  <path d="M433.43,227.55h34.85c0,.1,0,.19,0,.29h-34.85c0-.1,0-.19,0-.29Z"/>
  <path d="M408.63,267.94c2.06-1.86,4.14-3.7,6.17-5.59.46-.43.73-1.06,1.08-1.59.83-.55,1.6-1.26,2.51-1.61.82-.32,1.79-.24,2.79-.35-2.31,2.17-4.67,4.39-7.03,6.61,0,0,.12-.13.12-.13-1.88.89-3.76,1.77-5.64,2.66Z"/>
  <path d="M186.59,305.84c-5.68,5.31-11.37,10.63-17.05,15.94-.15-.16-.3-.31-.44-.47,5.63-5.38,11.25-10.77,16.88-16.15.2.22.41.45.61.67Z"/>
  <path d="M166.17,331.87c4.74-5.67,9.47-11.35,14.21-17.02.17.15.34.29.52.44-4.64,5.75-9.28,11.5-13.92,17.25-.27-.23-.54-.45-.8-.68Z"/>
  <path d="M405.93,237.11c8.1-2.35,16.21-4.7,24.31-7.05l.15.53c-8.1,2.38-16.19,4.75-24.29,7.13-.06-.2-.12-.41-.17-.61Z"/>
  <path d="M286.81,304.28c1.06-.77,2.25-1.42,3.17-2.34,3.24-3.23,6.38-6.56,9.56-9.85-4.49,5.37-8.98,10.73-13.47,16.1.19-1.14.38-2.28.57-3.43.07-.16.12-.32.17-.48Z"/>
  <path d="M461.54,219.33h-29.6c0-.06,0-.11,0-.17h29.59c0,.06,0,.11,0,.17Z"/>
  <path d="M369.49,280.54c4.91-1.54,9.83-3.07,14.81-4.63-1.19,2.17-9.24,5.01-14.81,4.63Z"/>
  <path d="M322.06,266.02c5.94-2.96,11.88-5.92,17.81-8.88.08.16.17.33.25.49-5.84,3.06-11.69,6.11-17.53,9.17-.18-.26-.36-.52-.54-.78Z"/>
  <path d="M509.37,253.29c3.49-.3,6.98-.71,10.48-.87,3.45-.15,6.92-.03,9.3-.03-5.87.5-12.79,1.09-19.72,1.68-.02-.26-.04-.52-.06-.78Z"/>
  <path d="M315.97,278.76c4.8-2.75,9.6-5.51,14.4-8.26.15.26.3.51.46.77-4.76,2.75-9.53,5.49-14.29,8.24-.19-.25-.38-.5-.57-.74Z"/>
  <path d="M388.66,267.23c-4.4,3.96-9.79,5.53-15.51,6.29,5.19-2.08,10.37-4.15,15.56-6.23l-.05-.06Z"/>
  <path d="M491.36,240.23c7.07-.39,14.14-.77,21.22-1.16v.27c-7,.48-14.02.96-21.03,1.44-.06-.19-.12-.37-.19-.56Z"/>
  <path d="M306.98,295.77c.7-.85,1.41-1.68,2.09-2.55.96-1.23,1.89-2.49,2.84-3.74,1.61-.86,3.21-1.73,4.82-2.59.23.33.47.66.7,1-3.48,2.63-6.96,5.26-10.45,7.89Z"/>
  <path d="M310.25,248.9c5.12-1.68,10.24-3.36,15.36-5.04.07.2.14.4.21.6-5.08,1.72-10.16,3.45-15.24,5.17-.11-.24-.21-.49-.32-.73Z"/>
  <path d="M360.63,228.86c3.97-1.5,7.95-3,11.92-4.5.1.27.2.55.29.82-3.97,1.5-7.95,2.99-11.92,4.49-.1-.27-.2-.54-.29-.82Z"/>
  <path d="M353.79,242.69c-4.7,1.5-9.4,3.01-14.1,4.51l-.21-.64c4.72-1.5,9.44-3.01,14.16-4.51.05.21.1.43.15.64Z"/>
  <path d="M287.61,240.28c-1.98,1.57-3.95,3.15-6.2,4.94.13-2.89,2.78-5.36,5.72-5.81.16.29.32.58.48.88Z"/>
  <path d="M370.94,256.93c-3.45,2.54-6.9,5.09-10.34,7.63-.16-.21-.32-.42-.49-.63,3.4-2.61,6.8-5.22,10.2-7.84l.63.83Z"/>
  <path d="M373.06,250.35c4.53-1.74,9.06-3.47,13.59-5.21.09.25.19.49.28.74-4.54,1.71-9.09,3.41-13.63,5.12-.08-.21-.16-.43-.25-.64Z"/>
  <path d="M151.48,365.38c2.88-4.11,5.75-8.23,8.63-12.34-2.01,4.74-4.42,9.18-8.69,12.28,0,0,.06.06.06.06Z"/>
  <path d="M177.92,328.2c-2.79,3.61-5.59,7.23-8.38,10.84-.23-.18-.46-.36-.69-.54,2.83-3.58,5.66-7.17,8.5-10.75.19.15.38.3.57.45Z"/>
  <path d="M467.21,232.19h18.13c0,.09,0,.18,0,.26h-18.13c0-.09,0-.18,0-.26Z"/>
  <path d="M422.08,260.78c2.5-3.42,5.41-6.32,10.57-7.85-4.04,2.96-7.34,5.37-10.63,7.78,0,0,.06.07.06.07Z"/>
  <path d="M594.99,255.43c3.36,2.98,6.72,5.97,10.08,8.95-.18.21-.35.42-.53.63-3.41-2.98-6.81-5.95-10.22-8.93.22-.22.45-.43.67-.65Z"/>
  <path d="M388.71,267.29c3.45-2.48,6.89-4.96,10.34-7.44.25.4.5.79.75,1.19-3.72,2.06-7.43,4.12-11.15,6.19,0,0,.05.06.05.06Z"/>
  <path d="M600.83,266.01c-2.84-1.7-5.68-3.39-8.53-5.09.13-.23.26-.46.4-.69,2.91,1.53,5.82,3.06,8.73,4.59-.2.4-.4.79-.6,1.19Z"/>
  <path d="M480.95,256.82c4.86-.66,9.72-1.32,14.57-1.98.03.25.07.5.1.75-4.86.59-9.73,1.19-14.59,1.78-.03-.19-.06-.37-.09-.56Z"/>
  <path d="M326.5,287.86c3.23-1.81,6.45-3.63,9.68-5.44.13.22.26.45.39.67-3.21,1.85-6.42,3.69-9.63,5.54-.15-.26-.29-.51-.44-.77Z"/>
  <path d="M382.28,258.86c-3.37,2.17-6.74,4.33-10.11,6.5-.15-.23-.31-.47-.46-.7,3.32-2.18,6.64-4.35,9.96-6.53.2.24.41.48.61.73Z"/>
  <path d="M496.91,232.92h15.82s0,.09,0,.14h-15.84l.02-.14Z"/>
  <path d="M553,232.66c-3.68-.55-7.35-1.1-11.03-1.65.04-.24.07-.47.11-.71,3.67.56,7.35,1.12,11.02,1.67-.03.23-.07.46-.1.68Z"/>
  <path d="M495.85,227.54c-4.49-.27-8.99-.54-13.48-.81,0-.17.02-.33.03-.5,4.49.26,8.99.52,13.48.78,0,.18-.02.35-.03.53Z"/>
  <path d="M542.09,236.32h-15.15c0-.09,0-.18,0-.27h15.23c-.03.09-.05.18-.08.27Z"/>
  <path d="M520.43,235.79h-15.21c0-.08,0-.15,0-.23h15.21c0,.08,0,.15,0,.23Z"/>
  <path d="M511.8,228.28h14.52s0,.09,0,.14h-14.52s0-.09,0-.14Z"/>
  <path d="M454.5,221.31h-14.53c0-.05,0-.11,0-.16h14.54c0,.05,0,.11,0,.16Z"/>
  <path d="M326,248.31c3.6-1.54,7.19-3.07,10.79-4.61.08.19.16.38.24.57-3.6,1.53-7.19,3.07-10.79,4.6l-.24-.56Z"/>
  <path d="M207.49,288.12c-2.97,2.39-5.94,4.77-8.91,7.16-.15-.19-.3-.37-.46-.56,2.96-2.4,5.92-4.79,8.88-7.19.16.2.32.39.48.59Z"/>
  <path d="M171.74,350.33c1.95-3.35,3.91-6.7,5.86-10.05l.96.62c-2.29,3.13-4.59,6.25-6.88,9.38,0,0,.06.06.06.06Z"/>
  <path d="M328.51,201.14c2.35,2.58,4.71,5.16,7.06,7.74-.23.21-.46.42-.69.62-2.33-2.62-4.65-5.24-6.98-7.87.2-.17.41-.33.61-.5Z"/>
  <path d="M157.59,364.13c2.16-2.78,4.31-5.55,6.47-8.33.22.17.43.34.65.51-2.2,2.77-4.4,5.53-6.6,8.3-.17-.16-.34-.33-.51-.49Z"/>
  <path d="M497.25,222.19c-4.27-.3-8.55-.61-12.82-.91,0-.14.01-.29.02-.43,4.24.27,8.48.55,12.72.82.03.17.05.34.08.52Z"/>
  <path d="M143.68,360.58c1.81-2.8,3.62-5.61,5.43-8.41.21.14.42.28.63.42-1.84,2.83-3.69,5.66-5.53,8.5-.18-.17-.35-.34-.53-.51Z"/>
  <path d="M174.88,325.94c1.01-.88,2.01-1.76,3.02-2.63.15.16.3.31.44.47-.97.92-1.94,1.84-2.91,2.76-.19-.2-.37-.4-.56-.6Z"/>
  <path d="M303.8,298.16c1.08-.83,2.16-1.66,3.23-2.5-.04.5-.08,1-.12,1.49-.17.3-.34.59-.52.89-.22.22-.44.44-.66.66-.68.22-1.36.44-2.03.66-.11-.24-.23-.48-.34-.71.18-.2.35-.4.53-.6,0,0-.1.1-.1.1Z"/>
  <path d="M223.28,316.29c-.42.24-.85.48-1.27.72.42-.24.85-.48,1.27-.72Z"/>
  <path d="M404.45,265.28c-.69.47-1.38.93-2.07,1.4.69-.47,1.38-.93,2.07-1.4Z"/>
  <path d="M402.51,266.58c-.46.57-.91,1.14-1.37,1.72.46-.57.91-1.14,1.37-1.72Z"/>
  <path d="M608.71,260.88c.24.27.48.53.72.8-.11.1-.22.2-.34.29-.24-.27-.47-.54-.71-.81.11-.09.21-.19.32-.28Z"/>
  <path d="M397.87,272.52c.22.21.45.43.67.64-.21,0-.43.01-.64.02-.01-.22-.02-.44-.03-.66Z"/>
  <path d="M405.3,265.36c-.32-.01-.64-.03-.96-.04.32.01.64.03.96.04Z"/>
  <path d="M511.86,341.04c-13.75,8.99-26.98,19.14-43.97,21.92,16.16-4.35,29.91-13.36,43.97-21.92Z"/>
  <path d="M488.4,357.56c8.62-4.46,17.24-8.91,25.87-13.37.12.23.24.46.36.69-8.63,4.43-17.27,8.87-25.9,13.3-.11-.21-.22-.41-.32-.62Z"/>
  <path d="M609.59,306.32c-5.66,3.24-11.31,6.47-16.97,9.71.65-.69,1.2-1.56,1.98-2.04,5.99-3.66,12.03-7.24,18.41-10.27-1.14.87-2.28,1.74-3.42,2.61Z"/>
  <path d="M576.34,326.88c6.72-3,13.44-6,20.16-9,.14.31.28.62.42.93-6.76,2.92-13.51,5.83-20.27,8.75-.1-.23-.21-.45-.31-.68Z"/>
  <path d="M473.48,358.61c-4.83,1.9-9.66,3.8-14.49,5.7-.1-.24-.19-.49-.29-.73,4.81-1.97,9.61-3.94,14.42-5.91.12.32.24.63.35.95Z"/>
  <path d="M466.05,367.5c4.69-2.05,9.37-4.09,14.06-6.14.12.26.23.53.35.79-4.68,2.06-9.36,4.11-14.05,6.17l-.36-.83Z"/>
  <path d="M543.2,338.02c-4.77,2.38-9.53,4.76-14.3,7.14l-.33-.66c4.77-2.37,9.54-4.74,14.32-7.11.11.21.21.42.32.63Z"/>
  <path d="M489.92,349.06c-4.28,2.35-8.56,4.7-12.85,7.04-.11-.21-.23-.41-.34-.62,4.25-2.38,8.5-4.76,12.75-7.14l.44.71Z"/>
  <path d="M517.31,351.6c3.95-1.53,7.91-3.06,11.86-4.59.08.2.16.4.23.6-3.88,1.58-7.75,3.15-11.63,4.73-.16-.25-.31-.5-.47-.74Z"/>
  <path d="M243.75,390.27c12.36,0,24.72.04,37.09-.01,11.84-.05,23.68-.22,35.52-.31,4.45-.03,8.89,0,12.35,0-17.75,1.68-36.46,3.27-55.31.74-7.08-.95-14.34-.51-21.52-.67-2.71-.06-5.42,0-8.13,0,0,.09,0,.17,0,.26Z"/>
  <path d="M340.56,396.27c-15.05.33-30.11.67-45.16,1,0-.19-.01-.38-.02-.57,15.05-.44,30.1-.88,45.15-1.32,0,.29.02.59.02.88Z"/>
  <path d="M221.96,401.09c1.63-.58,3.25-1.58,4.91-1.66,15.28-.7,30.58-1.24,45.87-1.83.01.35.02.7.03,1.04-10.18,0-20.37-.3-30.53.1-6.78.27-13.52,1.52-20.28,2.33h0Z"/>
  <path d="M276.65,388.05h29.11c.01.31.03.62.04.92-3.19.16-6.37.43-9.56.45-3.26.02-6.53-.13-9.78-.36-3.35-.24-6.68-.68-9.82-1.01Z"/>
  <path d="M277.87,398.79h41.75c0,.14,0,.29,0,.43h-41.64c-.03-.14-.07-.29-.1-.43Z"/>
  <path d="M149.15,427.61c-5.84,5.93-11.68,11.87-17.53,17.8-.42-.42-.84-.84-1.27-1.27,5.91-5.87,11.81-11.74,17.72-17.61l1.07,1.07Z"/>
  <path d="M210.59,390.49c8.55-1.33,17.11-2.66,25.66-3.99.02.17.05.34.07.51-8.51,1.45-17.01,2.9-25.52,4.34-.07-.29-.15-.58-.22-.87Z"/>
  <path d="M344.73,393.14c-8.64.77-17.28,1.54-25.92,2.31l-.07-.8c8.64-.68,17.28-1.37,25.92-2.05.02.18.04.36.07.55Z"/>
  <path d="M291.3,396.86c-7.73-.57-15.45-1.15-23.18-1.72.01-.23.03-.45.04-.68,7.73.53,15.46,1.05,23.19,1.58-.02.27-.03.55-.05.82Z"/>
  <path d="M239.32,376.36c-5.87-.34-11.73-.69-17.6-1.03,0,.14,0,.27,0,.41h17.75c-.05.21-.09.42-.14.62Z"/>
  <path d="M259.72,386.75h-17.89c0-.08,0-.16,0-.24h17.82c.02.08.05.16.07.24Z"/>
  <path d="M221.96,401.09c-5.45.86-10.9,1.73-16.35,2.59l-.1-.89c5.48-.57,10.96-1.13,16.45-1.7,0,0,0,0,0,0Z"/>
  <path d="M296.04,384.91c-4.08-.65-8.15-1.31-12.23-1.96.04-.27.09-.54.13-.81,4.07.69,8.14,1.39,12.21,2.08-.04.23-.07.46-.11.69Z"/>
  <path d="M233.9,395.45c4.72-.28,9.44-.56,14.16-.84,0,.16.02.32.03.48-4.74.32-9.49.64-14.23.96.01-.2.03-.4.04-.6Z"/>
  <path d="M373.67,416.61c-.38,1.08-.71,2.17-1.14,3.23-.45,1.09-1.01,2.13-1.53,3.19-.42.72-.85,1.45-1.27,2.17-2.01,5.9-4.02,11.8-6.03,17.7.33.11.67.22,1,.33,2.14-6.02,4.27-12.04,6.41-18.06.42-.45.85-.89,1.27-1.34.32.13.94.37.93.38-1.58,4.32-3.22,8.62-4.84,12.93-.98,2.62-1.94,5.25-2.91,7.87-.34.55-.68,1.11-1.01,1.66-.64,1.56-1.48,3.07-1.87,4.69-1.3,5.4-2.44,10.84-3.61,16.27-.32,1.46-.56,2.94-.83,4.41-.98,2.17-1.97,4.33-2.95,6.5.22.14.45.28.67.42,1.11-1.06,2.22-2.11,3.32-3.17,1.56-.64,3.12-1.28,4.68-1.92-1.91,2.24-3.34,4.67-6.51,5.91-3.97,1.56-7.49,4.28-11.2,6.51-.58.13-1.15.25-2.07.45,2.02-3.42,3.96-6.63,5.84-9.86,3.56-6.12,5.01-12.73,4.2-19.74-.76-6.58-.87-13.01,2.3-19.13.37-.72.16-1.86-.04-2.74-1.38-5.9-1.68-11.41,3.21-16.23,2.65-2.61,4.6-5.95,6.95-9.08-2.72,8.46-10.35,15.68-6.98,25.95.65-1.56,1.24-2.99,1.83-4.42l.37.08c-.2,1.98-.4,3.96-.6,5.95l.36.05c.75-3.54,1.49-7.07,2.24-10.61l.76.09c-.19,1.6-.37,3.2-.57,4.9,2.84-4.81,5.64-9.56,8.44-14.3.39-.34.77-.68,1.16-1.02ZM356.76,447.35c0,2.92-.24,5.85.04,8.74.91,9.35-.55,18.07-6.66,26.08,1.71-.64,2.95-1.11,4.2-1.58-.3-.08-.6-.16-.9-.23,5.28-10.65,5.18-21.77,3.32-33.01Z"/>
  <path d="M363.99,457.07c.28-.33.69-.61.83-.99,4.11-10.85,13.2-16.54,22.46-22.25,3.43-2.11,6.38-5.12,9.19-8.07,6.5-6.83,10.09-15.2,11.95-25.04,1.14,5.6-3.38,16.78-7.1,22.99-4.23,7.07-9.36,13.09-17.7,15.41.89-.69,1.78-1.36,3.14-2.41-5.38,1.44-11.15,5.41-13.11,8.74-.09.08-.17.17-.26.25-5.09,4.98-7.13,11.6-9.78,17.89,1.74-2.85,3.1-5.9,4.7-8.82,1.45-2.64,3.14-5.15,4.73-7.72.51-.07,1.03-.14,1.54-.21,3.48-1.33,7-2.55,10.42-4.02,2.5-1.08,4.87-2.47,7.3-3.72,1.13-.48,2.25-.95,3.38-1.43,2.48-2.31,5.3-4.36,7.37-7,3.25-4.16,6.08-8.66,8.92-13.12,1.84-2.9,3.38-5.99,5.47-8.81-1.17,2.69-2.35,5.38-3.52,8.08-1.75,4.04-3.47,8.1-5.27,12.12-.34.76-1.04,1.37-1.58,2.04-.09-.16-.16-.34-.27-.48-.02-.03-.21.03-.29.1-3.74,3-7.27,6.32-11.27,8.93-3.48,2.28-7.47,3.77-11.24,5.6-2.33.97-4.66,1.93-6.98,2.9-1.97,1.82-3.94,3.63-5.72,5.27,8.46-3.62,16.96-7.26,25.46-10.9-4.47,2.4-8.87,4.96-13.43,7.17-6.57,3.19-12.84,6.73-17.23,12.8-.67.93-1.09,2.03-1.63,3.06,0,0,.12-.13.12-.13-2.07,2.24-4.15,4.47-6.22,6.71,1.84-4.95,3.69-9.91,5.53-14.86,0,0,.08-.08.08-.08Z"/>
  <path d="M364.56,446.68l1.01-1.66c2.36-3.19,4.52-6.55,7.13-9.52,2.94-3.32,6.28-6.28,9.45-9.4l-.11.11c3.19-2.08,6.39-4.15,9.37-6.1-.38.54-1,1.41-1.62,2.29.24.18.48.36.72.54,2.63-3.63,5.27-7.25,7.9-10.88.13.06.25.13.38.19-2.03,3.23-4.06,6.46-6.08,9.68-.79.95-1.58,1.9-2.38,2.86-3.38,2.31-6.77,4.63-10.15,6.94-1.73,1.19-3.46,2.38-5.19,3.57-.77,1-1.58,1.97-2.29,3.01-1.89,2.8-3.73,5.63-5.59,8.45-1.07,1.95-2.13,3.89-3.2,5.84.21-1.98.43-3.95.64-5.93Z"/>
  <path d="M392.05,467.94c-.64,3.97-4.68,4.68-6.89,7.16-.83.93-1.8,1.73-2.71,2.59-2.81,1.51-5.63,3.02-8.44,4.54-5.88,2.44-11.73,4.98-17.67,7.29-2.38.93-4.94,1.36-7.62,1.46,1.43-.61,2.81-1.45,4.3-1.8,7.09-1.65,13.26-5.21,19.35-8.97,3.67-2.27,7.36-4.52,10.94-6.93,1.09-.74,1.83-1.99,2.73-3.01,2.01-.78,4.01-1.55,6.02-2.33Z"/>
  <path d="M408.54,434.04c8.32-16.8,14.08-34.35,16.34-53.01-.25,19.32-5.43,37.1-16.34,53.01Z"/>
  <path d="M434.42,375.73c1.39-3.49,2.79-6.98,4.15-10.49.23-.58.29-1.22.63-2.69-1.28,1.65-2.02,2.6-2.76,3.55-.12-.06-.25-.12-.37-.18.39-.9.78-1.79,1.16-2.69-.2-.13-.4-.27-.6-.4-2.03,3.06-4.06,6.11-6.09,9.17-.24-.14-.47-.28-.71-.42,3.62-3.36,2.41-9.22,6.9-12.13.8-.48,1.59-.95,2.39-1.43,0-.6,0-1.2.01-1.8-.18-.33-.36-.65-.55-.98-2.01-.73-3.98-1.84-6.05-2.1-2.38-.3-4.85.16-7.31.03,3.13-2.15,6.64-1.9,10.06-1.2,5.83,1.2,6.29,2.42,5.48,8.36-.79,5.75-3.2,10.66-6.4,15.33l.08.07Z"/>
  <path d="M382.16,426.1c-3.01,1.95-6.02,3.9-8.59,5.56,4.6-5.74,9.65-12.03,14.69-18.32.26.19.52.37.79.56-.35.91-.69,1.82-1.04,2.72.16.08.31.17.47.25.76-1.07,1.53-2.13,2.29-3.2-1.53,5.15-5.28,8.73-8.72,12.53,0,0,.11-.11.11-.11Z"/>
  <path d="M405.48,384.99c-.26.98-.35,2.06-.8,2.94-2.38,4.63-5.07,9.09-5.17,14.57-.03,1.63-.94,3.25-1.96,4.79v-1.99c-.89,1.23-1.44,2-2.53,3.51.8-4.05.89-7.54,2.21-10.49,1.98-4.44,4.82-8.49,7.3-12.7.32-.21.64-.42.95-.63Z"/>
  <path d="M363.92,452.61c1.07-1.95,2.13-3.89,3.2-5.84,3.3-3.85,6.6-7.69,9.89-11.54l-.13.1c4.69-2.41,9.39-4.83,14.08-7.24-3.94,2.74-7.87,5.48-11.55,8.04.53-.16,1.48-.44,2.44-.73-8.39,5.25-14.96,11.92-17.86,21.65,0,0-.08.08-.08.08-.28-.19-.83-.43-.81-.57.22-1.33.54-2.65.83-3.97Z"/>
  <path d="M364.47,465.43c2.63-2.7,4.88-5.99,7.97-7.96,5.35-3.42,11.19-6.1,16.9-8.93,2.49-1.23,5.19-2.05,7.8-3.05-2.86,1.65-5.62,3.55-8.61,4.91-7.87,3.58-15.97,6.73-21.1,14.33-.74,1.09-1.48,2.18-2.22,3.27,0,0,.04-.02.04-.02-.89.65-1.79,1.3-2.68,1.95.68-1.55,1.35-3.09,2.03-4.64l-.12.13Z"/>
  <path d="M365.21,468c.74-1.09,1.48-2.18,2.22-3.27.73-.4,1.67-.63,2.16-1.23,4.72-5.78,11.29-8.6,17.96-11.19,5.65-2.2,10.82-4.98,14.55-9.93-1.33,4.57-4.99,7.03-8.8,9.02-4.02,2.1-8.48,3.36-12.54,5.39-2.79,1.4-5.22,3.51-7.82,5.31,0,0,.12-.1.12-.1-.95.84-1.84,1.75-2.86,2.51-1.62,1.21-3.33,2.32-4.99,3.48Z"/>
  <path d="M391.62,437.14c2.46-2.56,5.25-4.88,7.32-7.72,7.49-10.24,11.74-21.99,15.29-34.03.58-1.96,1.26-3.89,2.54-5.64-.23.86-.43,1.73-.69,2.58-3.79,12.6-8.22,24.94-14.66,36.48-1.46,1.87-2.91,3.74-4.37,5.62-1.81.9-3.62,1.81-5.44,2.71Z"/>
  <path d="M374.01,482.23c2.81-1.51,5.63-3.02,8.44-4.54.86-.4,1.72-.81,2.57-1.21-11.74,8.15-23.82,15.51-38.44,17.18,9.68-2.54,19.2-5.46,27.43-11.44Z"/>
  <path d="M375,435.31c1.73-1.19,3.46-2.38,5.19-3.57,3.38-2.31,6.77-4.63,10.15-6.94.8-.96,1.59-1.91,2.38-2.86,1.89-1.67,3.78-3.34,5.68-5.01l.35.13-3.96,5.9c-4.11,2.91-8.2,5.85-12.32,8.73-1.83,1.27-3.73,2.44-5.59,3.66,0,0,.13-.1.13-.1-.67.02-1.34.05-2.02.07Z"/>
  <path d="M405.48,384.99c-.32.21-.64.42-.95.63,2.14-3.23,4.23-6.48,6.43-9.67.72-1.05,1.94-1.8,2.52-2.9,2.08-3.93,4.41-7.57,8.52-9.25-5.39,6.91-10.96,14.05-16.52,21.18Z"/>
  <path d="M346.21,486.25c5.7-2.33,11.41-4.65,17.1-6.98-2.57,1.45-5.14,2.91-7.51,4.25.55.13,1.37.31,2.19.5,0,0,.04-.06.04-.06-2.36.7-4.85,1.13-7.03,2.19-1.79.87-3.22,2.48-4.81,3.77-.61.1-1.22.19-1.83.29-2.8-2.9,1.7-2.42,1.84-3.95Z"/>
  <path d="M386.08,400.59c-5.54,5.19-11.07,10.37-15.63,14.65,3.36-6.14,10.7-10.65,16.33-17.6-.39,1.48-.6,2.27-.81,3.06,0,0,.11-.1.11-.1Z"/>
  <path d="M366.56,477.95c2.59-1.6,5.18-3.2,7.76-4.8.72.04,1.44.07,2.17.11.52-.22,1.05-.44,1.57-.66.61,2.85-2.06,3.62-3.52,4.35-4.18,2.09-8.68,3.54-13.05,5.24,3.32-1.98,6.64-3.95,9.96-5.92-.09-.16-.18-.32-.27-.48-1.54.72-3.08,1.44-4.62,2.17Z"/>
  <path d="M372.94,462.11c6.33-3.05,12.65-6.1,18.98-9.15.12.22.24.44.36.66-6.29,3.47-12.57,6.93-18.86,10.4-.12-.67-.24-1.33-.36-2l-.12.1Z"/>
  <path d="M376.91,386.79c7.7-4.85,15.39-9.7,23.09-14.55.18.28.35.56.53.85-7.71,4.83-15.41,9.66-23.12,14.49-.17-.26-.33-.53-.5-.79Z"/>
  <path d="M391,387.1c6.12-6.14,12.24-12.29,18.36-18.43.22.21.44.42.66.64-6.3,5.93-12.6,11.85-18.9,17.78-.04,0-.08,0-.12.01Z"/>
  <path d="M382.29,416.8c-3.78,5.45-7.56,10.89-11.33,16.34.77-7.35,6.76-11.39,11.33-16.34Z"/>
  <path d="M392.3,439.1c-.04-.38-.26-.98-.1-1.1,1.59-1.24,3.23-2.4,4.86-3.58,1.46-1.87,2.91-3.74,4.37-5.62,1.26-1.45,2.51-2.91,3.77-4.37.27.19.54.39.81.58-2.61,3.4-5.2,6.81-7.86,10.17-.72.91-1.64,1.65-2.46,2.47-1.13.48-2.25.95-3.38,1.43Z"/>
  <path d="M370.32,470.11c2.76-2.31,5.46-4.69,8.29-6.91,1.94-1.52,4.07-2.81,6.35-4.37-.31,1.04-.55,1.83-.78,2.61-.89.65-1.77,1.29-2.66,1.94-1.23.72-2.48,1.43-3.7,2.17-2.51,1.51-5,3.04-7.5,4.57Z"/>
  <path d="M358.04,483.95s-.04.06-.04.06c.99-.45,1.99-.89,2.98-1.34.71.44,1.43.89,2.55,1.59-4.11,1.41-7.97,2.69-11.79,4.07-1.62.59-3.12,1.52-4.75,2.04-.78.25-1.74-.1-2.62-.17.61-.1,1.22-.19,1.83-.29,2.38-1.18,4.77-2.34,7.15-3.53,1.57-.79,3.13-1.62,4.69-2.42Z"/>
  <path d="M374.33,472.79c-1.23.12-2.45.24-3.68.37.78-.86,1.45-1.86,2.35-2.57,2.74-2.14,5.56-4.16,8.35-6.23.1.39.2.79.3,1.18-.35,1.54-3.97.98-2.39,3.75-1.64,1.17-3.28,2.33-4.92,3.5Z"/>
  <path d="M385.54,439.84c-2.7,1.7-5.41,3.38-8.1,5.09-.97.61-1.91,1.28-2.86,1.92-.51.07-1.03.14-1.54.21.12-.45.23-.9.35-1.35.09-.08.18-.17.26-.25,2.86-1.7,5.71-3.41,8.57-5.11,1.11-.17,2.22-.34,3.32-.5Z"/>
  <path d="M439.1,358.03c-.8.48-1.59.95-2.39,1.43-1.01.07-2.33-.24-2.99.28-2.66,2.12-5.12,4.5-7.99,6.46,2.82-2.79,5.56-5.68,8.51-8.33,1.45-1.3,3.29-1.58,4.85.15Z"/>
  <path d="M365.06,405.69c-1.78-4.57,4.19-9.67,10.88-15.22-2.13,2.43-4.46,4.71-6.32,7.33-1.88,2.65-3.28,5.63-4.56,7.89Z"/>
  <path d="M434.34,375.66c-1.11,6.07-2.23,12.14-3.34,18.2-.48-.1-.97-.21-1.45-.31,1.63-5.94,3.25-11.88,4.87-17.82,0,0-.08-.07-.08-.07Z"/>
  <path d="M369.73,425.19c.42-.72.85-1.45,1.27-2.17,3.27-3.59,6.5-7.2,9.84-10.73.49-.52,1.43-.61,2.36-.49-4.86,3-7.88,7.47-10.82,12.03-.42.45-.85.89-1.27,1.34-.46,0-.92.01-1.39.02Z"/>
  <path d="M376.18,399.73c3.8-5.4,7.59-10.79,11.39-16.19.27.19.53.38.8.57-3.83,5.38-7.65,10.75-11.48,16.13-.24-.17-.48-.34-.71-.51Z"/>
  <path d="M365.28,473.21c-.44.23-.88.46-1.31.68-1.56.64-3.12,1.28-4.68,1.92,0-.22,0-.44.02-.65,1.17-.88,2.34-1.75,3.51-2.63,1.37-1.17,2.71-2.38,4.13-3.49,1.73-1.35,3.54-2.6,5.31-3.9-1.95,1.89-3.95,3.74-5.81,5.71-.57.61-.78,1.56-1.15,2.35Z"/>
  <path d="M373.67,416.61c-.39.34-.77.68-1.16,1.02.22-.67.25-1.52.69-1.98,3.18-3.3,6.43-6.52,9.67-9.77,0,0-.07-.07-.07-.07-1.02,1.77-1.81,3.74-3.13,5.25-1.79,2.04-3.98,3.71-6.01,5.54Z"/>
  <path d="M387.2,462.81c-1.9.93-3.8,1.87-5.7,2.8,2.86-2.22,5.72-4.43,8.59-6.65.96-.59,1.9-1.23,2.91-1.73.15-.08.6.42.92.63-2.23,1.64-4.47,3.29-6.72,4.94Z"/>
  <path d="M441.3,352.74c2.79,3.57,2.13,10.95-1.49,16.54.65-5.74,4.01-10.88,1.49-16.54Z"/>
  <path d="M438.57,355.25c.18.33.36.65.55.98-5.41-.45-9.72,2.19-14.38,5.61,2.95-4.3,9.96-7.42,13.83-6.58Z"/>
  <path d="M432.33,354.19c-4.25,3.03-8.51,6.06-13.1,9.33,3.91-4.36,7.84-7.93,13.1-9.33Z"/>
  <path d="M387.2,462.81c2.24-1.65,4.49-3.31,6.72-4.94.33-.6.68-1.2,1.02-1.81.37.4.74.8,1.11,1.2-3.21,2.69-6.42,5.37-9.63,8.06-.15-.14-.3-.28-.44-.41.41-.69.82-1.39,1.23-2.08Z"/>
  <path d="M402.57,453.59c-2.67,3.14-5.34,6.28-8.01,9.43,2.11-3.15,4.18-6.33,6.37-9.43.18-.26,1.08-.01,1.64,0Z"/>
  <path d="M397.83,440.23c3.07-3.08,6.14-6.15,9.21-9.23-1.52,2.13-2.98,4.32-4.59,6.38-.98,1.26-2.19,2.35-3.29,3.52-.45-.22-.89-.45-1.34-.67Z"/>
  <path d="M431.98,394.65c-1.42,2.83-2.84,5.66-4.26,8.5-.2-.08-.4-.17-.59-.25,1.29-2.94,2.58-5.87,3.87-8.81.33.19.66.38.98.57Z"/>
  <path d="M385.97,400.69c.46-.18.92-.36,1.35-.53-.87,4.06-1.92,5.39-4.51,5.66,0,0,.07.07.07.07,1.07-1.77,2.14-3.53,3.21-5.3,0,0-.11.1-.11.1Z"/>
  <path d="M376.49,473.25c.61-.69,1.21-1.39,1.82-2.08-.08.47-.16.95-.25,1.42-.52.22-1.05.44-1.57.66Z"/>
  <path d="M379.51,469.95c-.08-.23-.17-.46-.25-.7,0,0,.24-.05.24-.05,0,0,.05-.24.05-.24,0,0,.19-.02.19-.02l-.15-.09c.46.49.93.97,1.39,1.46-.49-.12-.98-.24-1.47-.36Z"/>
  <path d="M379.51,470.63c.47-.13.94-.27,1.41-.4-.45.32-.9.65-1.35.97,0,0,.04.09.04.09,0-.25,0-.5,0-.75l-.1.09Z"/>
  <path d="M379.58,471.2c-.21,0-.41,0-.62-.01,0,0-.08.1-.08.1.25,0,.49,0,.74,0l-.04-.09Z"/>
  <path d="M378.2,471.29c.25-.22.5-.43.75-.65,0,0-.07-.09-.07-.09,0,.24,0,.49,0,.73,0,0,.08-.1.08-.1-.25.03-.5.07-.76.1Z"/>
  <path d="M311.41,188.26c2.18,5.68,4.37,11.35,6.55,17.03-.47.17-.95.34-1.42.51-1.88-5.93-3.76-11.87-5.65-17.8.08.27.25.36.51.26Z"/>
  <path d="M519.33,267.72h-11.45c2.52-1.92,7.74-1.85,11.45,0Z"/>
  <path d="M272.68,152.19c1.56,1.86,3.1,3.74,4.69,5.57.67.77,1.46,1.44,2.2,2.16.45.46.9.92,1.35,1.38,1.09,2.87,2.18,5.74,3.26,8.61,0,1.52-.06,3.05.05,4.57.08,1.15.38,2.29.25,3.54-1.68-9.67-6.18-18.01-11.8-25.83Z"/>
  <path d="M280.91,161.3c-.45-.46-.9-.92-1.35-1.38-1.97-3.34-3.94-6.68-5.91-10.02,2.42,3.8,4.84,7.6,7.26,11.4Z"/>
  <path d="M384,445.13c3.4-1.12,6.8-2.23,10.2-3.35-5.16,3.65-10.87,5.77-17.18,6.24,2.33-.97,4.66-1.93,6.98-2.9Z"/>
  <path d="M359.31,475.16c-.4-.09-.81-.18-1.78-.39,1.87-1.79,3.45-3.31,5.03-4.84.89-.65,1.79-1.3,2.68-1.95-.81,1.52-1.62,3.03-2.43,4.55-1.17.88-2.34,1.75-3.51,2.63Z"/>
  <path d="M379.61,469.87c-.03.25-.07.51-.1.76,0,0,.1-.09.1-.09-.24,0-.49,0-.73,0,0,0,.07.09.07.09.22-.25.45-.51.67-.76Z"/>
</svg>