<?xml version="1.0" encoding="UTF-8"?>
<svg id="Capa_1" xmlns="http://www.w3.org/2000/svg" viewBox="0 0 700 700">
  <path d="M76.19,181.48v27.52c-.35.01-.71.02-1.06.03-.32-7.02-.71-14.04-.94-21.06-.27-8.48-.27-16.83-7.35-23.39-1.93-1.79-1.74-5.75-2.83-8.59-.88-2.31-2.21-4.44-4.35-6.32-.38,13.72-.77,27.44-1.15,41.17-.56.01-1.12.03-1.69.04-.19-.73-.57-1.47-.54-2.2.48-12.27.72-24.56,1.64-36.8.7-9.33-2.66-17.9-3.82-26.85-1.13-8.65-1.54-17.42,2.02-25.77,1.11-2.61,7.79-5.36,11.08-4.9,6.79.95,12,4.66,17.5,8.51,8.15,5.71,17.2,10.11,25.74,15.28,11.23,6.8,23.13,12.81,33.29,20.97,12.05,9.68,21.19,22.24,27.57,36.63,3.42,7.72,7.66,15.08,11.26,22.73,1.54,3.27,2.33,6.88,3.56,10.3,3.6,10.1,6.51,20.53,11.07,30.18,5.87,12.45,12.99,24.21,25.46,31.71,7.99,4.81,15.81,10.05,23.09,15.85,8.89,7.08,17.39,14.69,25.61,22.54,12.27,11.72,23.81,24.21,36.32,35.66,7.2,6.59,15.45,12.15,23.68,17.47,4.84,3.13,10.32,3.75,16.55,2.22,10.71-2.62,21.78-3.76,32.68-5.56,5.66-.94,11.28-2.05,16.95-2.93,10.67-1.67,21.34-3.43,32.05-4.8,12.72-1.62,25.49-3.84,38.25-4,11.73-.15,23.51,1.87,35.21,3.37,4.73.61,9.43,2.08,13.94,3.73,3.53,1.3,3.58,5.72.58,8.06-2.58,2.01-4.79,4.54-7.49,6.34-2.5,1.66-5.37,2.85-8.2,3.88-4.42,1.61-9.28,2.32-13.34,4.53-3.14,1.7-7.25,4.86-7.65,7.81-1.38,10.11-8.64,11.99-16.34,13.39-4.76.86-7.93,2.53-8.8,7.68-.5,3-1.95,1.99-5.87,5.33-4.61,3.93-12.56,3.17-14.56,11.24-.6,2.4-6.19,3.61-9.54,5.26-1.53.75-3.2,1.25-5.75,2.22,4.57,2.82,8.75,4.67,12.03,7.56,8.9,7.83,17.32,16.2,26.09,24.18,8.76,7.96,18.05,15.17,28.19,21.45,11.56,7.16,22.51,15.31,33.57,23.25,8.39,6.03,16.12,13.1,24.93,18.39,6.29,3.77,13.8,5.68,20.95,7.8,4.99,1.48,10.3,1.82,15.43,2.87,1.03.21,1.87,1.32,1.95,1.38,1.45-.29,2.67-.89,3.74-.69,5.2,1.01,10.42,2.05,15.53,3.42,7.19,1.93,14.34,4.07,21.42,6.36,1.41.45,3.49,2,3.46,2.99-.05,1.7-1.51,3.37-2.51,5.28,1.68,1.76,4.22,3.95,5.98,6.65.36.56-2.21,3.02-3.51,4.71,5.53,7.67,5.55,7.86-.04,10.22,2.7,3.41,5.04,6.99,7.99,9.96,3.24,3.25,7.17,5.79,10.52,8.95.9.85.97,2.8.94,4.24,0,.3-2.2.96-3.26.77-4.02-.72-7.96-1.84-11.98-2.56-1.13-.2-2.4.44-3.61.69.43,1,.88,1.99,1.28,3,.45,1.12,1.54,2.67,1.15,3.29-.56.9-2.23,1.65-3.36,1.57-4.53-.33-8.87-.86-13.59-.31-4.43.51-9.37-1.89-13.85-3.63-10.94-4.24-21.64-9.11-32.63-13.2-8.07-3.01-16.46-5.18-24.69-7.76-9.68-3.03-19.3-6.23-29.05-9.04-2.83-.81-5.98-.49-8.97-.75-8.14-.72-16.35-1.02-24.4-2.31-17.74-2.85-34.46-10.92-52.75-10.92-14.12,0-27.72-3.12-41.35-6-13.82-2.92-27.38-7.14-41.27-9.66-8.49-1.54-17.22-1.88-25.33-5.13-10.41-4.18-20.75-8.54-31.03-13.02-6.25-2.72-12.51-5.51-18.46-8.83-5.96-3.33-11.48-7.45-17.3-11.03-4.33-2.66-8.89-4.97-13.28-7.53-5.17-3.01-10.29-6.13-16.16-9.64-1.96,4.01-4.43,8-5.93,12.32-3.29,9.49-5.68,19.31-9.27,28.67-2.01,5.23-5.37,10.08-8.83,14.55-1.25,1.62-4.74,2.61-6.9,2.22-5.03-.9-8.6.68-10.34,5.08-2.57,6.51-7.53,6.42-13.08,5.96-1.37-.11-3.52.55-4.13,1.56-1.65,2.76-1.63,7.73-5.79,7.17-3.71-.5-7.48-2.92-10.55-5.35-5.42-4.29-6.83-10.8-9.14-17.11-3.72-10.16-3.26-20.55-2.58-30.55.76-11.17,2.43-22.79,9.5-32.54,1.93-2.67,2.9-6.04,4.31-9.08,4.91-10.61,9.89-21.19,14.62-31.88.54-1.22.09-3.33-.65-4.58-7.79-13.07-16.06-25.86-23.52-39.12-4.79-8.51-8.64-17.57-12.52-26.56-1.69-3.92-2.28-8.31-3.61-12.4-.68-2.11-1.94-4.03-2.86-6.07-3.12-6.89-6.31-13.76-9.29-20.71-3.82-8.95-7.46-17.98-11.18-26.98-.33-.81-1.01-1.66-.93-2.44.83-8.31-4.19-15.37-4.66-23.55-.71-12.17-2.45-24.31-4.38-36.37-1.9-11.89-4.73-23.63-6.85-35.49-1.4-7.86-3.76-15.31-8.06-22.21ZM176.35,471.34l.15.13c-.06-.58-.36-1.29-.14-1.72,1.92-3.77,3.66-7.68,6.03-11.15,1.54-2.25,1.46-3.38-.54-5.13-3.26-2.86-6.33-5.96-9.28-9.15-1.46-1.58-2.46-3.58-4.41-6.49-3.34,8.73-5.9,16.1-8.97,23.26-3.87,9.03-8.21,17.86-12.26,26.82-1.26,2.78-2.75,5.58-3.27,8.53-1.32,7.49-2.68,14.84-2.53,22.7.16,8.58.42,17.04,2.72,25.18,2.08,7.39,5.86,14.04,14.63,15.53,3.4-8.28,3.93-8.61,12.64-8.73,3.09-.04,5.61-.24,7.17-4.15,1.97-4.93,6.07-7.9,12.09-7.47,2.05.15,5.91-.94,6.03-1.85.63-4.69,3.29-7.7,6.57-10.55.47-.41.67-1.21.85-1.87.81-2.94,1.33-5.97,2.37-8.81,2.97-8.12,6.13-16.17,9.26-24.23,1.06-2.74,2.24-5.44,3.05-7.39-11-9.17-21.88-18.23-33.31-27.75-.82,1.69-1.5,3.53-2.54,5.15-2,3.12-4.2,6.12-6.31,9.16ZM70.75,127.67c.36-.02.73-.04,1.09-.06.47,3.98,1.08,7.95,1.37,11.94.75,10.04,1.23,20.1,2.13,30.13.21,2.38,1.51,4.7,2.49,6.97,3.19,7.41,7.14,14.57,9.53,22.22,3.08,9.85,5.12,20.04,7.23,30.16,1.18,5.68,1.67,11.5,2.34,17.28.94,8.08,1.46,16.22,2.72,24.25,1.23,7.8,3.15,15.5,4.79,23.24.69,3.26,1.12,6.63,2.28,9.72.94,2.5,3.24,4.49,4.13,6.99,1.65,4.64,2.17,9.73,4.13,14.2,3.33,7.59,7.46,14.82,11.16,22.24,2.03,4.08,4.02,8.19,5.78,12.39,2.31,5.52,4.2,11.22,6.61,16.69,2.84,6.44,6.16,12.66,9.05,19.08,2.95,6.56,8.63,11.83,9.2,19.5,8.59,11.19,16.79,22.71,25.91,33.45,5.57,6.55,12.55,11.9,18.92,17.76,4.17,3.84,8.16,7.92,12.65,11.34,4.28,3.27,9.17,5.74,13.69,8.72,7.88,5.21,15.48,10.88,23.59,15.71,7.18,4.28,14.83,7.82,22.39,11.44,10.63,5.09,21.24,10.27,32.1,14.85,11.1,4.68,22.47,8.65,34.6,10.1,6.74.81,13.42,2.2,20.06,3.65,6.92,1.51,13.71,3.63,20.64,5.1,9.28,1.97,18.62,3.68,27.97,5.28,5.22.89,10.57,2.12,15.77,1.8,13.05-.8,25.05,3.57,37.37,6.44,10.15,2.37,19.95,6.25,30.58,6.54,11.26.3,22.52,0,33.32,4.73,8.61,3.77,17.75,6.34,26.72,9.26,6.84,2.22,13.93,3.73,20.63,6.28,11.44,4.35,22.73,9.11,33.92,14.06,3.11,1.38,4.86,1.22,5.8-1.74,3.55.69,6.78,1.32,10.31,2.02-1.58-2.81-2.7-4.8-3.82-6.79,2.76-.56,5.52-1.13,8.29-1.65.41-.08.87.13,1.31.18,3.06.33,6.12.65,10.42,1.1-1.8-1.29-2.48-1.8-3.19-2.28-8.34-5.55-7.78-5.96-13.41-13.75-3.24-4.47-1.25-5.88,2.33-8.07-2.11-1.66-4.91-2.8-5.41-4.58-.39-1.4,2.05-3.59,3.49-5.84-1.33-1.05-3.96-2.17-4.88-4.11-.79-1.67.36-4.26.8-7.57-6.65-1.53-14.12-3.51-21.69-4.93-12.55-2.35-25.16-4.34-37.75-6.49-.57-.1-1.12-.3-1.68-.46-15.75-4.7-27.21-16.08-39.93-25.52-8.25-6.12-16.75-11.9-25.24-17.68-6.2-4.22-12.61-8.13-18.84-12.31-4.6-3.08-9.14-6.28-13.56-9.61-3.83-2.88-7.73-5.77-11.11-9.14-2.69-2.68-4.15-6.66-7-9.09-7.3-6.23-15.01-11.98-22.7-17.74-.8-.6-3.17-.46-3.75.23-4.29,5.1-9.51,8.09-16.19,8.93-2.17.27-4.1,2.15-6.26,2.99-3.63,1.43-7.42,3.84-11.03,3.66-6.98-.35-13.97-1.87-20.82-3.51-15.5-3.7-30.88-7.84-46.37-11.59-2.18-.53-5.53-.73-6.85.5-4.57,4.27-8.47.78-12.63-.35,1.61-.64,3.23-.54,4.84-.67,1.7-.14,3.83.06,4.99-.87,3.42-2.75,6.96-3.4,11.11-2.33,4.7,1.21,9.47,2.21,14.2,3.3,15.56,3.61,31.11,7.31,46.7,10.79,4.73,1.06,9.38,1.39,13.66-2.25,2.14-1.82,5.17-3.04,7.97-3.57,6.01-1.12,10.52-4.26,14.32-8.78,3.41-4.05,7.51-6.89,12.77-8.23,4.43-1.13,7.74-3.75,9.25-8.49.43-1.36,2.36-2.53,3.86-3.2,1.99-.89,4.21-1.31,6.38-1.72,3.03-.57,4.83-2,5.73-5.2,1.64-5.84,5.4-9.64,11.74-10.57,2.76-.4,5.58-1.06,8.11-2.19,1.49-.67,3.24-2.32,3.56-3.81,1.93-9.14,7.87-14.1,16.33-16.76,8.8-2.77,17.47-5.78,23.73-13.3-2.1-.82-4.28-2.15-6.61-2.49-10.76-1.57-21.53-3.32-32.36-4.15-17.62-1.36-34.93,2.03-52.25,4.57-19.79,2.9-39.52,6.19-59.26,9.42-14.56,2.38-29.07,5.03-43.62,7.41-10.02,1.64-20.07,3.17-30.14,4.44-7.71.97-15.05-.48-22.03-4.34,2.43-2.73,2.47-2.87,7.55-1.14,3.62,1.24,7.06,2,10.48-.36-1.7-4.63-7.12-8.33-11.36-8.09-1.54-2.51-2.5-5.43-4.5-7.04-3.93-3.17-8.45-5.63-12.72-8.38-.02-.42-.04-.83-.07-1.25,1.58,0,3.42-.53,4.7.09,5.17,2.52,10.6,4.29,15.33,8.05,5.22,4.16,9.57,8.66,12.89,14.38.59,1.01,2.44,2.01,3.56,1.87,6.53-.81,12.99-2.06,19.51-2.96,4.4-.61,8.85-.89,13.28-1.31-13.14-9.12-25.28-18.55-36.03-29.71-2.85-2.95-5.42-6.18-8.37-9.01-8.95-8.6-18.23-16.86-26.99-25.64-10.29-10.31-21.92-18.73-34.31-26.24-6.78-4.11-13.39-8.5-17.57-15.52-4.02-6.75-8.47-13.33-11.64-20.47-4.93-11.1-8.84-22.65-13.34-33.95-3.32-8.32-6.59-16.68-10.43-24.76-2.66-5.61-6.44-10.68-9.39-16.16-4.93-9.16-11.61-17.08-19.64-23.28-8.51-6.56-18.34-11.38-27.54-17.04-8.52-5.24-17-10.54-25.44-15.91-4.4-2.8-8.67-5.79-13-8.7-4.23,6.6-6.58,6.41-11.49-.43-6.54,3.05-8.92,20.74-3.75,30.51.86-7.99,1.67-15.5,2.47-23.01.46,0,.92,0,1.39,0,.25,1.2.79,2.42.7,3.58-.34,4.12-.88,8.22-1.38,12.32-1.04,8.6-3.68,17.62,2.01,25.31,2.9,3.92,3.02,8.38,4.97,12.34.67,1.35,1.84,2.46,3.6,4.74-.69-13.6-1.32-25.84-1.95-38.08Z"/>
  <path d="M176.35,471.34c-1.54,6.26-3.08,12.53-4.63,18.79-1.89,7.68-3.79,15.36-5.69,23.03-.27,1.08-.63,2.15-.95,3.22-.5-.06-1.01-.12-1.51-.19.36-3.44.31-6.99,1.17-10.3,2.46-9.53,5.18-19,8.07-28.41.67-2.18,2.43-4.02,3.69-6.02,0,0-.15-.13-.15-.13Z"/>
  <path d="M237.14,397.62c-2.13-.52-3.27-.46-3.88-1-10.18-8.94-17.27-19.56-17.42-33.66-.01-1.24,1.16-2.49,1.78-3.74.64,1.22,1.81,2.42,1.85,3.66.34,11.43,6.12,20.29,13.12,28.64,1.37,1.63,2.56,3.42,4.55,6.1Z"/>
  <path d="M99.44,131.5c-.15,4.84-3.01,8.42-6.63,8.3-5.07-.17-7.8-3.84-7.7-10.37.06-4.57,2.97-7.9,6.77-7.76,4.17.15,7.72,4.77,7.56,9.83ZM86.79,129.45c.81,5.48,2.61,8.48,5.65,8.28,2.77-.19,4.09-1.93,4.09-4.73-.01-4.96-2.33-8.54-5.93-7.99-1.46.23-2.55,2.89-3.8,4.44Z"/>
  <path d="M577.85,547.45c1.71-.17,3.53-.81,5.1-.42,10.02,2.43,19.98,5.09,30.3,8.62-1.23.36-2.58,1.23-3.68.99-8.63-1.88-17.21-3.97-25.8-6.02-2.01-.48-4-1.05-5.99-1.58.03-.53.05-1.06.08-1.58Z"/>
  <path d="M608.25,566.28c-6.7-1.81-13.41-3.59-20.1-5.43-4.77-1.31-9.54-2.6-14.25-4.1-1.8-.57-3.43-1.7-5.14-2.57.3-.63.6-1.26.89-1.9,12.97,4.13,25.94,8.25,38.91,12.38-.1.54-.21,1.08-.31,1.62Z"/>
  <path d="M551.58,560.94c-6.65-1.55-9.32-4.7-8.41-10.46.42-2.63-1.46-6.44,2.81-7.79.71,2.46,1.42,4.92,2.14,7.38.54,1.82,1.08,3.64,1.65,5.44.55,1.71,1.14,3.41,1.81,5.43Z"/>
  <path d="M250.95,336.38c-8.66-1.64-16.51-3.12-24.28-4.59,3.38-5.44,18.06-4.69,24.28,4.59Z"/>
  <path d="M233.7,295.33c2.49.22,3.79-.03,4.62.48,4.04,2.48,8.07,5.01,11.84,7.87.94.71.91,2.7,1.32,4.11-1.3-.28-2.82-.23-3.85-.91-3.69-2.44-7.24-5.08-10.77-7.76-.93-.71-1.55-1.82-3.16-3.77Z"/>
  <path d="M304.99,451.93c5.72-3.56,10.74-7.12,10.01-15.08,4.14,4.54,4.05,7.64.5,12.07-3.87,4.83-6.12,5.65-10.51,3.02Z"/>
  <path d="M395.43,392.92c.5-1.1.84-3.05,1.52-3.17,9.31-1.66,18.67-3.06,28.01-4.53.11.65.22,1.3.33,1.95-3.99.66-7.99,1.22-11.95,1.99-5.98,1.17-11.94,2.48-17.9,3.73v.03Z"/>
  <path d="M122.05,170.52l4.9,5.28c.46-.18.92-.36,1.38-.54-1.23-3.45-2.46-6.89-3.69-10.34.52-.16,1.04-.33,1.56-.49,1.62,3.98,3.41,7.91,4.74,11.98.33,1-.53,3.26-1.34,3.55-1.02.37-2.98-.3-3.79-1.2-1.96-2.16-3.49-4.7-5.19-7.09.47-.38.95-.76,1.42-1.15Z"/>
  <path d="M421.3,365.15c7.84-.83,15.68-1.66,24.52-2.59-3.01,2.81-22.34,5.24-24.57,3.83.01-.41.03-.83.04-1.24Z"/>
  <path d="M584.79,585.15c4.9,1.29,9.85,2.43,14.68,3.95,2.38.75,4.54,2.19,6.88,3.36-2.85,2.25-17.63-2.98-21.47-7.42l-.1.11Z"/>
  <path d="M493.71,500.64c-.96.35-2.12,1.21-2.7.92-3.27-1.63-6.43-3.49-9.55-5.41-.36-.22-.4-1.33-.22-1.91.13-.42,1.07-1.03,1.32-.91,3.5,1.73,6.96,3.55,10.39,5.41.29.16.33.78.77,1.9Z"/>
  <path d="M178.29,219.49c2.15,6.76,3.88,12.21,5.61,17.67-5.71-3.2-6.17-8.85-7.43-14.02-.21-.87,1-2.08,1.82-3.65Z"/>
  <path d="M466.71,364.69h-19.98c2.4-2.49,15.6-3.02,20.13-1.17-.05.39-.1.78-.15,1.17Z"/>
  <path d="M420.71,448.33c2.87,2.65,5.1,4.7,7.25,6.85.03.03-1.54,1.91-1.7,1.81-2.7-1.6-5.29-3.38-7.91-5.12.56-.84,1.13-1.69,2.36-3.54Z"/>
  <path d="M575.77,564.59c5.78.16,10.89,2.08,15.25,5.99-5.39-1.22-11.09-1.63-15.2-6.13,0,0-.05.14-.05.14Z"/>
  <path d="M566.4,569.19c6,2.37,12,4.73,18,7.1-.2.53-.4,1.07-.6,1.6-6.04-2.22-12.09-4.44-18.13-6.66.24-.68.49-1.36.73-2.04Z"/>
  <path d="M395.43,392.89c-5.4,1.05-10.8,2.1-16.21,3.15-1.22.24-2.45.46-3.67.7-.11-.46-.23-.91-.34-1.37,5.78-1.44,11.54-2.96,17.36-4.2.79-.17,1.89,1.12,2.85,1.74,0,0,0-.02,0-.02Z"/>
  <path d="M428.61,385.38c5.03-.4,10.05-.8,15.08-1.19.06.59.12,1.18.17,1.77-5.01.56-10.03,1.12-15.04,1.68-.07-.75-.14-1.5-.21-2.26Z"/>
  <path d="M124.67,157.6c-1.12-4.01-2.24-8.01-3.36-12.02.53-.13,1.06-.26,1.59-.39,1.98,3.84,4.39,7.57,3.56,12.11-.6.1-1.19.19-1.79.29Z"/>
  <path d="M475.38,487.74c-1.9,1.02-3.17,2.14-3.62,1.87-1.73-1.04-3.24-2.48-4.68-3.92-.07-.07,1.67-2.31,1.83-2.22,1.94,1.07,3.74,2.4,6.47,4.27Z"/>
  <path d="M600.66,584.37c5.49-.35,9.59,2.78,14.39,4.15-.32.77-.65,1.54-.97,2.32-4.45-2.19-8.89-4.38-13.34-6.57l-.07.11Z"/>
  <path d="M600.74,584.26c-5.94.29-10.08-3.44-14.8-5.88.25-.53.5-1.06.76-1.59,4.66,2.53,9.31,5.06,13.97,7.58,0,0,.07-.11.07-.11Z"/>
  <path d="M584.89,585.04c-4.65-1.11-9.29-2.22-13.94-3.34.21-.68.42-1.36.63-2.04,4.91.35,8.86,3.49,13.2,5.49,0,0,.1-.11.1-.11Z"/>
  <path d="M97.41,147.04c-1.91.36-3.85,1.11-5.73.98-3.3-.24-5.75-1.93-7.19-6.13,4.72,1.86,7.31,7.7,12.76,3.31.05.61.1,1.23.15,1.84Z"/>
  <path d="M374.14,397.47c-4.24,1.27-8.48,2.54-12.73,3.81-.15-.5-.3-1.01-.45-1.51,4.24-1.36,8.48-2.72,12.72-4.08.15.59.3,1.19.45,1.78Z"/>
  <path d="M366.85,377.44c3.87-1.19,6.83-2.1,9.72-2.98-.28,3.98-4.77,5.87-9.72,2.98Z"/>
  <path d="M128.94,154.4c-1.47-3.08-2.95-6.16-4.83-10.1,2.39.87,3.94,1.44,4.51,1.64.67,3.05,1.21,5.49,1.74,7.92-.47.18-.95.36-1.42.53Z"/>
  <path d="M363.06,381.12c-3.68,1.02-7.37,2.04-11.05,3.06-.18-.78-.36-1.56-.54-2.34,3.75-.76,7.5-1.52,11.25-2.28.11.52.22,1.04.34,1.55Z"/>
  <path d="M575.77,564.59s.05-.14.05-.14c-4.41,2.79-6.55-3.03-10.41-2.32,3.65-2.04,7.53-.95,10.36,2.47Z"/>
  <path d="M455.04,476.58c-2.11-1.38-4.22-2.77-6.33-4.15.11-.48.21-.97.32-1.45,1.36.26,2.92.19,4.03.87,1.33.81,2.28,2.26,3.4,3.43l-1.43,1.31Z"/>
  <path d="M72.34,116.03v9.66l-1.07.07v-9.64c.36-.03.72-.06,1.07-.08Z"/>
  <path d="M463.62,491.8c-.96.84-1.67,1.7-1.87,1.59-1.9-1.01-3.72-2.19-5.57-3.32.41-.5,1.05-1.49,1.21-1.42,1.99.89,3.91,1.94,6.23,3.15Z"/>
  <path d="M195.53,492.84c-7.19.83-2.43,8.23-7.38,10.66.96-3.77,1.73-7.6,3.03-11.25.26-.73,2.52-.76,3.86-1.11.17.57.33,1.13.5,1.7Z"/>
  <path d="M191.7,489.56c1.13-4.02,2.03-7.23,3.03-10.8,2.14,3.85.95,8.43-3.03,10.8Z"/>
</svg>