<?xml version="1.0" encoding="UTF-8"?>
<svg id="Capa_1" xmlns="http://www.w3.org/2000/svg" viewBox="0 0 700 700">
  <path d="M367.84,433.23c-3.16,1.09-6.28,2.34-9.5,3.22-2.23.61-4.59.71-6.88,1.89,7.72,2.88,15.56,5.49,23.13,8.71,8.88,3.77,17.71,7.73,26.23,12.24,6.01,3.18,11.74,7.06,17.07,11.28,4.53,3.58,8.35,8.06,12.4,12.22,1.9,1.95,3.62,4.09,5.4,6.16,5.3,6.17,8.32,13.57,11.36,20.98,2.59,6.31,5.85,12.41,7.82,18.9,1.95,6.42,3.38,13.18,3.72,19.85.48,9.44,1.84,18.92-.38,28.45-1.05,4.52-.12,9.46-.64,14.15-.84,7.63-2.23,15.21-3.17,22.83-.3,2.46.24,5.01.12,7.51-.52,10.79.13,21.57,2.81,31.97,1.73,6.72,3.03,14.19,9.76,18.49,5,3.19,8.04,1.72,9.48-4,1.89-7.49.68-14.89-.58-22.15-2.24-12.89-3.65-26.07.96-38.24,4.7-12.41,4.42-25.48,7.66-38.01,1.22-4.71,1.7-9.96,2.3-14.99.62-5.24,2.13-10.47,2.04-15.68-.13-7.7-1.32-15.39-2.11-23.08-.26-2.51-.3-5.12-1.08-7.48-2.44-7.38-5.02-14.73-7.86-21.97-1.96-5.01-4.19-9.96-6.77-14.68-2.47-4.51-5.24-8.93-8.43-12.94-5.74-7.19-11.65-14.29-17.97-20.96-3.71-3.92-8.43-6.87-12.58-10.39-1.79-1.51-3.37-3.3-4.88-5.1-1.94-2.34-1.95-3.94.71-6.5,3.91-3.77,7.84-5.7,12.88-3.85,5.84,2.14,9.48,6.14,9.28,12.95-.04,1.37,1.11,3.32,2.3,4.09,7.28,4.71,15.1,8.65,22,13.84,6.33,4.76,12.62,9.89,16.42,17.29,3.86,7.51,8.01,14.86,12.05,22.28.38.7.71,1.6,1.33,1.97,1.05.63,2.31.92,3.49,1.36.25-1.18.95-2.47.68-3.53-1.2-4.8-2.7-9.52-4.01-14.3-.23-.82-.03-1.76-.03-2.33,3.63,4.54,7.11,8.99,10.74,13.31.71.85,2.04,1.18,3.08,1.76.24-1.29.72-2.58.65-3.85-.1-1.95-.58-3.87-.91-5.88.11-.08-.31.23-.28.21-2.42-4.72-4.88-9.51-7.33-14.29.28-.2.56-.39.84-.59,4.8,5.62,9.61,11.24,14.41,16.86.51-.2,1.03-.4,1.54-.6-.77-3.76-.7-7.99-2.49-11.19-3.07-5.49-5.83-11.39-11.69-14.98-3.64-2.23-6.71-5.4-10.03-8.17-3.76-3.13-7.55-6.23-11.23-9.45-1.64-1.44-2.87-3.38-4.6-4.68-1.73-1.31-2.72-4.82-6.19-2.53-.35.23-3.34-2.23-3.15-2.73,1.69-4.63-2.87-6.8-4.03-10.25-2.38-7.08-6.74-13.47-10.01-20.27-.96-2.01-1.02-4.45-1.47-6.7-.05-.25.1-.75.05-.76-4.26-1.27-2.15-5.43-3.58-8.02-1.66-3.01-2.4-6.54-4.04-9.56-.79-1.45-2.84-2.18-4.15-3.4-1.54-1.44-3.06-2.95-4.32-4.63-1.24-1.65-2.14-3.56-3.18-5.35-.33.16-.66.33-.99.49-.03-.13-.08-.26-.09-.39-.09-2.57,5.72-4.8-.02-7.9-2.52-1.36-3.76-4.87-7.51-4.97-1.27-.03-2.51-1.3-3.76-2,0,0,.03.05.03.05-.82-1.34-1.64-2.68-2.45-4.02-.34-.84-.45-2.09-1.06-2.43-3.38-1.89-6.8-3.77-10.38-5.24-3.27-1.34-6.8-2.04-10.14-3.24-4.9-1.76-9.72-2.43-14.41-.1,1.82,4.62,3.58,9.08,5.71,14.47.7-4.59-.71-8.8,3.7-11.78,1.54,3.75,3.11,6.97,4.17,10.34,1.51,4.77,4.48,7.72,9.38,7.87,1.19.04,3.14-1.48,3.52-2.67,1.12-3.56,1.64-7.3,2.55-11.73,2.76,1.72,4.91,3.06,7.07,4.4.19,2.78-.06,5.68.66,8.31,2.29,8.32-.92,15.38-4.64,22.32-5.41,10.1-9.55,20.47-8.15,32.29.68,5.77,1.8,11.55,1.77,17.32-.02,4.9-1,9.92-2.4,14.64-.47,1.6-3.6,3.55-5.36,3.42-7.53-.57-15.01-1.87-22.51-2.9.02-.53.04-1.06.06-1.59,2.52-.07,5.07-.41,7.55-.13,3.43.38,6.82,1.19,10.22,1.89,6.73,1.37,9.68-2.34,9.82-9.03.13-6.33-.73-12.72-1.65-19.01-1.92-13.06.93-25.06,6.88-36.66,1.97-3.84,2.76-8.28,4.32-13.16-1.66.43-2.64.69-3.91,1.02.17-1.77.33-3.44.54-5.6,1.67.52,2.81.88,4.23,1.33-.35-1.11-.61-2.19-1.02-3.21-.85-2.14-2.51-2.28-3.98-.31-2.88,3.85-5.37,7.88-6.18,12.78-.37,2.22-.98,4.45-1.86,6.52-.44,1.03-1.7,2.34-2.63,2.38-1.02.04-2.11-1.22-3.12-1.99-.28-.21-.5-.7-.5-1.06-.02-6.62-3.65-12.2-5.45-18.64h3.67c-.73-2.49-1.36-4.65-2.32-7.96-3.53,5.7-4.75,10.83-5.05,16.23-.24,4.27-.22,8.55-.59,12.81-.1,1.11-1.15,2.91-1.93,3-1.17.14-2.98-.6-3.66-1.57-2.91-4.17-5.51-8.57-8.35-13.09.92.06,1.65.1,2.37.15l1.21-1.26c-1.39-1.26-2.78-2.51-4.17-3.77-.12.23-.24.45-.36.68-.41-1.95-.61-3.99-1.31-5.83-.42-1.09-1.64-1.87-2.51-2.79-.67,1.24-1.97,2.53-1.89,3.72.27,4.08.72,8.2,1.65,12.18,1.93,8.27,4.59,16.39,6.24,24.71,1.33,6.71,1.82,13.62,2.2,20.47.09,1.7-1.25,4.38-2.68,5.06-2.48,1.19-5.31,2.03-7.93-1.13-6.14-7.4-11.51-15.18-15.54-23.95-2.12-4.6-4.93-8.94-7.86-13.09-.91-1.3-3.23-1.6-4.95-2.37.59-.3,1.62-.82,3.42-1.73-4.04-5.01-7.86-9.75-11.68-14.49l-.85.43c.09.73.17,1.47.28,2.39-.45-.08-.91-.03-1.14-.23-.5-.44-.98-.95-1.29-1.53-4.5-8.53-11.42-11.41-20.78-9.42-9.93,2.12-18.04,6.82-23.96,15.21-.89,1.26-2.46,2.03-4.17,3.39-.26-1.37-.59-1.97-.42-2.33,5.94-12.37,25.51-22.43,38.91-19.64,8.61,1.79,15.05,7.51,20.05,14.23,5.77,7.76,10.53,16.29,15.6,24.56,5.05,8.23,9.79,16.66,15.04,24.76,1,1.54,3.76,1.92,5.72,2.84.43-1.57,1.18-3.12,1.26-4.71.6-12.34-3.54-23.77-6.64-35.46-3.07-11.6-5.11-23.48-7.71-35.71,5.56.09,7.41,3.47,9.39,6.49,3.57,5.45,9.96,8.11,17.25,6.62-6.11-20.04-15.97-38.01-28.25-54.88-1.33,3.85-9.32,5.43-11.96,2.44-.42-.47-.65-1.78-.36-2.06.54-.52,1.8-1.04,2.31-.75,2.88,1.63,4.39.63,5.2-2.32-3.27.24-6.52.47-9.8.71-.56-2.04-1.03-3.75-1.52-5.52.1-.18.17-.55.36-.62,5.78-2.09,5.63-1.96,2.06-6.48-2.79-3.54-4.85-7.65-7.73-11.1-2.31-2.76-5.36-4.9-8.81-7.97.52,7.53-3.37,10.72-8.87,12.8-5.16,1.95-7.48.56-10.77-3.46-4.66-5.71-8.56-12.04-12.91-18.29-1.77,7.8-3.55,15.8-5.47,23.77-.16.68-1.31,1.13-1.73,1.46-3.49-2.56.29-9.4-6.83-8.97-6.78.41-2.66,6.37-5.74,10.11-.73-2.99-1.84-5.2-1.68-7.32.33-4.13-2.59-4.59-5.21-5.23-3.2-.79-2.35,2.43-3.29,3.85-.7,1.06-1.13,2.29-1.83,3.75-.81-.64-1.78-1.01-1.89-1.56-1.66-8.04-2.74-16.01.09-24.13,3.35-9.61,7.24-18.84,14.86-25.93,6.93-6.46,13.52-8.7,22.06-2.84,4.95,3.4,10.33,6.12,12.42,12.3.34.99.58,2.02.29,3.9-.83-.47-1.87-.76-2.44-1.45-2.06-2.48-3.96-5.1-5.93-7.66l.04.09c-4-2.53-7.72-5.77-12.06-7.4-5.02-1.88-9.05,1.87-12.34,5.06-10.26,9.96-14.82,22.64-16.23,36.6-.14,1.35.34,2.76.54,4.14.39.13.78.25,1.17.38.98-1.57,2.08-3.08,2.92-4.72,1.46-2.82,2.54-5.86,4.23-8.52.7-1.09,2.57-1.44,3.9-2.13.53,1.37,1.51,2.75,1.49,4.12-.06,3.81-.53,7.6.07,11.57.86-3.13,1.66-6.28,2.59-9.39.42-1.38.88-2.86,1.76-3.95.69-.86,2.38-1.92,3-1.62,1.06.52,2.17,1.98,2.3,3.16.41,3.57.34,7.2.5,10.8.02.5.3,1,1.58,1.82.92-2.86,2.12-5.66,2.7-8.59,1.04-5.22,1.62-10.53,2.61-15.76.19-.99,1.4-1.78,2.14-2.67.39.99,1.23,2.05,1.08,2.95-.83,4.97.34,8.49,4.43,12.2,4.15,3.77,6.42,9.54,9.85,14.18.95,1.29,3.8,2.78,4.6,2.29,2.13-1.33,6.77-.58,5.68-5.43-.07-.3,1.16-.88,1.31-.99-.75-4.18-1.3-8.17-2.24-12.07-.41-1.72-1.59-3.26-2.53-5.08,3.73-.6,3.29-2.59,2.24-6.18-2.13-7.21-3.05-14.77-4.66-22.14-.47-2.17.13-5.47-3.33-5v-7.71c-.4-.07-.8-.15-1.2-.22-.59.77-1.18,1.54-1.96,2.56-3.07-4-6.09-7.93-9.21-11.98,1.99-1.67,3.72-2.64,4.71-4.11.71-1.05,1.02-3.12.44-4.1-.99-1.68-2.58-3.37-4.33-4.16-7.92-3.62-9.28-10.6-9.83-18.11-.03-.4.13-.85,0-1.2-.71-1.78-1.21-4.77-2.29-5.01-1.82-.4-4.72.35-5.91,1.72-2.35,2.69-3.92,1.78-5.98-.13-1.11,1.05-2.23,2.11-3.55,3.35-1.04-1.34-1.91-2.45-3.01-3.87-.94.77-1.77,1.58-2.74,2.19-1.05.66-2.21,1.14-3.33,1.69-.37-1.22-.91-2.42-1.08-3.67-.19-1.43-.04-2.9.73-5.07,1.02,1.18,2.04,2.36,3.22,3.73,1.68-.41,3.68-5.06,5.75-.7,2.3-.37,4.45-.71,6.61-1.05.03.25.07.5.1.76,1.13-.54,2.31-1.63,3.38-1.53,5.87.54,12.02-5.26,12.67-9.99.83-6.03,3.94-11.12,5.69-16.71,1.21-3.86.23-8.42.23-12.6-.42-.15-.67-.33-.88-.29-6.07,1.12-6.16,1.12-5.97,7.48.11,3.59.67,7.17.81,10.77.08,2.21-.25,4.44-.39,6.67-.6.02-1.2.04-1.8.07-.44-2.63-1.08-5.25-1.27-7.89-.44-6.2-.69-12.42-.94-18.63-.02-.6.49-1.2.7-1.82,1.74-5.17,3.3-10.4,5.26-15.48.9-2.35,2.57-4.41,3.88-6.6.64.39,1.28.77,1.91,1.16-.81,1.29-1.62,2.57-2.42,3.86-1.55,5.97-3.1,11.94-4.65,17.9.35.18.7.36,1.05.54,1.27-.98,3.58-1.89,3.65-2.94.31-5.15.02-10.34-.05-15.51,1.06-.53,2.12-1.06,3.18-1.58,1.08-.52,2.17-1.01,3.25-1.51-.01,1.24.21,2.53-.08,3.7-1.15,4.67-2.46,9.31-3.14,14.2,4.8-2.88,8.16-6.55,9.47-11.98,1.09-4.51,1.65-9.1,5.08-12.97,3.88-4.37,2.61-7.82-3-11.12-.41-.24-.67-.73-2-2.24-.39,2.66-.55,4.22-.86,5.76-.36,1.81-.53,3.76-1.36,5.36-.77,1.5-.96,1.12-2.68.01-.75-.48-2.23.02-3.32.3-1.78.46-3.59,1.71-5.25,1.51-1.74-.21-4.01-1.36-4.76-2.78-.72-1.37,0-3.67.49-5.44.37-1.34,1.4-2.49,2.27-3.95-3.54.84-6.84,1.24-8.05,5.23-.26.85-2.09,1.22-3.19,1.81-.18-.31-.36-.62-.54-.92.95-.86,1.9-1.72,2.86-2.58-.2-.26-.39-.52-.59-.79-1.37,1.09-3.33,1.9-4,3.32-1.43,3.01-3.24,1.78-5.22,1.17-.99-.3-2.06-.33-3.22.29-2.99-1.96-5.98-3.93-9.93-6.53-1.57.94-4.18,2.5-6.79,4.06,0,0,0-.35,0-.35-1.4,3.96-3.6,2.24-5.39,1.76-.91.48-2.39,1.58-2.65,1.34-2.22-2.01-4.34-.78-6.24.16-6.66,3.29-13.35,6.53-19.75,10.28-3.54,2.07-6.79,4.85-9.64,7.82-1.41,1.47-2.27,4.12-2.21,6.2.18,6.68-2.94,12.18-5.11,18.15-2.1,5.77-2.66,12.13-3.55,18.28-.79,5.46-1.23,10.99-1.58,16.5-.1,1.63.28,3.49,1.03,4.94,2.14,4.14-2.02,6.83-1.33,10.56-.54-.06-1.08-.11-1.62-.17.15-1.56.16-3.16.49-4.68.34-1.58,1.92-3.23-.64-4.34,1.5-2.46-3.26-5.43.68-7.86.62-.39.38-2.22.49-3.39.81-8.34,1.08-16.78,2.58-25,1.07-5.84,3.91-11.33,5.7-17.06.46-1.46-.13-3.22-.07-4.83.03-.84.43-1.66.62-2.5,1.18-5.13,4.64-8.47,8.8-11.26,3.76-2.52,7.42-5.2,11.34-7.45,4.36-2.5,8.82-4.93,13.48-6.78,6.01-2.38,12.27-4.15,18.41-6.2,1.52-.51,3.03-1.04,4.51-1.66,4.96-2.07,9.61-2.3,14.48.78,1.89,1.2,4.99,1.41,7.27.89,5.12-1.18,10.07-3.09,15.08-4.72.73-.24,1.62-1.07,2.1-.85,4.15,1.86,4.38-1.43,5.7-3.86,2.93-5.38,6.68-10.18,11.87-13.64,2.66-1.77,5.29-3.6,8.03-5.24.86-.52,2.03-.51,3.38-.15-9.75,7.57-21.08,13.5-23.63,26.83.44.47.88.94,1.32,1.4,1.25-1.08,2.39-2.33,3.77-3.21,6.98-4.45,11.75-12.17,20.56-13.96,1.92-.39,3.76-1.14,5.64-1.73.18.48.36.95.54,1.43-4.6,2.2-9.48,3.97-13.72,6.73-4.37,2.84-8.11,6.66-12.31,10.2,2.28,2.58,4.13,4.04,7.3,1.85,2.5-1.73,5.3-3.16,8.16-4.21,4.96-1.81,9.95-2.36,15.06.13,1.9.93,4.4.66,7.69,1.06-1.25,1.11-1.8,2-2.34,2-1.45-.01-2.95-.25-4.34-.68-9.63-3.02-18.34-1.5-25.96,5.21,1.63,4.01,3.31,8.16,5.28,13.03-2.52-.14-3.75-.2-5.03-.27,1.98,8.53-1.33,15.63-5.3,22.62-2.21,3.9-4.17,7.93-6.24,11.91.33.24.66.49.99.73-.59.19-1.18.43-1.78.56-3.17.68-5.27,3.4-4.35,6.45,2.39,7.86,5.09,15.62,7.61,23.44.22.69.09,1.49-.31,2.33-6.02-7.03-6.93-16.2-10.26-24.79-1.81,3.87-3.41,6.89-4.63,10.05-.8,2.09-.84,4.47-1.63,6.57-.49,1.31-1.79,2.31-2.67,3.48-.93,1.24-2.77,2.74-2.55,3.76,1.39,6.43,3.17,12.78,5.01,19.1.3,1.03,1.32,2.12,2.29,2.65,10.58,5.72,14.6,15.52,17.02,26.51,2.92,13.26,6.7,26.37,8.88,39.74,1.22,7.49,4.9,12.17,10.17,17.01,11.27,10.35,21.19,22.06,29.66,34.81,6.12,9.21,11.3,19.04,16.98,28.74,8.53-1.76,17.03-.57,25.95,3.13,10.09,4.2,18.28,10.53,26.18,17.57,1.53,1.36,2.59,3.31,3.67,5.1,3.2,5.32,6.81,10.47,9.33,16.1,6.78,15.11,12.94,30.5,19.6,45.67,3.64,8.3,10,14.56,16.71,20.46,3.87,3.4,7.61,6.95,11.54,10.29,4.32,3.67,9.07,6.89,13.08,10.86,3.19,3.16,5.7,7.05,8.25,10.79,4.34,6.38,3.9,14.12,5.63,21.25.22.9-.5,2.02-.78,3.04-.84-.6-1.66-1.24-2.54-1.78-1.27-.78-2.58-1.48-3.87-2.21-.92,1.69-2.29,3.29-2.62,5.09-.29,1.58.85,3.37.88,5.07.02,1.08-.86,2.16-1.33,3.25-1.05-.57-2.38-.9-3.1-1.75-1.45-1.72-2.58-3.71-3.83-5.6-.64.13-1.27.25-1.91.38-.59,2.97-1.06,5.96-1.82,8.88-.32,1.23-1.25,2.31-1.9,3.46-1.03-.77-2.34-1.33-3.03-2.33-5.37-7.77-7.92-16.98-12.36-25.11-4.9-8.98-10.72-17.8-20.32-23.16-7.71-4.31-15.23-9.05-22.36-14.25-2.21-1.61-4.15-5.45-3.96-8.11.4-5.52-3.51-6.84-6.79-8.58-3.55-1.89-6.6.85-9.39,2.67-.54.35-.34,3.24.44,3.99,5.22,5.04,10.8,9.7,16.05,14.71,4.6,4.38,9.25,8.78,13.28,13.67,4.38,5.3,8.47,10.93,11.95,16.85,3.4,5.78,6.04,12.04,8.7,18.22,2.43,5.62,4.91,11.3,6.51,17.18,1.81,6.64,2.62,13.56,3.97,20.33,2.51,12.67-.09,25.23-1,37.78-.55,7.6-2.96,15.05-4.37,22.6-1.31,7-2.26,14.07-3.61,21.06-1.25,6.41-2.9,12.75-4.24,19.14-1.34,6.41.43,12.61,1.23,18.93,1.04,8.26,1.31,16.65,1.45,24.98.07,4.31-1.68,8.44-6.2,9.76-4.46,1.3-10.41-.77-13.55-5.62-4.95-7.63-6.43-16.24-7.55-24.88-1.13-8.62-1.69-17.33-2.05-26.02-.16-3.89.73-7.84,1.24-11.75.64-4.87,1.67-9.71,2.02-14.6.78-11.11,1.92-22.26,1.64-33.36-.24-9.87-1.07-19.76-3.79-29.51-3.8-13.65-10.17-25.92-18.32-37.22-5.6-7.77-11.94-15.16-18.82-21.8-4.39-4.23-10.3-6.97-15.7-10.06-5.24-3-10.6-5.85-16.11-8.29-4.9-2.17-10.06-3.75-15.14-5.5-6.93-2.4-14.16-4.15-20.76-7.26-4.55-2.15-9.31-1.92-13.8-3.35-1.81-.58-3.34-2.07-4.99-3.15,0,0-.09.12-.09.12,3.15.55,6.3,1.17,9.47,1.64,8.18,1.21,16.01-.43,23.78-2.84,1.69-.53,3.66-.17,5.5-.22.19.2.37.4.56.6ZM316.39,61.43c-.5-.01-1-.03-1.5-.04-2.51,2.7-5.18,5.28-7.44,8.18-.72.93-.35,2.71-.48,4.11,1.36.02,2.8.35,4.05,0,2.2-.63,4.28-1.67,6.49-2.57.09-1.27.44-3.09.27-4.86-.16-1.63-.9-3.2-1.38-4.8ZM395.24,343.45c-3.51-.19-6.36-.35-10.13-.55,2.41,5.58,4.59,10.65,6.77,15.71.41-.02.81-.03,1.22-.05.69-4.87,1.38-9.74,2.15-15.11ZM322.43,100.52c1.55-1.17,3.29-1.92,4.15-3.25,1.51-2.31,2.69-4.9,3.6-7.52.58-1.67.74-3.67.42-5.4-.16-.86-1.81-1.45-2.79-2.16-.5.8-1.25,1.53-1.47,2.4-1.28,4.9-2.43,9.83-3.91,15.93ZM407.89,341.94c.6,5.89,1.12,10.92,1.65,16.1,1.8-4.96,3.43-9.47,5.08-14.01-2-.62-3.63-1.12-6.73-2.09ZM319.5,107.81c-.16-.3-.33-.59-.49-.89-1.52-.37-3.03-.92-4.56-.99-.48-.02-1.52,1.34-1.43,1.95.39,2.86,1.08,5.69,1.67,8.52,1.67-3.1-.6-7.4,4.82-8.6ZM360.75,275.19c-.69-.23-1.38-.45-2.08-.68-.52,1.83-1.03,3.67-1.55,5.5.67.2,1.35.39,2.02.59.53-1.8,1.07-3.61,1.6-5.41Z"/>
  <path d="M264.52,373.42c-.91-.73-2.48-1.34-2.63-2.19-1.84-10.83-8.24-19.57-13.05-29.03-2.5-4.92-4.99-9.85-7.2-14.89-2.74-6.23-5.6-12.46-7.65-18.94-2.21-7-3.85-14.21-5.17-21.44-1.2-6.6-1.65-13.34-2.95-20.04-.21,1.18-.43,2.36-.45,2.5-4.67.18-9.08.52-13.49.46-4.89-.06-8.68-3.5-10.73-7.94-5.57-12.02-5.57-24.78-5.31-37.55.14-7.16.84-14.32,1.57-21.45.13-1.27,1.65-2.41,2.53-3.6,0,0-.1-.08-.1-.08-.01,4.44.09,8.89-.08,13.33-.17,4.5-.41,9.01-.95,13.48-1.01,8.4-.21,16.71,1.8,24.78,1.22,4.88,3.81,9.49,6.23,13.98,1.42,2.63,12.34,3.06,13.63.51.88-1.74,1.07-4.97.01-6.36-6.51-8.6-4.67-18.02-3.43-27.44.18-1.38.47-2.76,1.23-4.09,1.05,10.19-.66,20.71,4.43,30.07.65-.03,1.29-.06,1.94-.08.32-3.61.66-7.23.94-10.84.08-1.06-.37-2.31.04-3.17.6-1.25,1.77-2.22,2.69-3.31.86,1.07,2.09,2,2.52,3.22,1.43,4.01,2.58,8.13,3.84,12.21.52-.12,1.04-.24,1.56-.35-.45-4.02-.66-8.1-1.45-12.05-.49-2.48.2-4.33,2.33-4.63,1.08-.16,2.86,1.65,3.65,2.98,1.84,3.07,3.26,6.4,4.88,9.61.59,1.17,1.28,2.3,1.87,3.36,4.51-3.78,2.76-7.24,1.95-10.39-2.62-10.14-5-20.38-10.12-29.67-3.87-7.03-9.92-11.39-17.71-6.1-3.96,2.69-7.31,6.3-10.92,9.51-.79.7-1.53,1.44-3.02,2.85-.21-1.67-.78-3.13-.37-3.5,4.6-4.16,8.94-8.83,14.16-12.04,8.39-5.15,14.52-2.08,19.95,6.72,6.71,10.89,9.34,23.26,11.41,35.72.04.26.05.54.04.8-.32,5.12-.65,10.23-1.06,16.53-1.44-2.53-2.73-4.36-3.57-6.39-.99-2.38-2.68-3.61-4.97-2.76-2.33.87-5.36,1.53-5.18,5.14.1,1.99.22,3.98.33,6.03-3.68-.7-4.6-2.1-5.01-7.53-2.4-.12-4.81-.23-6.57-.32,1.3,4.61,2.81,8.43,3.38,12.38,1.11,7.63,1.18,15.44,2.67,22.97,1.24,6.29,3.7,12.37,5.98,18.41,2.6,6.87,5.32,13.72,8.5,20.33,3.43,7.14,7.44,14,11.2,20.98.19.35.64.76.56,1.01-1.34,4.03,2.86,5.97,3.46,9.26.55,3.05,1.17,6.09,1.76,9.13l.09-.08ZM239.8,247.6c-.34.16-.68.32-1.01.48.31,1.72.63,3.43,1.02,5.57.99-.58,2.35-1.25,2.3-1.36-.66-1.61-1.51-3.14-2.31-4.7Z"/>
  <path d="M367.84,433.23c-.19-.2-.37-.4-.56-.6.42-.54.75-1.45,1.26-1.57,4.29-1,8.61-1.86,13.33-2.85-.43,1.39-.73,2.37-.99,3.19,1.68,1.48,3.08,3.13,4.83,4.19,6.2,3.75,12.75,6.96,18.75,11,8.96,6.03,18.63,11.1,26.2,19.11,2.98,3.15,6.83,5.45,9.89,8.53,4.64,4.67,8.93,9.69,13.39,14.54,1.54,1.67,3.29,3.18,4.63,4.99.88,1.19,1.84,2.93,1.6,4.21-.47,2.51.28,3.82,2.49,4.6,2.52.88,3,2.53,2.38,5.05-.4,1.67-.08,3.51-.08,5.61-2.06-.16-3.88-1.29-3.4-3.66.73-3.61-.63-5.72-3.45-7.59-.83-.55-1.15-1.96-1.58-3.02-.83-2.09-1.05-4.67-2.43-6.25-5.75-6.61-11.36-13.48-17.93-19.21-8.89-7.76-17.71-15.7-28.13-21.58-8.26-4.67-16.87-9.15-24.01-15.25-4.88-4.17-8.91-5.66-14.62-3.53-.48.18-1.06.07-1.6.1Z"/>
  <path d="M468.82,524.79c1.01,10.15,2.13,20.29,2.93,30.45.19,2.36-1.01,4.8-1.08,7.22-.08,2.86.36,5.73.6,8.59.02.25.32.48.32.72-.06,5.12-.14,10.24-.23,15.75-.74-.54-1.65-.84-1.81-1.37-.75-2.49-1.86-5.06-1.78-7.56.21-6.73-1.15-13.32.5-20.29,1.48-6.26-.01-13.27-.48-19.93-.24-3.41-1.2-6.76-1.61-10.17-.13-1.12.45-2.32.7-3.48l1.94.08Z"/>
  <path d="M252.52,301.91c.85-.53,1.7-1.07,2.08-1.31,4.32,7.78,8.48,15.53,12.93,23.12,1.4,2.39,2.47,5.4,6.68,4.96,1.18-.12,2.9,3.31,4.08,5.29.64,1.08.67,2.54.97,3.82,4.19.8,6.03,3.33,6.29,8.94-.65-.14-1.64-.13-1.73-.4-1.63-5.18-9.64-6.15-8.64-13.06.06-.44-.41-.95-.79-1.75-4.32,1.56-6.31-1.24-8.2-4.46-2.77-4.72-5.9-9.24-8.51-14.04-1.66-3.07-2.62-6.51-3.96-9.76-.22-.54-.78-.93-1.18-1.39l-.03.06Z"/>
  <path d="M305.99,82.16c-3.45,6.82-7.16,12.13-8.92,18.03-4.03,13.54-6.75,27.39-4.03,41.68.15.79-.58,1.74-.89,2.61-.49-.77-1.3-1.5-1.43-2.33-1.84-12.13-1.07-24.26,1.84-36.03,1.79-7.23,5.52-14.02,8.69-20.85.58-1.25,2.67-1.81,4.74-3.11Z"/>
  <path d="M328.62,433.92c-.83.4-1.92,1.35-2.44,1.1-4.7-2.25-9.47-4.45-13.9-7.17-5.23-3.22-10.16-6.95-15.21-10.46-1.53-1.07-3.05-2.16-4.57-3.24.33-.48.66-.96.99-1.45.79.15,1.73.06,2.35.47,8.47,5.63,16.87,11.38,25.37,16.98,2.3,1.51,4.88,2.6,7.33,3.88,0,0,.09-.12.09-.12Z"/>
  <path d="M264.43,373.51c1.88,2.6,3.82,5.16,5.64,7.8,2.93,4.25,5.67,8.63,8.72,12.79,2.91,3.97,6.11,7.72,9.19,11.57-.22.29-.44.58-.66.86-1.22-1.08-2.57-2.05-3.65-3.26-3.22-3.61-6.67-7.08-9.41-11.04-3.67-5.29-6.8-10.95-10.06-16.52-.3-.52.19-1.51.32-2.29.01,0-.08.08-.08.08Z"/>
  <path d="M291.58,88.02c0,5.13-4.17,9.6-9.14,9.79-3.31.13-6.8-4.71-6.69-9.27.09-3.75,4.31-7.78,8.26-7.89,4.64-.12,7.57,2.72,7.58,7.37ZM285.44,83.41c-4.7-.01-7.56,2.48-7.64,6.07-.08,3.46,1.97,5.75,5.18,5.76,2.74.01,6.86-4.4,6.88-7.53.02-3.36-2.46-3.96-4.41-4.3Z"/>
  <path d="M274.57,72.98c2.69.44,5.39.89,8.08,1.33-.04.4-.09.8-.13,1.2-3.02,1.83-6.44,3.24-8.96,5.6-2.6,2.43-4.33,5.79-6.43,8.74-.41-.18-.82-.35-1.24-.53.78-1.81,1.46-3.67,2.36-5.42.52-1.02,1.41-1.86,2.07-2.82,1.36-1.94,2.75-3.87,3.98-5.89.37-.61.25-1.53.36-2.31,0,0-.09.09-.09.09Z"/>
  <path d="M230.41,125.5c-1.73-1.07-3.66-1.92-5.12-3.28-1.42-1.33-2.36-3.18-3.52-4.81,1.83-3.61,13.64-5.83,19.67-3.18-5.96.81-11.2,1.51-17.26,2.33,2.29,3.31,4.22,6.09,6.15,8.88,0,0,.09.05.09.05Z"/>
  <path d="M255.85,144.24c-1.58.34-2.74.59-4.73,1.03-.41-2.6-.81-5.14-1.24-7.85,2.37,1.23,4.01,1.86,5.4,2.85,2.36,1.7,4.6,3.58,6.8,5.49.32.28.38,1.5.11,1.71-.89.7-1.95,1.39-3.03,1.58-.66.12-1.79-.51-2.16-1.14-.59-.97-.71-2.21-1.13-3.69Z"/>
  <path d="M252.56,301.86c-1.65-4.75-3.52-9.44-4.86-14.28-.89-3.24-1.01-6.7-.68-10.17,1.94,8.18,7.32,15.54,5.51,24.5,0,.02.02-.04.02-.04Z"/>
  <path d="M201.38,182.75c1.92-5.16,3.75-10.36,5.87-15.44.32-.76,1.99-.96,3.38-1.57-2.04,5.79-3.78,10.94-5.73,16.02-.35.91-1.53,1.51-2.33,2.25-.4-.42-.79-.84-1.19-1.26Z"/>
  <path d="M312.15,216.41c-.33,1.51-.66,3.02-1.08,4.9,1.11-.11,1.88-.19,3.05-.31-.28.76-.34,1.49-.63,1.61-2.36.93-8.02-2.42-9.47-4.17-1.46-1.07-2.93-2.14-4.39-3.21.21-.17.41-.34.62-.51,3.99.61,7.98,1.21,11.96,1.8-.01-.02-.05-.11-.05-.11Z"/>
  <path d="M245.74,125.74q-7.5.7-8.23-1.63c-2.05-.68-3.73-1.24-5.42-1.8,1.1-1.31,2.21-2.61,3.33-3.94,2.04,1.85,3.65,3.3,5.41,4.9,2.42-2.52,3.43-.09,4.9,2.48Z"/>
  <path d="M328.29,350.25c-3.86-.57-7.36.29-9.23-3.22-.35-.67.45-2.73.51-2.72,2.32.33,4.78.49,6.85,1.46.95.45,1.12,2.55,1.87,4.48Z"/>
  <path d="M230.41,125.5s-.09-.05-.09-.05c2.95.71,6.06,1.06,8.78,2.28,1.63.73,2.65,2.81,4.42,4.81-3.05.33-5.38.96-6.73-2.29-.26-.63-1.51-.79-2.19-1.32-1.44-1.1-2.8-2.29-4.2-3.44Z"/>
  <path d="M307,184.83c-.66-1.93-1.32-3.86-1.99-5.78,1.19.11,3.18-.13,3.42.41.65,1.45.55,3.23.74,4.88-.73.16-1.45.33-2.18.49Z"/>
  <path d="M241.62,261.94c1.54,2.04,3.08,4.08,4.61,6.13-4.37.07-6.04-2.21-4.61-6.13Z"/>
  <path d="M223.38,182.71c1.59-.22,2.92-.17,2.31,2.09-.68,2.51-1.31,5.04-1.97,7.56-.38,0-.77-.02-1.15-.02.29-3.25.58-6.49.87-9.74l-.06.12Z"/>
  <path d="M268.09,69.45s0,.35,0,.35c2.24,0,4.49,0,6.85,0-.1.86-.23,2.01-.37,3.17,0,0,.09-.09.08-.09-2.75-.08-5.74.3-6.57-3.44Z"/>
  <path d="M199.98,199.32c-1.81-5.14-1.25-8.44,2.28-10.69-.86,3.81-1.62,7.21-2.38,10.61,0,0,.1.08.1.08Z"/>
  <path d="M223.44,182.6c-1.27.26-2.55.52-4.05.83.46-2.99-1.12-6.57,3.95-6.04-1.76,1.94-3.03,3.79.03,5.34.01-.02.07-.13.07-.13Z"/>
  <polygon points="430.69 335.21 430.66 335.17 430.73 335.2 430.63 335.09 430.69 335.21"/>
  <polygon points="430.73 335.2 430.56 335.27 430.63 335.1 430.73 335.2"/>
</svg>