<?xml version="1.0" encoding="UTF-8"?>
<svg id="Capa_1" xmlns="http://www.w3.org/2000/svg" viewBox="0 0 570.67 553.23">
  <defs>
    <style>
      .cls-1 {
        fill: #fff;
      }
    </style>
  </defs>
  <path class="cls-1" d="M231.52,278.96c1.75,8.42-.59,15.16-5.29,21.2-4.37,5.62-10.32,9.15-16.83,11.76-9.65,3.87-19.77,5.45-30.09,5.99-13.44.7-26.69,2.35-39.37,7.23-23.23,8.94-39.32,24.59-44.77,49.37-4.34,19.71.5,37.26,15.23,51.51,15.73,15.23,41.72,13.74,53.91-3.03,3.6-4.96,6.46-10.26,4-16.8-2.85-7.6-12.35-9.37-17.6-3.17-1.08,1.27-1.92,2.74-2.86,4.12-4.11,5.99-11.1,7.87-17.69,4.76-10.69-5.03-16.3-18.06-13.53-30.99,3.37-15.71,13.36-25.83,27.24-32.75,8.85-4.41,18.36-6.22,28.12-6.82,15.55-.95,30.89-2.99,45.6-8.48,18.32-6.83,30.76-19.09,35.22-38.5,2.59-11.27,1.03-22.01-5.62-31.69-7.56-11.01-20.07-15.56-32.92-11.89-9.49,2.71-19,4.82-28.96,4.72-11.35-.12-21.45-3.75-30.79-9.93-1.12-.74-2.22-1.51-3.35-2.23-4.62-2.93-9.15-2.52-12.04,1.08-3.2,3.98-2.97,9.69.87,13.34,7.35,6.99,15.84,11.95,25.96,13.79,10.85,1.98,21.57,1.12,32.22-1.44.76-.18,1.5-.46,2.26-.61.85-.17,1.91-.57,2.38.48.42.94-.35,1.68-.99,2.3-1.71,1.65-3.69,2.96-5.91,3.73-30.7,10.61-60.84,10.32-89.65-5.88-14.18-7.97-23.82-20.21-29.64-35.53-13.08-34.4,2.76-67.45,23.9-86.14,14.3-12.64,30.6-21.77,49.01-26.6,18.57-4.87,37.57-6.45,56.79-5.24,24.34,1.53,47.38,7.51,68.62,19.68,13.21,7.57,24.25,17.45,31.51,31.13,3.5,6.6,5.63,13.65,6.62,20.97,1.84,13.57,7.58,24.98,18.27,33.56,15.3,12.28,27.44,27.42,39.57,42.63,10.35,12.97,22.99,23.1,38.54,29.2,9.69,3.81,19.79,4.42,30,2.55,12.9-2.36,24.55-7.07,33.77-16.98,12.61-13.55,15.57-31.86,7.26-47.34-5.79-10.79-20.24-17.21-32.1-14.02-5.22,1.4-8.71,4.83-9.88,10.32-1.51,7.1,3.3,12.73,10.56,12.28,1.11-.07,2.21-.35,3.32-.43,6.89-.5,11.65,4.48,10.55,11.31-1.62,10.11-8.32,16.06-17.26,19.7-19.37,7.89-35.8,2.04-50.37-11.42-6.26-5.79-11.38-12.6-16.31-19.5-8.19-11.46-17.99-21.31-29.02-29.99-1.32-1.04-2.59-2.13-3.93-3.14-6.85-5.14-10.12-12.07-11.19-20.51-3.85-30.29-20.19-52.37-45.71-68.17-29.31-18.15-61.57-25.01-95.65-24.77-20.01.14-39.71,2.57-58.62,9.27-25.53,9.05-48.09,22.79-64.4,44.96-16.94,23.03-24.44,48.84-19.63,77.39,4.55,26.97,18.7,48.03,41.51,63,23.21,15.23,48.98,19.65,76.29,16.99,16.97-1.66,33.14-5.84,48.09-14.26,5.39-3.04,9.98-7.08,14.79-12.09Z"/>
  <path class="cls-1" d="M308.16,455.95c17.37-5.27,31.28-14.64,44.09-25.88,13-11.41,24.36-24.42,36.17-37,14.41-15.35,29.53-29.92,47.53-41.11,10.41-6.47,21.41-11.3,33.96-11.37,6.46-.03,12.67,1.03,18.43,4.24,10.48,5.83,15.36,16.77,13.06,28.55-3.91,19.99-28.75,33.98-47.02,29.39-5.66-1.42-10.34-4.36-12.98-9.89-3.03-6.36.13-14.02,6.41-15.41,3.72-.82,7.48,1.25,8.73,4.88.52,1.51.84,3.08,1.36,4.58,1.35,3.92,4.81,6.32,8.79,6.18,3.94-.14,7.51-3.07,8.51-7.03,1.37-5.38-.21-10.23-2.86-14.79-5.66-9.72-16.11-14.55-27.01-12.62-12.22,2.17-21.19,10.73-23.5,22.44-3.18,16.07,6.47,32.4,22.75,38.57,12.46,4.72,24.93,3.93,37.2-.38,17.43-6.12,29.79-17.78,36.28-35.24,12.33-33.15-12.79-60.89-41.91-62.64-18.42-1.11-34.91,4.7-50.33,14.2-19.34,11.91-35.73,27.27-51.11,43.8-12.01,12.9-23.52,26.28-37.05,37.69-10.12,8.53-20.97,15.84-33.57,20.13-21.71,7.39-47.21,1.54-59.42-20.06-10.74-19-9.34-38.89,6.87-56.14,6.24-6.64,13.53-12.16,20.02-18.54,9.63-9.47,16.85-20.37,20.22-33.55,3.31-12.96,2.79-25.83-1.43-38.55-.39-1.18-.95-2.24-1.75-3.18-1.6-1.88-3.65-2.66-6.05-2.07-2.45.6-3.74,2.37-4.2,4.78-.46,2.37.22,4.66.59,6.96,2.15,13.28-1.52,25.2-8.21,36.53-5.64,9.55-13.61,16.87-21.86,24.02-9.42,8.15-17.91,17.09-23.49,28.45-8.31,16.93-8.52,34.06-1.59,51.47,5.3,13.31,13.74,24.08,25.78,31.82,13.81,8.89,29.02,11.8,45.24,9.68,4.84-.63,9.63-1.53,13.38-2.93Z"/>
  <path class="cls-1" d="M317.25,387.15c-2.77.91-5.58,1.52-8.54,1.36-6.62-.38-11.95-2.92-14.82-9.18-2.83-6.17-1.55-12,2.18-17.39,2.12-3.07,5.04-5.39,8.01-7.56,18.17-13.26,23.94-32.37,25.08-53.53.37-6.78-5.2-10.85-10.56-8.31-2.53,1.2-3.73,3.45-4.43,6-1.21,4.43-2.85,8.68-4.62,12.92-4.62,11.03-12.3,19.53-21.42,27.01-9.95,8.16-16.88,18.25-17.61,31.51-1.46,26.46,21.79,45.71,47.94,40.19,20.29-4.28,33.08-17.12,41.3-35.28,8.85-19.54,9.93-39.79,5.4-60.62-3.58-16.46-9.25-32.14-16.39-47.33-.52-1.11-1.13-2.19-1.82-3.2-2.51-3.62-6.7-4.75-10.29-2.83-3.04,1.63-4.33,6.33-2.83,10.08,8.97,22.37,13.62,45.52,11.98,69.68-.77,11.38-3.59,22.3-9.98,31.95-4.54,6.85-10.36,12.28-18.57,14.54Z"/>
  <path class="cls-1" d="M241.13,217.43c3.91,12.22,18.55,19.47,30.97,15.33,12.3-4.1,19.15-17.94,15.1-30.55-3.98-12.51-17.06-19.31-29.65-15.4-12.77,4-20.42,18.21-16.43,30.61ZM255.52,208.48c.76-5.16,5.56-8.73,10.72-7.97,5.16.76,8.73,5.56,7.97,10.72s-5.55,8.7-10.72,7.94c-5.16-.76-8.73-5.56-7.98-10.69Z"/>
  <path class="cls-1" d="M211.4,244.14c1.63-.47,3.18-1.15,4.43-2.3,2.41-2.21,3.5-4.95,2.4-8.15-1.12-3.25-3.7-4.66-7.03-4.57-1.66.04-3.31.41-4.96.66-9.13,1.4-17.18-1.35-24.66-6.34-2.41-1.61-4.79-3.29-7.3-4.72-4.57-2.61-8.55-2.02-11.43,1.49-3.02,3.69-3.07,9.05.37,12.53,7.35,7.44,16.18,12.16,26.67,13.44,7.31.89,14.44-.38,21.53-2.04Z"/>
  <path class="cls-1" d="M213.47,143.7c2.87-1.26,4.24-3.13,4.49-5.81.27-2.95-.73-5.42-3.47-6.63-3.91-1.72-8.11-2.5-12.37-2.28-3.14.17-5.04,2.27-5.73,5.25-.71,3.07.48,5.72,3.15,7.11,4.46,2.33,9.45,2.08,13.94,2.35Z"/>
  <path class="cls-1" d="M129.9,144.29c-2.59,1.21-5.65,2.82-8.23,5.14-3.01,2.71-3.56,6.81-1.49,9.62,2.31,3.14,5.4,3.49,9.41,1.07,2.28-1.38,4.61-2.7,6.82-4.18,3.35-2.24,4.19-5.31,2.53-8.65-1.59-3.21-4.81-4.43-9.04-3Z"/>
  <path class="cls-1" d="M100.86,169.84c-1.52.56-2.68,1.58-3.59,2.88-1.95,2.77-3.28,5.83-3.82,9.18-.62,3.83,1.19,6.63,5.02,7.93,2.94,1,5.77-.16,7.57-3.28,1.61-2.8,3.18-5.65,3.76-8.89.95-5.29-3.82-9.44-8.94-7.82Z"/>
  <path class="cls-1" d="M172.49,143.68c3.63-1.07,5.6-4.25,4.81-7.64-.85-3.67-4-5.99-7.67-5.41-2.75.44-5.5.99-8.15,1.82-4.08,1.28-6.24,5.22-5.12,8.87,1.06,3.48,4.51,5.2,8.68,4.25,2.5-.57,4.97-1.26,7.46-1.89Z"/>
  <path class="cls-1" d="M100.18,208.15c-1.08-3.53-3.91-5.51-6.98-5.31-3.54.23-6.24,2.63-6.73,6.28-.4,2.98-.34,6.01.19,8.97.55,3.09,3.03,5.08,6.38,5.34,3.37.26,5.92-1.3,6.83-4.6,1.03-3.69.87-7.48.32-10.69Z"/>
</svg>